<svg width="133" height="25" viewBox="0 0 133 25" fill="none" xmlns="http://www.w3.org/2000/svg">
<path fill-rule="evenodd" clip-rule="evenodd" d="M3 0.0444946L15.8515 7.62414C19.4037 9.72834 19.4037 13.1448 15.8515 15.249L3 22.8061V0.0444946Z" fill="#FFCB05"/>
<path fill-rule="evenodd" clip-rule="evenodd" d="M8.92798 3.52881L18.5892 9.23051C23.137 11.923 23.137 16.5839 18.5892 19.2538L8.92798 24.9555V3.52881Z" fill="#00C1F3"/>
<path fill-rule="evenodd" clip-rule="evenodd" d="M8.92798 3.52881L15.8515 7.60146C19.4037 9.70566 19.4037 13.1222 15.8515 15.2264L8.92798 19.299V3.52881Z" fill="#00A651"/>
<path fill-rule="evenodd" clip-rule="evenodd" d="M33 7.33098V17.4639H36.7637C40.0374 17.4639 41.7744 14.9474 41.7299 12.364C41.7299 9.7807 39.9928 7.33098 36.7637 7.33098H33ZM35.1379 15.5041V9.29075H36.7191C38.5675 9.29075 39.5697 10.7606 39.5697 12.3863C39.5697 14.012 38.5898 15.5264 36.7191 15.5264H35.1379V15.5041ZM49.7472 7.33098H43.5338V17.4862H49.8585V15.5041H45.7163V13.188H49.4799V11.2728H45.7163V9.22394H49.7472V7.33098ZM51.2615 14.4797C51.2615 16.7067 53.3549 17.7089 55.4038 17.7089C57.4081 17.6643 59.4792 16.9294 59.4792 14.5242C59.4792 12.1413 57.6308 11.6737 55.4929 11.4732C54.4239 11.3619 53.5554 11.1614 53.5554 10.2484C53.5554 9.46891 54.4016 9.00124 55.2702 9.00124C56.1387 9.00124 56.985 9.35756 57.1186 10.1816H59.1452C59.1452 7.91 57.1631 7.10828 55.2702 7.10828C53.2658 7.10828 51.4174 8.04362 51.4174 10.2929C51.4174 12.3863 53.2658 13.0099 55.1143 13.188C56.0942 13.2548 57.3413 13.3662 57.3413 14.5242C57.3413 15.5932 56.2946 15.7936 55.4038 15.7936C54.4239 15.7936 53.3995 15.3928 53.3549 14.4797H51.2615ZM67.0956 15.7936L67.8973 17.4862H70.1466V17.1967L65.5144 7.2419H64.5123L59.8355 17.1967V17.4862H62.1071L62.8865 15.7936H67.0956ZM65.0022 10.6047L66.4052 13.9452H63.5992L65.0022 10.6047ZM74.3557 7.33098V17.4639H78.1193C81.393 17.4639 83.1301 14.9474 83.0856 12.364C83.0856 9.7807 81.3485 7.33098 78.1193 7.33098H74.3557ZM76.5159 15.5041V9.29075H78.0971C79.9455 9.29075 80.9476 10.7606 80.9476 12.3863C80.9476 14.012 79.9678 15.5264 78.0971 15.5264H76.5159V15.5041ZM87.8069 15.7491V9.00124H89.1208V7.30871H84.3104V9.00124H85.6244V15.7491H84.1991V17.4639H89.2544V15.7491H87.8069ZM90.3234 12.4086C90.3234 15.7714 92.8176 17.6198 95.4901 17.6198C97.4276 17.6198 99.2537 16.7735 100.011 14.7247C100.345 13.7893 100.367 12.854 100.323 11.8741H95.5791V13.7002H98.3406C97.8952 15.2146 96.8931 15.6377 95.4901 15.6377C93.6862 15.6377 92.5281 14.3238 92.5281 12.4086C92.5281 10.6047 93.5971 9.15713 95.4901 9.15713C96.6481 9.15713 97.4721 9.55799 97.962 10.5379H100.1C99.5209 8.17724 97.4944 7.19736 95.4901 7.19736C92.8399 7.19736 90.3234 9.04578 90.3234 12.4086ZM105.044 15.7491V9.00124H106.358V7.30871H101.548V9.00124H102.861V15.7491H101.436V17.4639H106.492V15.7491H105.044ZM110.099 9.20167V17.4639H112.193V9.20167H114.887V7.30871H107.382V9.20167H110.099ZM121.591 15.7936H117.382L116.602 17.4862H114.331V17.1967L119.007 7.2419H120.009L124.642 17.1967V17.4862H122.392L121.591 15.7936ZM119.497 10.6047L118.094 13.9452H120.9L119.497 10.6047ZM127.915 7.33098H125.733V17.4862H132.147V15.5487H127.915V7.33098Z" fill="#022B55"/>
</svg>
