<svg width="205" height="41" viewBox="0 0 205 41" fill="none" xmlns="http://www.w3.org/2000/svg">
<path d="M41.772 13.8741C41.2773 14.4714 40.694 14.9287 40.022 15.2461C39.35 15.5541 38.5987 15.7081 37.768 15.7081C37.0213 15.7081 36.326 15.5727 35.682 15.3021C35.0473 15.0314 34.4967 14.6627 34.03 14.1961C33.5633 13.7294 33.1947 13.1787 32.924 12.5441C32.6533 11.9001 32.518 11.2094 32.518 10.4721C32.518 9.73474 32.6533 9.04874 32.924 8.41407C33.1947 7.77007 33.5633 7.21474 34.03 6.74807C34.4967 6.2814 35.0473 5.91274 35.682 5.64207C36.326 5.3714 37.0213 5.23607 37.768 5.23607C38.5707 5.23607 39.2753 5.37607 39.882 5.65607C40.498 5.93607 41.044 6.34207 41.52 6.87407L40.19 8.16207C39.8913 7.81674 39.546 7.5414 39.154 7.33607C38.7713 7.13074 38.314 7.02807 37.782 7.02807C37.3153 7.02807 36.8767 7.11207 36.466 7.28007C36.0553 7.43874 35.696 7.6674 35.388 7.96607C35.0893 8.26474 34.8513 8.62874 34.674 9.05807C34.4967 9.47807 34.408 9.9494 34.408 10.4721C34.408 10.9947 34.4967 11.4707 34.674 11.9001C34.8513 12.3201 35.0893 12.6794 35.388 12.9781C35.696 13.2767 36.0553 13.5101 36.466 13.6781C36.8767 13.8367 37.3153 13.9161 37.782 13.9161C38.342 13.9161 38.8367 13.8041 39.266 13.5801C39.7047 13.3467 40.092 13.0201 40.428 12.6001L41.772 13.8741ZM47.8985 15.7081C47.1519 15.7081 46.4565 15.5727 45.8125 15.3021C45.1779 15.0314 44.6272 14.6627 44.1605 14.1961C43.6939 13.7201 43.3252 13.1647 43.0545 12.5301C42.7932 11.8861 42.6625 11.2001 42.6625 10.4721C42.6625 9.74407 42.7932 9.06274 43.0545 8.42807C43.3252 7.78407 43.6939 7.22874 44.1605 6.76207C44.6272 6.28607 45.1779 5.91274 45.8125 5.64207C46.4565 5.3714 47.1519 5.23607 47.8985 5.23607C48.6452 5.23607 49.3359 5.3714 49.9705 5.64207C50.6145 5.91274 51.1699 6.28607 51.6365 6.76207C52.1032 7.22874 52.4672 7.78407 52.7285 8.42807C52.9992 9.06274 53.1345 9.74407 53.1345 10.4721C53.1345 11.2001 52.9992 11.8861 52.7285 12.5301C52.4672 13.1647 52.1032 13.7201 51.6365 14.1961C51.1699 14.6627 50.6145 15.0314 49.9705 15.3021C49.3359 15.5727 48.6452 15.7081 47.8985 15.7081ZM47.8985 13.9161C48.3652 13.9161 48.7992 13.8321 49.2005 13.6641C49.6112 13.4961 49.9659 13.2627 50.2645 12.9641C50.5725 12.6654 50.8105 12.3061 50.9785 11.8861C51.1559 11.4567 51.2445 10.9854 51.2445 10.4721C51.2445 9.95874 51.1559 9.49207 50.9785 9.07207C50.8105 8.64274 50.5725 8.27874 50.2645 7.98007C49.9659 7.6814 49.6112 7.44807 49.2005 7.28007C48.7992 7.11207 48.3652 7.02807 47.8985 7.02807C47.4319 7.02807 46.9932 7.11207 46.5825 7.28007C46.1812 7.44807 45.8265 7.6814 45.5185 7.98007C45.2199 8.27874 44.9819 8.64274 44.8045 9.07207C44.6365 9.49207 44.5525 9.95874 44.5525 10.4721C44.5525 10.9854 44.6365 11.4567 44.8045 11.8861C44.9819 12.3061 45.2199 12.6654 45.5185 12.9641C45.8265 13.2627 46.1812 13.4961 46.5825 13.6641C46.9932 13.8321 47.4319 13.9161 47.8985 13.9161ZM54.6643 5.46007H56.8623L60.8943 12.1801H61.0063L60.8943 10.2481V5.46007H62.7703V15.4841H60.7823L56.5263 8.38607H56.4143L56.5263 10.3181V15.4841H54.6643V5.46007ZM66.9094 15.4841V7.25207H64.1094V5.46007H71.5994V7.25207H68.7994V15.4841H66.9094ZM74.8335 7.25207V9.57607H78.8515V11.3681H74.8335V13.6921H79.2995V15.4841H72.9435V5.46007H79.2995V7.25207H74.8335ZM81.0373 5.46007H83.2353L87.2673 12.1801H87.3793L87.2673 10.2481V5.46007H89.1433V15.4841H87.1553L82.8993 8.38607H82.7873L82.8993 10.3181V15.4841H81.0373V5.46007ZM93.2825 15.4841V7.25207H90.4825V5.46007H97.9725V7.25207H95.1725V15.4841H93.2825ZM102.393 5.46007H104.255L107.321 10.7661H107.433L110.499 5.46007H112.375V15.4841H110.499V10.5421L110.611 8.86207H110.499L107.951 13.3561H106.817L104.255 8.86207H104.143L104.255 10.5421V15.4841H102.393V5.46007ZM117.323 5.46007H119.479L123.245 15.4841H121.159L120.333 13.0901H116.469L115.643 15.4841H113.557L117.323 5.46007ZM119.717 11.3541L118.821 8.84807L118.457 7.63007H118.345L117.981 8.84807L117.085 11.3541H119.717ZM124.418 5.46007H126.616L130.648 12.1801H130.76L130.648 10.2481V5.46007H132.524V15.4841H130.536L126.28 8.38607H126.168L126.28 10.3181V15.4841H124.418V5.46007ZM137.461 5.46007H139.617L143.383 15.4841H141.297L140.471 13.0901H136.607L135.781 15.4841H133.695L137.461 5.46007ZM139.855 11.3541L138.959 8.84807L138.595 7.63007H138.483L138.119 8.84807L137.223 11.3541H139.855ZM149.043 9.98207H153.957C153.985 10.0941 154.009 10.2294 154.027 10.3881C154.046 10.5467 154.055 10.7054 154.055 10.8641C154.055 11.5081 153.957 12.1147 153.761 12.6841C153.565 13.2534 153.257 13.7621 152.837 14.2101C152.389 14.6861 151.853 15.0547 151.227 15.3161C150.602 15.5774 149.888 15.7081 149.085 15.7081C148.357 15.7081 147.671 15.5774 147.027 15.3161C146.383 15.0547 145.823 14.6907 145.347 14.2241C144.871 13.7574 144.493 13.2067 144.213 12.5721C143.933 11.9281 143.793 11.2281 143.793 10.4721C143.793 9.71607 143.933 9.02074 144.213 8.38607C144.493 7.74207 144.871 7.18674 145.347 6.72007C145.823 6.2534 146.383 5.8894 147.027 5.62807C147.671 5.36674 148.357 5.23607 149.085 5.23607C149.897 5.23607 150.621 5.37607 151.255 5.65607C151.899 5.93607 152.45 6.3234 152.907 6.81807L151.605 8.09207C151.279 7.74674 150.915 7.4854 150.513 7.30807C150.112 7.1214 149.631 7.02807 149.071 7.02807C148.614 7.02807 148.18 7.11207 147.769 7.28007C147.359 7.43874 146.999 7.6674 146.691 7.96607C146.383 8.26474 146.136 8.62874 145.949 9.05807C145.772 9.47807 145.683 9.9494 145.683 10.4721C145.683 10.9947 145.772 11.4707 145.949 11.9001C146.136 12.3201 146.383 12.6794 146.691 12.9781C147.009 13.2767 147.373 13.5101 147.783 13.6781C148.194 13.8367 148.633 13.9161 149.099 13.9161C149.631 13.9161 150.079 13.8414 150.443 13.6921C150.817 13.5334 151.134 13.3327 151.395 13.0901C151.582 12.9221 151.741 12.7121 151.871 12.4601C152.011 12.1987 152.119 11.9094 152.193 11.5921H149.043V9.98207ZM157.507 7.25207V9.57607H161.525V11.3681H157.507V13.6921H161.973V15.4841H155.617V5.46007H161.973V7.25207H157.507ZM163.711 5.46007H165.573L168.639 10.7661H168.751L171.817 5.46007H173.693V15.4841H171.817V10.5421L171.929 8.86207H171.817L169.269 13.3561H168.135L165.573 8.86207H165.461L165.573 10.5421V15.4841H163.711V5.46007ZM177.605 7.25207V9.57607H181.623V11.3681H177.605V13.6921H182.071V15.4841H175.715V5.46007H182.071V7.25207H177.605ZM183.809 5.46007H186.007L190.039 12.1801H190.151L190.039 10.2481V5.46007H191.915V15.4841H189.927L185.671 8.38607H185.559L185.671 10.3181V15.4841H183.809V5.46007ZM196.054 15.4841V7.25207H193.254V5.46007H200.744V7.25207H197.944V15.4841H196.054ZM36.074 35.7081C35.6447 35.7081 35.234 35.6474 34.842 35.5261C34.45 35.4047 34.0907 35.2227 33.764 34.9801C33.4373 34.7374 33.1527 34.4434 32.91 34.0981C32.6673 33.7434 32.476 33.3327 32.336 32.8661L34.114 32.1661C34.2447 32.6701 34.4733 33.0901 34.8 33.4261C35.1267 33.7527 35.556 33.9161 36.088 33.9161C36.284 33.9161 36.4707 33.8927 36.648 33.8461C36.8347 33.7901 36.998 33.7154 37.138 33.6221C37.2873 33.5194 37.404 33.3934 37.488 33.2441C37.572 33.0947 37.614 32.9221 37.614 32.7261C37.614 32.5394 37.5813 32.3714 37.516 32.2221C37.4507 32.0727 37.3387 31.9327 37.18 31.8021C37.0307 31.6714 36.83 31.5454 36.578 31.4241C36.3353 31.3027 36.032 31.1767 35.668 31.0461L35.052 30.8221C34.7813 30.7287 34.506 30.6027 34.226 30.4441C33.9553 30.2854 33.708 30.0941 33.484 29.8701C33.26 29.6461 33.0733 29.3847 32.924 29.0861C32.784 28.7781 32.714 28.4327 32.714 28.0501C32.714 27.6581 32.7887 27.2941 32.938 26.9581C33.0967 26.6127 33.316 26.3141 33.596 26.0621C33.8853 25.8007 34.226 25.6001 34.618 25.4601C35.0193 25.3107 35.4627 25.2361 35.948 25.2361C36.452 25.2361 36.886 25.3061 37.25 25.4461C37.6233 25.5767 37.936 25.7494 38.188 25.9641C38.4493 26.1694 38.6593 26.3981 38.818 26.6501C38.9767 26.9021 39.0933 27.1401 39.168 27.3641L37.502 28.0641C37.4087 27.7841 37.236 27.5321 36.984 27.3081C36.7413 27.0841 36.4053 26.9721 35.976 26.9721C35.5653 26.9721 35.2247 27.0701 34.954 27.2661C34.6833 27.4527 34.548 27.7001 34.548 28.0081C34.548 28.3067 34.6787 28.5634 34.94 28.7781C35.2013 28.9834 35.6167 29.1841 36.186 29.3801L36.816 29.5901C37.2173 29.7301 37.5813 29.8934 37.908 30.0801C38.244 30.2574 38.5287 30.4721 38.762 30.7241C39.0047 30.9761 39.1867 31.2654 39.308 31.5921C39.4387 31.9094 39.504 32.2781 39.504 32.6981C39.504 33.2207 39.3967 33.6734 39.182 34.0561C38.9767 34.4294 38.7107 34.7374 38.384 34.9801C38.0573 35.2227 37.6887 35.4047 37.278 35.5261C36.8673 35.6474 36.466 35.7081 36.074 35.7081ZM43.1709 30.8221L39.7969 25.4601H42.0509L44.0529 28.7781H44.1649L46.0969 25.4601H48.3789L45.0609 30.8221V35.4841H43.1709V30.8221ZM52.4119 35.7081C51.9826 35.7081 51.5719 35.6474 51.1799 35.5261C50.7879 35.4047 50.4286 35.2227 50.1019 34.9801C49.7752 34.7374 49.4906 34.4434 49.2479 34.0981C49.0052 33.7434 48.8139 33.3327 48.6739 32.8661L50.4519 32.1661C50.5826 32.6701 50.8112 33.0901 51.1379 33.4261C51.4646 33.7527 51.8939 33.9161 52.4259 33.9161C52.6219 33.9161 52.8086 33.8927 52.9859 33.8461C53.1726 33.7901 53.3359 33.7154 53.4759 33.6221C53.6252 33.5194 53.7419 33.3934 53.8259 33.2441C53.9099 33.0947 53.9519 32.9221 53.9519 32.7261C53.9519 32.5394 53.9192 32.3714 53.8539 32.2221C53.7886 32.0727 53.6766 31.9327 53.5179 31.8021C53.3686 31.6714 53.1679 31.5454 52.9159 31.4241C52.6732 31.3027 52.3699 31.1767 52.0059 31.0461L51.3899 30.8221C51.1192 30.7287 50.8439 30.6027 50.5639 30.4441C50.2932 30.2854 50.0459 30.0941 49.8219 29.8701C49.5979 29.6461 49.4112 29.3847 49.2619 29.0861C49.1219 28.7781 49.0519 28.4327 49.0519 28.0501C49.0519 27.6581 49.1266 27.2941 49.2759 26.9581C49.4346 26.6127 49.6539 26.3141 49.9339 26.0621C50.2232 25.8007 50.5639 25.6001 50.9559 25.4601C51.3572 25.3107 51.8006 25.2361 52.2859 25.2361C52.7899 25.2361 53.2239 25.3061 53.5879 25.4461C53.9612 25.5767 54.2739 25.7494 54.5259 25.9641C54.7872 26.1694 54.9972 26.3981 55.1559 26.6501C55.3146 26.9021 55.4312 27.1401 55.5059 27.3641L53.8399 28.0641C53.7466 27.7841 53.5739 27.5321 53.3219 27.3081C53.0792 27.0841 52.7432 26.9721 52.3139 26.9721C51.9032 26.9721 51.5626 27.0701 51.2919 27.2661C51.0212 27.4527 50.8859 27.7001 50.8859 28.0081C50.8859 28.3067 51.0166 28.5634 51.2779 28.7781C51.5392 28.9834 51.9546 29.1841 52.5239 29.3801L53.1539 29.5901C53.5552 29.7301 53.9192 29.8934 54.2459 30.0801C54.5819 30.2574 54.8666 30.4721 55.0999 30.7241C55.3426 30.9761 55.5246 31.2654 55.6459 31.5921C55.7766 31.9094 55.8419 32.2781 55.8419 32.6981C55.8419 33.2207 55.7346 33.6734 55.5199 34.0561C55.3146 34.4294 55.0486 34.7374 54.7219 34.9801C54.3952 35.2227 54.0266 35.4047 53.6159 35.5261C53.2052 35.6474 52.8039 35.7081 52.4119 35.7081ZM59.3899 35.4841V27.2521H56.5899V25.4601H64.0799V27.2521H61.2799V35.4841H59.3899ZM67.314 27.2521V29.5761H71.332V31.3681H67.314V33.6921H71.78V35.4841H65.424V25.4601H71.78V27.2521H67.314ZM73.5178 25.4601H75.3798L78.4458 30.7661H78.5578L81.6238 25.4601H83.4998V35.4841H81.6238V30.5421L81.7358 28.8621H81.6238L79.0758 33.3561H77.9418L75.3798 28.8621H75.2678L75.3798 30.5421V35.4841H73.5178V25.4601Z" fill="#001B3D"/>
</svg>
