<svg width="158" height="32" viewBox="0 0 158 32" fill="none" xmlns="http://www.w3.org/2000/svg">
<path fill-rule="evenodd" clip-rule="evenodd" d="M0 0L16.0158 9.44596C20.4427 12.0683 20.4427 16.326 16.0158 18.9483L0 28.3661V0Z" fill="#FFCB05"/>
<path fill-rule="evenodd" clip-rule="evenodd" d="M7.38759 4.34232L19.4277 11.4479C25.0952 14.8034 25.0952 20.6119 19.4277 23.9392L7.38759 31.0448V4.34232Z" fill="#00C1F3"/>
<path fill-rule="evenodd" clip-rule="evenodd" d="M7.38759 4.34232L16.0158 9.41776C20.4427 12.0401 20.4427 16.2978 16.0158 18.9201L7.38759 23.9956V4.34232Z" fill="#00A651"/>
<path fill-rule="evenodd" clip-rule="evenodd" d="M31.6783 9.28197V22.1116H36.4436C40.5886 22.1116 42.7879 18.9253 42.7315 15.6545C42.7315 12.3836 40.5322 9.28197 36.4436 9.28197H31.6783ZM34.3852 19.6302V11.7633H36.3872C38.7276 11.7633 39.9964 13.6243 39.9964 15.6827C39.9964 17.741 38.7558 19.6584 36.3872 19.6584H34.3852V19.6302ZM52.8824 9.28197H45.0155V22.1398H53.0234V19.6302H47.7788V16.6978H52.544V14.2728H47.7788V11.6787H52.8824V9.28197ZM54.7998 18.3332C54.7998 21.1529 57.4503 22.4217 60.0444 22.4217C62.5821 22.3653 65.2044 21.4348 65.2044 18.3896C65.2044 15.3725 62.8641 14.7804 60.1572 14.5266C58.8037 14.3856 57.7041 14.1318 57.7041 12.9758C57.7041 11.9889 58.7756 11.3967 59.8752 11.3967C60.9749 11.3967 62.0464 11.8479 62.2156 12.8912H64.7815C64.7815 10.0151 62.272 9 59.8752 9C57.3375 9 54.9972 10.1843 54.9972 13.0322C54.9972 15.6827 57.3375 16.4722 59.6779 16.6978C60.9185 16.7823 62.4975 16.9233 62.4975 18.3896C62.4975 19.743 61.1723 19.9968 60.0444 19.9968C58.8037 19.9968 57.5067 19.4892 57.4503 18.3332H54.7998ZM74.8478 19.9968L75.8629 22.1398H78.7107V21.7732L72.8458 9.16918H71.5769L65.6556 21.7732V22.1398H68.5317L69.5186 19.9968H74.8478ZM72.1973 13.4269L73.9737 17.6564H70.4209L72.1973 13.4269ZM84.04 9.28197V22.1116H88.8052C92.9502 22.1116 95.1495 18.9253 95.0931 15.6545C95.0931 12.3836 92.8938 9.28197 88.8052 9.28197H84.04ZM86.7751 19.6302V11.7633H88.777C91.1174 11.7633 92.3862 13.6243 92.3862 15.6827C92.3862 17.741 91.1456 19.6584 88.777 19.6584H86.7751V19.6302ZM101.071 19.9404V11.3967H102.735V9.25377H96.644V11.3967H98.3076V19.9404H96.503V22.1116H102.904V19.9404H101.071ZM104.257 15.7109C104.257 19.9686 107.415 22.3089 110.799 22.3089C113.252 22.3089 115.564 21.2375 116.523 18.6433C116.946 17.4591 116.974 16.2748 116.918 15.0341H110.912V17.3463H114.408C113.844 19.2637 112.575 19.7994 110.799 19.7994C108.515 19.7994 107.049 18.1358 107.049 15.7109C107.049 13.4269 108.402 11.5941 110.799 11.5941C112.265 11.5941 113.308 12.1017 113.929 13.3423H116.636C115.902 10.3535 113.337 9.11279 110.799 9.11279C107.443 9.11279 104.257 11.4531 104.257 15.7109ZM122.895 19.9404V11.3967H124.559V9.25377H118.468V11.3967H120.132V19.9404H118.327V22.1116H124.728V19.9404H122.895ZM129.296 11.6505V22.1116H131.946V11.6505H135.358V9.25377H125.856V11.6505H129.296ZM143.846 19.9968H138.516L137.529 22.1398H134.653V21.7732L140.575 9.16918H141.844L147.709 21.7732V22.1398H144.861L143.846 19.9968ZM141.195 13.4269L139.419 17.6564H142.971L141.195 13.4269ZM151.853 9.28197H149.09V22.1398H157.211V19.6866H151.853V9.28197Z" fill="black"/>
</svg>
