<?xml version="1.0" standalone="no"?>
<!DOCTYPE svg PUBLIC "-//W3C//DTD SVG 20010904//EN"
 "http://www.w3.org/TR/2001/REC-SVG-20010904/DTD/svg10.dtd">
<svg version="1.0" xmlns="http://www.w3.org/2000/svg"
 width="1024.000000pt" height="1024.000000pt" viewBox="0 0 1024.000000 1024.000000"
 preserveAspectRatio="xMidYMid meet">
<metadata>
Created by potrace 1.14, written by Peter Selinger 2001-2017
</metadata>
<g transform="translate(0.000000,1024.000000) scale(0.100000,-0.100000)"
fill="#000000" stroke="none">
<path d="M1280 5685 l0 -4537 37 22 c21 12 74 43 118 69 44 25 81 49 83 53 2
5 8 8 13 8 4 0 48 24 96 52 48 29 102 60 118 70 17 10 49 28 73 40 23 12 42
26 42 30 0 4 4 8 9 8 5 0 71 37 147 82 162 94 214 125 544 318 135 79 248 149
252 154 4 6 8 7 8 2 0 -4 15 3 33 16 17 14 47 31 65 39 17 8 32 17 32 21 0 5
4 8 9 8 7 0 287 161 401 230 8 5 53 32 100 59 47 27 90 54 95 58 19 14 73 43
82 43 4 0 8 -498 7 -1107 0 -610 1 -1113 4 -1120 3 -9 11 -7 30 6 35 24 130
81 387 231 116 67 222 131 237 141 15 11 30 19 33 19 3 0 24 11 46 26 22 14
55 33 72 43 107 61 336 196 359 212 14 10 32 20 40 21 7 2 15 6 18 9 6 8 71
48 130 81 25 14 104 60 175 103 72 43 145 86 163 96 154 88 348 205 350 211 2
5 8 8 13 8 6 0 56 28 112 61 56 34 118 71 137 82 19 10 83 48 143 83 59 35
112 64 117 64 6 0 10 5 10 10 0 6 4 10 8 10 5 0 72 38 150 85 77 46 156 93
174 103 28 15 84 48 226 133 30 18 232 137 272 160 14 8 27 16 30 19 3 3 23
15 45 27 68 38 129 73 160 93 17 10 41 25 55 33 111 62 288 170 355 217 150
105 280 202 295 222 3 3 23 21 45 38 78 62 246 232 325 330 25 30 48 57 51 60
9 8 123 172 146 210 126 208 215 428 262 645 10 48 13 65 28 180 13 101 7 361
-11 455 -3 14 -7 41 -10 60 -8 57 -55 232 -71 267 -9 17 -18 45 -21 62 -4 17
-10 31 -15 31 -5 0 -9 11 -9 25 0 14 -4 25 -10 25 -5 0 -10 6 -10 14 0 18 -94
198 -131 253 -16 23 -29 46 -29 52 0 6 -4 11 -10 11 -5 0 -10 7 -10 15 0 8 -4
15 -10 15 -5 0 -10 5 -10 11 0 6 -6 17 -12 24 -16 17 -25 29 -63 80 -16 22
-34 45 -40 51 -5 7 -26 31 -45 55 -41 51 -216 227 -281 284 -88 77 -141 120
-177 144 -21 14 -43 31 -51 39 -16 16 -318 215 -341 225 -8 4 -33 18 -55 32
-22 13 -56 33 -75 44 -45 25 -202 118 -215 128 -6 5 -30 19 -55 32 -25 14 -74
42 -110 64 -36 22 -79 48 -96 57 -17 10 -62 37 -99 59 -37 23 -68 41 -70 41
-2 0 -32 18 -66 40 -35 22 -78 47 -95 55 -17 7 -36 21 -44 29 -7 9 -19 16 -26
16 -8 0 -14 3 -14 8 0 4 -15 13 -32 21 -18 8 -35 18 -38 21 -3 4 -25 18 -49
31 -24 13 -51 29 -60 34 -14 9 -107 63 -153 90 -10 6 -140 82 -289 170 -149
88 -283 167 -297 175 -15 8 -49 29 -77 45 -27 17 -67 39 -87 50 -21 11 -38 23
-38 27 0 5 -5 8 -12 8 -6 0 -34 14 -62 32 -82 50 -91 55 -97 54 -4 -1 -15 6
-25 15 -11 9 -61 40 -112 70 -117 68 -110 64 -215 127 -49 28 -93 52 -98 52
-5 0 -9 5 -9 10 0 6 -4 10 -10 10 -5 0 -53 26 -107 59 -92 55 -317 188 -374
221 -14 8 -59 34 -100 58 -41 23 -81 47 -89 52 -72 46 -375 220 -383 220 -6 0
-18 6 -26 13 -24 20 -141 87 -152 87 -5 0 -9 5 -9 10 0 6 -4 10 -9 10 -8 0
-95 50 -189 108 -20 12 -44 25 -52 29 -8 4 -38 21 -65 37 -61 37 -58 36 -220
132 -71 42 -155 90 -185 107 -30 16 -60 36 -66 43 -6 8 -17 14 -24 14 -8 0
-21 6 -29 14 -9 7 -36 24 -61 37 -25 13 -49 28 -55 32 -5 4 -75 46 -155 92
-80 46 -158 93 -175 104 -16 10 -43 26 -60 35 -16 9 -48 28 -70 42 -22 14 -48
27 -57 31 -10 3 -18 10 -18 15 0 5 -4 7 -9 4 -5 -3 -14 1 -21 9 -7 8 -19 15
-26 15 -8 0 -14 5 -14 10 0 6 -5 10 -10 10 -6 0 -39 18 -74 40 -35 22 -67 40
-71 40 -5 0 -16 6 -24 14 -9 7 -36 25 -61 38 -98 55 -195 112 -200 118 -3 4
-20 13 -37 21 -18 8 -33 17 -33 21 0 5 -7 8 -15 8 -8 0 -15 4 -15 8 0 4 -15
14 -32 22 -18 7 -36 15 -40 18 -5 2 -8 -2038 -8 -4533z"/>
</g>
</svg>
