<?xml version="1.0" encoding="utf-8"?>
<!-- Generator: Adobe Illustrator 25.2.1, SVG Export Plug-In . SVG Version: 6.00 Build 0)  -->
<svg version="1.1" id="Login" xmlns="http://www.w3.org/2000/svg" xmlns:xlink="http://www.w3.org/1999/xlink" x="0px" y="0px"
	 viewBox="0 0 285 560.4" style="enable-background:new 0 0 285 560.4;" xml:space="preserve">
<style type="text/css">
	.st0{fill:#32E6F9;}
	.st1{opacity:0.1;fill:#FFFFFF;enable-background:new    ;}
	.st2{fill:#00707A;}
	.st3{fill:#179668;}
	.st4{fill:#23B781;}
	.st5{fill:#33CB93;}
	.st6{fill:#D3EBEF;}
	.st7{fill:#40A0BE;}
	.st8{fill:#4AB3CD;}
	.st9{fill:#178EA6;}
	.st10{fill:#007C8D;}
	.st11{opacity:0.33;fill:#007C8D;enable-background:new    ;}
	.st12{fill:#96C0C7;}
	.st13{fill:#B3D4DB;}
	.st14{fill:#2BB3CF;}
	.st15{fill:#44C6DE;}
	.st16{fill:#424A4E;}
	.st17{fill:#30393D;}
	.st18{fill:#F5EEDB;}
	.st19{fill:#D9CDB1;}
	.st20{fill:#E3D9C0;}
	.st21{fill:#A1C6CC;}
	.st22{fill:#40BDCF;}
	.st23{fill:#18B4C2;}
	.st24{fill:#00A6B3;}
	.st25{opacity:0.56;fill:#F5EEDB;enable-background:new    ;}
	.st26{fill:#90B9C0;}
	.st27{fill:#3EBA82;}
	.st28{fill:#E0C36C;}
	.st29{fill:#DDB46C;}
	.st30{fill:#FCEAE8;}
	.st31{fill:#9C2740;}
	.st32{fill:#94214F;}
	.st33{fill:#D4375C;}
	.st34{fill:#41859A;}
	.st35{fill:#1F4E59;}
	.st36{fill:#41A7C0;}
	.st37{fill:#56C0D7;}
	.st38{fill:#271329;}
	.st39{fill:#3CBF80;}
	.st40{opacity:0.5;fill:#179668;enable-background:new    ;}
	.st41{fill:#FFFFFF;}
	.st42{fill:#C6D9F2;}
	.st43{fill:none;}
	.st44{fill:#EEF8F5;}
	.st45{fill:#0B474F;}
</style>
<g id="Element">
	<rect id="Langit" class="st0" width="285" height="560.4"/>
	<path id="Awan" class="st1" d="M0.2,190.4c0,0,173.9-4.1,284.8,72.1v105.9c0,0-109.6-109.3-284.8-132.7L0.2,190.4L0.2,190.4z"/>
	<g id="BukitHijau2">
		<path class="st2" d="M105.7,327.7c-32-0.8-63.7-6.8-94.9-14.5c-1,0-1.8-0.7-1.8-1.7c0-0.3,0.1-0.6,0.2-0.9
			c0.5-1.1,1.7-1.6,2.9-1.4c-0.3-0.8,0-1.6,0.8-1.9c0.3-0.1,0.6-0.1,1-0.1c0.1-1,0.7-1.8,1.4-2.4c1.1-0.9,2.6-1.1,3.9-0.5
			c0.7-1.2,2.3-1.7,3.5-1h0.1c1-1,2.6-1,3.6,0c0.2,0.2,0.3,0.4,0.5,0.6c1.6-0.7,3.4-0.2,4.5,1.1c1.7-1.7,4.2-2.1,6.3-1
			c0.1-1.7,0.9-3.3,2.3-4.3c0.3-0.2,0.6-0.4,1-0.6c1.9-0.9,4.2-0.6,5.8,0.7c1-1.1,2.6-1.2,3.8-0.3c1-0.5,2.1-0.7,3.2-0.6
			c0.4-1.9,2.3-3.1,4.1-2.7c1,0.2,1.9,0.9,2.4,1.8c1.2-0.7,2.8-0.2,3.4,1c0.1,0.2,0.2,0.5,0.3,0.7c2.4-1,5.1-0.1,6.6,2
			c1.1-0.5,2.4-0.2,3.2,0.7c1.1-1.3,3-1.7,4.5-0.9c1.4,1,2.3,2.7,2.2,4.4c1.1,0.6,1.9,1.6,2.1,2.8c2.2-1,4.8-0.1,5.9,2.1
			c0.4,0.8,0.5,1.8,0.3,2.7c1.6-0.1,3,0.8,3.7,2.2c1.4-0.8,3.1-0.7,4.3,0.2c0.4,0.3,0.8,0.7,1,1.2c0.5,0.9,0.6,2,0.2,3
			c1-0.1,1.9,0.6,2.1,1.6v0.1c0.9-1.1,2.5-1.3,3.6-0.4c0.8,0.6,1.1,1.6,0.9,2.5c1.2,0.2,2,1.3,1.8,2.5
			C106.1,327.1,106,327.5,105.7,327.7L105.7,327.7z"/>
		<path class="st3" d="M113.4,321.4c0.9-1.5,1-3.2,0.4-4.8c-0.5-1.3-2-2.1-3.3-1.7c-0.1-2-1.8-3.3-3.3-2.7c0.8-1.7,0.6-3.8-0.5-5.4
			c-1.1-1.3-3-1.4-4.2-0.3l0,0c-0.7-2-2.6-3.3-4.8-3.1c-2,0.3-3.9,2.1-4.7,4.5c-1.1-1.4-3.5-0.7-4.3,1.3c-0.8-1.4-2.5-1.9-4-1.3
			c-1.6,0.8-2.7,2.3-3,4.1c-2.4-1.2-5.7,1.5-6.1,4.9C86.1,318.7,96.7,320.1,113.4,321.4z"/>
		<path class="st4" d="M0,308.2c0,0,284.3-6,284.3,155.5H0V308.2z"/>
		<path class="st5" d="M0,308.2c0,0,1,34.5,27.2,37.8s59.9-6.5,84.8,4.1s10.1,22.6-18.9,31.4s4.6,43.4,79.2,31.8s112,50.4,112,50.4
			S309.9,313.3,0,308.2z"/>
	</g>
	<g id="BukitHijau">
		<path id="Tumbuhan" class="st3" d="M133.9,396.9c-0.7-2.1-0.3-4.4,1.2-6c1.5-1.5,3.8-1.9,5.7-1.1c-0.6-2.9,0.5-5.9,2.8-7.8
			c2.4-1.7,5.5-1.8,8-0.3c0.6-1.5,1.9-2.6,3.6-2.7c1.7,0,3.2,0.9,4,2.4c1.5-2.9,4.8-4.5,8-3.9c3.3,0.8,5.9,3.5,6.6,6.8
			C159.9,388.2,146.4,393.1,133.9,396.9z"/>
		<g id="Rumah2">
			<rect x="187.9" y="363.9" class="st6" width="45.7" height="26.9"/>
			<rect x="188.8" y="364.6" class="st7" width="44.1" height="25.4"/>
			<rect x="189.4" y="366" class="st8" width="42.8" height="9.6"/>
			<path class="st9" d="M206.5,384.6v-0.1v-0.1v-0.1v-0.1c0,0,0-0.1-0.1-0.1l-0.1-0.1l-0.1-0.1l-0.1-0.1l-0.1-0.1l-0.1-0.1
				c0,0,0-0.1-0.1-0.1l-0.1-0.1l-0.1-0.1l0,0l0.1-0.1c0.1,0,0.1-0.1,0.1-0.1c0.1-0.1,0.1-0.1,0.2-0.2l0.1-0.1c0,0,0,0,0-0.1v-0.1
				c0,0,0,0,0-0.1v-0.1c0,0,0,0,0-0.1s0-0.1,0-0.1s0,0,0-0.1V382l0,0l-0.1-0.1l0,0l-0.1-0.1l0,0l-0.1-0.1l0,0
				c-0.3-0.4-0.8-0.8-1-0.7c0.4-0.6,0.6-1.3,0.7-2c0-0.1,0-0.2,0-0.3v-0.1c0-0.1,0-0.2-0.1-0.3l0,0c-0.1-0.2-0.2-0.5-0.3-0.6l0,0
				c-0.1-0.2-0.3-0.3-0.5-0.5c-0.4-0.2-0.9-0.3-1.4-0.2c0.2-0.2,0.3-0.6,0.1-0.9s-0.5-0.4-0.8-0.3c0-0.2,0-0.3,0-0.5
				c-0.1-0.1-0.3-0.2-0.4-0.1c0.2-0.9-0.3-1.9-1.2-2.2c-0.8-0.3-1.8-0.2-2.6,0.3c-0.1-0.3-0.3-0.4-0.6-0.3c0.1-0.2,0-0.4-0.2-0.5
				c0,0,0,0-0.1,0c-0.2,0-0.4,0-0.6,0.2c-0.1-0.4-0.2-0.7-0.2-1.1c0-0.2-0.1-0.3-0.2-0.5c-0.2-0.1-0.3-0.1-0.5,0l-0.2,0.1h-0.1
				l-0.2,0.1h-0.1l-0.1,0.1l-0.1,0.1l-0.1,0.1l-0.1,0.1l-0.1,0.1l-0.1,0.1l-0.1,0.1h0.4l0,0l0,0l-0.1,0.1l-0.1,0.1l0,0l0,0l0,0
				c-0.4,0.5-0.7,1.1-0.9,1.7l0,0c0,0.1-0.1,0.3-0.1,0.4s0,0.2-0.1,0.3c-0.1,0.1-0.1,0.1-0.2,0.2c-0.1,0.1-0.2,0.4-0.1,0.5
				c-0.3,0.2-0.4,0.5-0.5,0.8c-0.1-0.2-0.2-0.4-0.4-0.6l0,0l-0.1-0.1h-0.1l0,0h-0.1H192l0,0h-0.1l0,0h0.1l0,0l0,0l0,0h-0.1l0,0h-0.1
				l0,0l0,0l-0.1,0.1l-0.2,0.2v0.1c-0.1,0.1-0.1,0.2-0.2,0.2l0,0c0,0.1-0.1,0.1-0.1,0.2c-0.4,0.9,0.2,2,0.2,3
				c-0.1-0.1-0.3,0.2-0.2,0.3s0.2,0.3,0.1,0.5c-0.2-0.1-0.4,0-0.5,0.2v0.1c0-0.2-0.3-0.3-0.4-0.1c-0.1,0.2-0.2,0.4-0.1,0.6
				c0,0.4,0,0.9,0.1,1.3l0,0l0.1,0.4l0,0c0,0.1,0.1,0.2,0.1,0.3l0,0l0.1,0.3l0,0c0,0.1,0.1,0.2,0.1,0.3v0.1l0.1,0.3l0,0
				c0.1,0.1,0.1,0.2,0.2,0.2l0.1,0.1c0.1,0.1,0.1,0.2,0.2,0.2c-0.2,0.2-0.2,0.4,0,0.6l0,0c-0.1-0.2-0.6-0.1-0.6,0.2
				c0,0.3,0.1,0.6,0.3,0.8c0.9,1.1,2.4,1.5,3.8,1c-0.1,0.1-0.2,0.2-0.2,0.3c0.5,0.2,1.1,0.2,1.6,0c0.2,0.1,0.5,0.1,0.7,0.1
				c0.4,0.1,0.8,0,1.2-0.1c0.2,0.2,0.4,0.4,0.5,0.6c-0.1,0.5-0.5,1-0.9,1h1.7c-0.2-0.4-0.4-0.9-0.5-1.4c0.1-0.2,0.2-0.3,0.3-0.5
				c0.4,0.1,0.9,0.1,1.3,0.1c0.3,0,0.5-0.1,0.8-0.1c1.4,0.6,3,0.8,4.6,0.5c0.2,0,0.4-0.1,0.5-0.2c0.2-0.1,0.2-0.4,0.1-0.5l-0.1-0.1
				l0,0h-0.1l0,0l-0.1-0.1l-0.9-0.3c0.3-0.1,0.6-0.3,0.8-0.4l0,0l0.3-0.2h0.1c0.1-0.1,0.2-0.2,0.4-0.3c0.2-0.2,0.3-0.4,0.4-0.6
				c0-0.1,0-0.1,0-0.2C207.1,384.5,206.5,384.6,206.5,384.6z M196.3,387.6l-0.5-0.1c0.3-0.1,0.6-0.2,0.9-0.4l0.2,0.1
				c0.1,0.1,0.3,0.2,0.4,0.3C197,387.7,196.6,387.7,196.3,387.6L196.3,387.6z M197.2,387.1L197,387c0.2-0.1,0.5-0.2,0.7-0.3v0.2
				c0.1,0.2,0.1,0.5,0.2,0.8C197.7,387.4,197.5,387.2,197.2,387.1L197.2,387.1z M198.1,387.3c0-0.2-0.1-0.4-0.1-0.7h0.1l0.6,0.1
				c-0.2,0.2-0.5,0.5-0.6,0.7C198.2,387.4,198.2,387.4,198.1,387.3L198.1,387.3z M199.8,387.3c-0.4,0-0.7,0-1.1-0.1l0,0
				c0.1-0.1,0.2-0.3,0.3-0.4l1.4,0.4C200.2,387.3,200,387.3,199.8,387.3L199.8,387.3z"/>
			<path class="st9" d="M204.4,376.3c0.4,0.6,1.1-1.1,1.1-1.1S203.8,375.5,204.4,376.3z"/>
			<path class="st9" d="M204.1,375.4c0.7,0.2,0.3-1.5,0.3-1.5S203.3,375.1,204.1,375.4z"/>
			<path class="st9" d="M198.7,372.4c0.7,0.3,0.4-1.5,0.4-1.5S197.9,372,198.7,372.4z"/>
			<path class="st9" d="M198.1,371.8c0.7-0.2-0.5-1.5-0.5-1.5S197.2,372,198.1,371.8z"/>
			<path class="st9" d="M191.8,374.8c0.6-0.2-0.3-1.5-0.3-1.5S190.9,375.1,191.8,374.8z"/>
			<path class="st9" d="M193.1,373.8c0,0-1.3,0.7-0.7,1.3S193.1,373.8,193.1,373.8z"/>
			<path class="st9" d="M191,375.4c0.3-0.8-1.4-0.5-1.4-0.5S190.6,376.5,191,375.4z"/>
			<path class="st9" d="M226.4,386.2C226.4,386.2,226.4,386.1,226.4,386.2c0-0.1,0-0.1,0-0.1l0,0V386l0,0l-0.1-0.1v-0.1l-0.1-0.1
				h-0.1l-0.1-0.1h-0.1l-0.1-0.1l0,0h0.1l0.1-0.1l0.1-0.1l0.1-0.1l0,0v-0.1l0,0V385v-0.1l0,0v-0.1l0,0v-0.1l0,0v-0.1l0,0l-0.1-0.1
				l0,0c-0.2-0.3-0.6-0.5-0.7-0.5c0.3-0.5,0.5-1,0.6-1.5c0-0.1,0-0.2,0-0.2v-0.1c0-0.1,0-0.1,0-0.2l0,0c0-0.2-0.1-0.3-0.2-0.5l0,0
				c-0.1-0.1-0.2-0.2-0.3-0.3c-0.3-0.1-0.7-0.2-1-0.1c0.2-0.2,0.2-0.4,0.1-0.6c-0.1-0.2-0.4-0.3-0.6-0.2c0-0.1,0-0.2,0-0.4
				c-0.1-0.1-0.2-0.2-0.3-0.1c0.2-0.7-0.2-1.4-0.8-1.6s-1.3-0.1-1.9,0.2c0-0.2-0.2-0.3-0.4-0.3l0,0c0.1-0.1,0-0.3-0.1-0.4
				c0,0,0,0-0.1,0c-0.2,0-0.3,0-0.4,0.1l-0.1-0.8c0-0.1-0.1-0.2-0.1-0.3c-0.1-0.1-0.2-0.1-0.4,0c-0.1,0-0.2,0.1-0.4,0.1l-0.1,0.1
				l0.1,0.1l-0.1,0.1l-0.2,0.1l0,0l0,0l0,0l-0.1,0.1l-0.1,0.1l-0.1,0.1l-0.1,0.1l0,0v0.1l-0.1,0.1l-0.1,0.1L218,378v0.1l0,0
				l-0.1,0.2l0,0l0,0c0,0.1-0.1,0.1-0.1,0.2s0,0.1-0.1,0.2s0,0,0,0l0,0c0,0.1-0.1,0.2-0.1,0.3c0,0.1,0,0.1-0.1,0.2
				c0,0-0.1,0.1-0.2,0.1c-0.1,0.1-0.1,0.3-0.1,0.4c-0.2,0.1-0.3,0.3-0.4,0.6c-0.1-0.2-0.2-0.3-0.3-0.4l0,0l-0.1-0.1l0,0h-0.1
				c-0.1,0-0.1,0-0.2,0l0,0c0,0-0.1,0-0.1,0.1l0,0l-0.1,0.1l0,0l-0.1,0.1l-0.2,0.2l0,0c-0.1,0.1-0.2,0.2-0.2,0.3
				c-0.3,0.7,0.1,1.5,0.1,2.2c-0.1-0.1-0.2,0.1-0.2,0.2s0.1,0.2,0.1,0.4c-0.1-0.1-0.3,0-0.4,0.1c0,0,0,0,0,0.1
				c0-0.1-0.2-0.2-0.3-0.1s-0.1,0.3-0.1,0.4c0,0.2,0,0.5,0,0.7l0,0l0,0v0.1c0,0,0,0.1,0,0.2s0,0.1,0,0.1v0.2v0.1
				c0,0.1,0,0.2,0.1,0.3l0,0l0.1,0.2v0.1c0,0.1,0.1,0.1,0.1,0.2c0,0,0,0.1,0.1,0.1c0.1,0.1,0.1,0.2,0.2,0.2c-0.1,0.1-0.1,0.3,0,0.4
				l0,0c-0.1-0.2-0.4-0.1-0.4,0.1c-0.3-0.9-0.6-1.9-0.8-2.8c0-0.1,0-0.1,0-0.2c-0.1-0.4-0.1-0.9-0.2-1.3c0-0.1,0-0.1,0-0.2
				s0-0.1,0-0.2s0-0.2,0-0.4l0,0v-0.4c0-0.1,0-0.2,0-0.4v-1.6l0,0V379l0,0c0-0.9,0-1.6,0-1.6s0-0.6-0.1-1.6c0.5-0.3,1-0.7,1.4-1.2
				h0.2c0.5,0,0.9-0.4,0.9-0.9c0.1,0,0.2,0,0.3,0l0,0c0,0,0.1,0,0.1-0.1l0,0l0.1-0.1l0,0l0.1-0.1l0,0c0-0.1,0-0.1,0-0.2
				c0.4,0.1,0.8,0.1,1.1-0.2c0.3-0.3,0.4-0.7,0.2-1.1c0.2-0.1,0.3-0.1,0.5-0.2c0.1-0.1,0.3-0.2,0.4-0.3l0.2-0.2
				c0.2-0.2,0.3-0.4,0.4-0.6c0.1-0.1,0.1-0.2,0.2-0.2c0.1-0.1,0.2-0.1,0.3-0.1c0.3,0,0.6-0.2,0.9-0.4c0.2-0.2,0.3-0.4,0.4-0.6
				c0-0.1,0.1-0.2,0.1-0.2c0.1-0.7-0.1-1.4-0.7-1.8c0.3-0.2,0.5-0.5,0.5-0.9c0.1-0.4,0.2-0.8,0.2-1.2c0-0.3-0.1-0.5-0.2-0.7l0,0
				h-15.7c-0.1,0.2-0.3,0.5-0.4,0.7c0,0.1-0.1,0.2-0.1,0.3v0.1l0,0v0.1l0,0v0.1l0,0v0.1v0.1l0,0l0,0v0.1l0,0l0,0v0.1v0.1v0.1
				l0.2,0.2c0.1,0.1,0.1,0.2,0.1,0.3c0,0.1,0.1,0.2,0.1,0.3c0,0.1,0,0.2,0.1,0.3c0,0.1,0,0.1,0.1,0.2l0,0c0,0.1,0.1,0.1,0.1,0.1l0,0
				c0.1,0,0.1,0.1,0.2,0.1c-0.1,0.1-0.1,0.1-0.1,0.2l0,0l0,0c0,0,0,0,0,0.1c0,0,0,0.1,0.1,0.1c-0.3,0-0.3,0.4-0.2,0.7
				c0,0.2,0.1,0.5,0.3,0.7l0,0l0,0c0,0,0,0.1,0.1,0.1l0,0l0.1,0.1l0,0c0.1,0,0.1,0.1,0.2,0.1h0.3c0,0.1,0.1,0.1,0.1,0.2v0.1l0,0
				c0,0.1-0.1,0.2-0.1,0.3l0,0l-0.1,0.1c-0.3,0.5-0.3,1.1-0.1,1.6s0.7,0.8,1.3,0.9c0.1,0.2,0.3,0.3,0.6,0.2l0.2-0.1
				c0,0,0,0.1,0.1,0.1l0,0l0.1,0.1l0,0h0.1l0,0h0.1h0.3h0.2h0.2l0,0h0.2l0,0l0.2-0.1l0,0l0.1-0.1l0,0c0.2-0.1,0.4-0.3,0.4-0.5
				c0.1,0,0.2,0,0.3,0c0.9,0.9,1.5,1.9,1.9,3.1c0,0.6,0.1,1.6,0.1,2.6c0,0.1,0,0.2,0,0.3v0.5c0,0.1,0,0.2,0,0.2v2.5v0.1
				c0,0.1,0,0.1,0,0.2v0.1v0.1v0.1v0.1v0.1v0.1v0.1v0.1c0,0,0,0,0,0.1v0.1v0.1v0.1v0.1v0.1c0,0.1,0.1,0.2,0.1,0.4l0,0
				c0,0.1,0,0.1,0,0.2v0.1v0.2v0.1v0.2v0.1c0,0.1,0,0.1,0,0.2v0.1c0,0,0,0.1,0,0.2s0,0.1,0,0.1s0,0.1,0,0.2s0,0.1,0,0.1v0.3
				c0,0.1,0,0.1,0,0.2v0.1v0.2v0.1c0,0.1,0,0.1,0,0.2v0.1c0,0.1,0,0.2-0.1,0.3c-0.6,1.4-1.1,0.9-1.1,1.6h4.5l-0.3-0.1H216l-0.2-0.1
				h-0.1l-0.2-0.1l-0.5-0.3c-0.2-0.1-0.3-0.3-0.4-0.5c-0.1-0.2-0.2-0.4-0.2-0.6c0-0.1,0-0.1,0-0.2c0-0.2,0-0.3,0-0.4l0,0
				c0,0.1,0.1,0.2,0.1,0.2c0.6,0.8,1.7,1.1,2.7,0.7c-0.1,0-0.2,0.1-0.2,0.2c0.4,0.1,0.8,0.1,1.2,0c0.2,0,0.4,0.1,0.5,0.1
				c0.3,0,0.6,0,0.8-0.1c0.1,0.1,0.3,0.3,0.3,0.5c-0.1,0.4-0.4,0.7-0.7,0.7h1.2c-0.1-0.3-0.2-0.7-0.3-1c0.1-0.1,0.1-0.3,0.2-0.4
				c0.3,0.1,0.6,0.1,0.9,0c0.2,0,0.4-0.1,0.6-0.1c1,0.4,2,0.5,3,0.4h0.2c0.1,0,0.3-0.1,0.4-0.2c0.1-0.1,0.2-0.3,0.1-0.4
				c0,0,0,0-0.1-0.1l0,0c-0.1,0-0.1-0.1-0.2-0.1l-0.6-0.2c0.2-0.1,0.4-0.2,0.6-0.3l0,0l0.2-0.2l0,0c0.1-0.1,0.2-0.1,0.3-0.2
				s0.2-0.3,0.3-0.5c0-0.1,0-0.1,0-0.2l0,0C226.2,386.3,226.3,386.3,226.4,386.2z M213.2,374.8c-0.5-0.6-1.1-1.1-1.7-1.7l0.1-0.1
				c0.1-0.2,0.3-0.4,0.6-0.3c0.1,0.4,0.4,0.7,0.9,0.6c0,0.2,0,0.4,0.1,0.6l0.1,0.1C213.2,374.3,213.2,374.5,213.2,374.8L213.2,374.8
				z M213.5,374.3c0.1,0.1,0.2,0.1,0.3,0.2c0.2,0.1,0.4,0.2,0.7,0.3c-0.3,0.2-0.6,0.4-1,0.6C213.5,375,213.5,374.6,213.5,374.3
				L213.5,374.3z M219,388.4h-0.3c0.2-0.1,0.4-0.2,0.6-0.3l0.2,0.1l0.3,0.2C219.5,388.5,219.2,388.5,219,388.4z M219.7,388h-0.1
				c0.2-0.1,0.4-0.2,0.5-0.2c0,0.1,0,0.1,0,0.2s0.1,0.4,0.1,0.5C220,388.3,219.8,388.1,219.7,388L219.7,388z M220.4,388.4
				c0,0,0-0.1,0-0.2c0-0.2-0.1-0.3-0.1-0.5h0.1l0.4,0.1C220.6,388,220.5,388.2,220.4,388.4L220.4,388.4z M221.5,388.2
				c-0.3,0-0.5,0-0.8-0.1l0,0c0.1-0.1,0.2-0.2,0.2-0.3c0.3,0.1,0.6,0.2,1,0.3C221.8,388.2,221.6,388.2,221.5,388.2L221.5,388.2z"/>
			<rect x="188.8" y="364.7" class="st9" width="44.5" height="0.7"/>
			<rect x="188.8" y="389.4" class="st9" width="44.5" height="0.7"/>
			<rect x="196.2" y="365" class="st9" width="0.7" height="25.5"/>
			<rect x="202.8" y="364.6" class="st9" width="0.6" height="25.4"/>
			<path class="st10" d="M211.5,365.9l-9.1,1c-0.7,0.1-1.3,0.7-1.3,1.4V390h12v-22.6c0-0.8-0.6-1.4-1.4-1.4
				C211.6,365.9,211.6,365.9,211.5,365.9z"/>
			<rect x="209.1" y="364.6" class="st11" width="1.1" height="24.2"/>
			<polygon class="st10" points="231.4,365.8 220.8,367.1 220.8,390 231.4,390 			"/>
			<rect x="203.3" y="364.2" class="st6" width="0.7" height="26.4"/>
			<polygon class="st12" points="204,366.8 203.3,366.9 203.3,390.6 204,390.6 			"/>
			<rect x="219.6" y="364.2" class="st6" width="0.7" height="26.4"/>
			<polygon class="st13" points="187.9,363.9 175.6,349.5 173.7,349.5 163.4,363.9 163.4,390.8 187.9,390.8 			"/>
			<polygon class="st6" points="221.3,349.5 175.6,349.5 187.9,364 233.6,364 			"/>
			<polygon class="st9" points="187.1,364.4 175.2,350.8 173.8,350.8 164.2,364.4 164.2,389.9 187.1,389.9 			"/>
			<path class="st10" d="M187.9,386.3v-0.1c0,0,0,0,0-0.1V386l0,0v-0.1l0,0c0,0,0-0.1-0.1-0.1v-0.1l-0.1-0.1h-0.1l-0.1-0.1h-0.1
				h-0.1l0,0h0.1l0.1-0.1c0.1,0,0.1-0.1,0.1-0.1l0.1-0.1l0,0c0,0,0,0,0-0.1l0,0c0,0,0,0,0-0.1l0,0c0,0,0,0,0-0.1s0,0,0,0v-0.1l0,0
				v-0.1l0,0l-0.1-0.1l0,0l-0.1-0.1l0,0c-0.2-0.3-0.6-0.5-0.7-0.5c0.3-0.4,0.5-0.9,0.6-1.5c0-0.1,0-0.2,0-0.2s0,0,0-0.1s0-0.1,0-0.2
				l0,0c0-0.2-0.1-0.3-0.2-0.5l0,0c-0.1-0.1-0.2-0.2-0.3-0.3c-0.3-0.1-0.7-0.2-1-0.1c0.2-0.2,0.2-0.4,0.1-0.6
				c-0.1-0.2-0.4-0.3-0.6-0.2c0-0.1,0-0.2,0-0.3c0-0.1-0.1-0.1-0.2-0.1c0,0,0,0-0.1,0c0.2-0.7-0.2-1.3-0.8-1.6
				c-0.6-0.2-1.3-0.2-1.8,0.2c0-0.2-0.2-0.3-0.4-0.2l0,0c0.1-0.1,0-0.3-0.1-0.3c0,0,0,0-0.1,0c-0.2,0-0.3,0-0.4,0.1l-0.1-0.8
				c0-0.1-0.1-0.2-0.1-0.3c-0.1-0.1-0.2-0.1-0.4,0l-0.4,0.1l-0.1,0.1l-0.2,0.1l-0.1,0.1l-0.2,0.1l0,0l0,0l0,0l-0.1,0.1l-0.1,0.1
				l-0.1,0.1l-0.1,0.1l0,0v0.1l-0.1,0.1l-0.1,0.1l-0.1,0.1v0.1l0,0l-0.1,0.2l0,0l0,0l-0.1,0.2c0,0.1-0.1,0.1-0.1,0.2l0,0l0,0
				c0,0.1-0.1,0.2-0.1,0.3c0,0.1,0,0.1-0.1,0.2c0,0.1-0.1,0.1-0.2,0.1c-0.1,0.1-0.1,0.3-0.1,0.4c-0.2,0.1-0.3,0.3-0.4,0.5
				c-0.1-0.2-0.1-0.3-0.3-0.4l0,0l-0.1-0.1l0,0h-0.1c-0.1,0-0.1,0-0.2,0l0,0h0.7l0,0l-0.1,0.1l0,0l-0.1,0.1l-0.1,0.2l0,0
				c-0.1,0.1-0.2,0.2-0.2,0.3c-0.3,0.7,0.1,1.4,0,2.1c-0.1-0.1-0.2,0.1-0.2,0.2s0.1,0.2,0.1,0.4c-0.1-0.1-0.3,0-0.4,0.1
				c0,0,0,0,0,0.1c0-0.1-0.2-0.2-0.3-0.1s-0.1,0.3-0.1,0.4v0.7l0,0v0.1c0,0.1,0,0.1,0,0.2v0.1v0.2v0.1c0,0.1,0,0.2,0.1,0.3l0,0
				l0.1,0.2l0.1,0.1c0,0.1,0.1,0.1,0.1,0.2l0.1,0.1c0.1,0.1,0.1,0.1,0.2,0.2c-0.1,0.1-0.1,0.3,0,0.5l0,0c-0.1-0.2-0.4-0.1-0.4,0.1
				c-0.3-0.9-0.6-1.8-0.8-2.8V384c-0.1-0.4-0.1-0.9-0.2-1.3v-0.3c0-0.1,0-0.2,0-0.3l0,0c0-0.1,0-0.2,0-0.4v-0.4c0-0.1,0-0.2,0-0.4
				v-0.8l0,0c0-0.1,0-0.3,0-0.4l0,0v-0.4l0,0c0-0.9,0-1.6,0-1.6s0-0.6,0-1.5c0.5-0.3,1-0.7,1.4-1.2h0.2c0.5,0,0.9-0.4,0.9-0.8
				c0.1,0,0.2,0,0.3,0l0,0c0,0,0.1,0,0.1-0.1l0,0l0.1-0.1l0,0l0.1-0.1l0,0v-0.1c0.5,0.2,1.1-0.1,1.3-0.6c0.1-0.2,0.1-0.4,0-0.6
				c0.2-0.1,0.3-0.1,0.5-0.2c0.1-0.1,0.3-0.2,0.4-0.3l0.2-0.2c0.2-0.2,0.3-0.4,0.4-0.6c0-0.1,0.1-0.2,0.2-0.2c0.1,0,0.2-0.1,0.3-0.1
				c0.3,0,0.6-0.2,0.9-0.4c0.2-0.1,0.3-0.3,0.4-0.6c0-0.1,0.1-0.2,0.1-0.2c0.1-0.7-0.1-1.3-0.7-1.7c0.3-0.2,0.5-0.5,0.5-0.9
				c0.1-0.4,0.2-0.8,0.1-1.2c0-0.3-0.1-0.5-0.2-0.7c-0.1-0.1-0.2-0.2-0.3-0.3c-0.1-0.1-0.2-0.1-0.3-0.2l0,0l-0.1-0.1l0,0
				c-0.1-0.1-0.1-0.2-0.1-0.3V364l-0.1-0.9V363c0-0.1,0-0.2-0.1-0.3c0,0,0-0.1-0.1-0.1l0,0l0,0l0,0l0,0l0,0h-0.1l0,0l0,0H182h-0.6
				c0-0.1-0.1-0.2-0.3-0.2H181c0-0.1,0-0.3,0-0.4l0,0v-0.2c0-0.1,0-0.2-0.1-0.3s0-0.1,0-0.2l0,0v-0.1l0,0l0,0c0-0.1-0.1-0.2-0.1-0.3
				v-0.1l-0.1-0.1l0,0v-0.1c0,0,0,0,0-0.1c0,0,0,0,0-0.1c0,0,0-0.1-0.1-0.1l-0.1-0.1l-0.1-0.1l-0.1-0.1l-0.1-0.1l-0.2-0.2
				c-0.1-0.1-0.2-0.2-0.4-0.2l0,0c-0.7-0.5-1.6-0.5-2.3-0.1c-0.1,0.1-0.1,0.1-0.2,0.1H177l-0.1-0.1h-0.1h-0.1l0,0
				c0.1-0.2-0.1-0.4-0.4-0.5c-0.2-0.1-0.4-0.2-0.7-0.2h-0.2c-0.2,0-0.3,0.1-0.4,0.2l-0.1,0.1c0,0.1-0.1,0.2-0.2,0.3
				c-0.2,0.3-0.6,0.3-0.9,0.5c-0.1,0.1-0.3,0.3-0.4,0.4c-0.2,0.1-0.4,0.1-0.5,0.1c-0.2,0.1-0.3,0.3-0.2,0.4c-0.7-0.2-1.4,0-1.9,0.4
				s-0.9,1-1.1,1.7c0,0.1-0.1,0.2-0.1,0.3c0,0.1,0,0.2,0,0.3c0,0.1,0.1,0.2,0.1,0.3c0.1,0.1,0.1,0.2,0.1,0.3
				c0.1,0.2-0.1,0.6-0.3,0.5l-0.1-0.1l-0.1-0.1h-0.1c-0.1,0-0.1,0-0.2,0c-0.1,0-0.1,0-0.2,0.1c-0.1,0-0.1,0.1-0.2,0.1
				c-0.2,0.1-0.3,0.3-0.4,0.5c-0.2,0.2-0.3,0.5-0.4,0.8l-0.1,0.3v0.1l0,0v0.1l0,0v0.1l0,0v0.1l0,0v0.1l0,0l0,0v0.1l0,0l0,0v0.1v0.1
				v0.1c0.1,0.1,0.1,0.2,0.2,0.2c0.1,0.1,0.1,0.2,0.2,0.3c0,0.1,0.1,0.2,0.1,0.3c0,0.1,0,0.2,0.1,0.3c0,0.1,0,0.1,0.1,0.2l0,0
				c0,0.1,0.1,0.1,0.1,0.1l0,0c0.1,0,0.1,0.1,0.2,0.1c-0.1,0.1-0.1,0.1-0.1,0.2l0,0l0,0c0,0,0,0,0,0.1c0,0,0,0.1,0.1,0.1
				c-0.3,0-0.3,0.4-0.2,0.6c0,0.2,0.1,0.5,0.3,0.7l0,0l0,0l0.1,0.1l0,0l0.1,0.1l0,0c0.1,0,0.1,0.1,0.2,0.1h0.1
				c0,0.1,0.1,0.1,0.1,0.2v0.1l0,0c0,0.1-0.1,0.2-0.1,0.3l0,0l-0.1,0.1c-0.3,0.5-0.3,1-0.1,1.5c0.3,0.5,0.7,0.8,1.3,0.8
				c0,0.2,0.3,0.3,0.6,0.2l0.2-0.1l0.1,0.1l0,0l0.1,0.1l0,0h0.1l0,0h0.1h0.3h0.2h0.2l0,0h0.2l0,0l0.2-0.1l0,0
				c-0.2-0.2-0.4-0.2-0.7-0.1l0,0c0.2-0.1,0.4-0.3,0.4-0.5c0.1,0,0.2,0,0.3,0c0.8,0.8,1.5,1.9,1.9,3c0,0.6,0,1.6,0.1,2.6v2.2
				c0,0.1,0,0.1,0,0.2v0.5c0,0.1,0,0.1,0,0.2v0.1c0,0.1,0,0.1,0,0.2v0.1v0.2v0.1v0.1v0.1v0.1v0.1v0.1v0.1v0.1c0,0,0,0,0,0.1v0.1v0.1
				v0.1v0.1v0.1c0,0.1,0.1,0.2,0.1,0.4l0,0c0,0.1,0,0.1,0,0.2v0.2c0,0.1,0,0.1,0,0.2s0,0.1,0,0.1v0.2v0.1v0.2v0.1c0,0.1,0,0.1,0,0.2
				v0.1c0,0.1,0,0.1,0,0.2v0.1v0.3c0,0.1,0,0.1,0,0.2v0.1c0,0.1,0,0.1,0,0.2v0.1c0,0.1,0,0.1,0,0.2v0.1c0,0.1,0,0.2-0.1,0.2
				c-0.6,1.3-1.1,0.9-1.1,1.5h4.5l-0.3-0.1h-0.1l-0.2-0.1h-0.1l-0.2-0.1l-0.5-0.3c-0.2-0.1-0.3-0.2-0.4-0.4
				c-0.1-0.2-0.1-0.4-0.2-0.6v-0.1c0-0.1,0-0.3,0-0.4l0,0c0,0.1,0.1,0.1,0.1,0.2c0.7,0.8,1.7,1.1,2.7,0.7c-0.1,0-0.1,0.1-0.2,0.2
				c0.4,0.1,0.8,0.1,1.1,0c0.2,0,0.4,0.1,0.5,0.1c0.3,0,0.6,0,0.8-0.1c0.1,0.1,0.3,0.3,0.3,0.5c-0.1,0.4-0.4,0.7-0.7,0.7h1.2
				c-0.1-0.3-0.2-0.7-0.3-1c0.1-0.1,0.1-0.2,0.2-0.4c0.3,0.1,0.6,0.1,0.9,0c0.2,0,0.4,0,0.6-0.1c1,0.4,2,0.5,3,0.4l0,0h0.2
				c0.1,0,0.3-0.1,0.4-0.2c0.1-0.1,0.1-0.3,0.1-0.4c0,0,0-0.1-0.1-0.1l0,0c-0.1,0-0.1-0.1-0.2-0.1l-0.6-0.2c0.2-0.1,0.4-0.2,0.6-0.3
				l0,0c0.1-0.1,0.2-0.1,0.2-0.2h0.1l0.3-0.2c0.1-0.1,0.3-0.3,0.3-0.4v-0.1L187.9,386.3z M175,375.6c0-0.3,0-0.7,0-1l0.3,0.2
				c0.2,0.1,0.4,0.2,0.7,0.3C175.7,375.2,175.3,375.4,175,375.6z M173,373.4C173,373.4,173.1,373.3,173,373.4
				c0.2-0.2,0.4-0.5,0.6-0.4c0.1,0.4,0.5,0.7,0.9,0.6c0,0.2,0,0.4,0.1,0.6l0.1,0.1c0,0.3,0,0.5,0,0.8
				C174.1,374.5,173.6,374,173,373.4z M180.4,388.4l-0.3-0.1l0.6-0.3l0.2,0.1c0.1,0.1,0.2,0.1,0.3,0.2
				C180.9,388.4,180.7,388.5,180.4,388.4L180.4,388.4z M181.1,388L181.1,388c0.1-0.1,0.3-0.2,0.5-0.2c0,0.1,0,0.1,0,0.2
				c0,0.2,0.1,0.4,0.1,0.5C181.5,388.3,181.3,388.2,181.1,388L181.1,388z M181.8,388.2c0-0.2-0.1-0.3-0.1-0.5h0.1l0.4,0.1
				c-0.2,0.1-0.3,0.3-0.5,0.5L181.8,388.2z M182.9,388.2c-0.3,0-0.5,0-0.8-0.1l0,0c0.1-0.1,0.2-0.2,0.3-0.3l1,0.3
				C183.3,388.2,183.1,388.2,182.9,388.2L182.9,388.2z"/>
			<path class="st10" d="M186.6,380.3c0.3,0.4,0.8-0.8,0.8-0.8S186.2,379.8,186.6,380.3z"/>
			<path class="st10" d="M186.4,379.7c0.5,0.2,0.3-1.1,0.3-1.1S185.8,379.5,186.4,379.7z"/>
			<path class="st10" d="M182.6,377.6c0.5,0.2,0.4-1.1,0.4-1.1S182.1,377.3,182.6,377.6z"/>
			<path class="st10" d="M182.2,377.1c0.5-0.1-0.3-1.1-0.3-1.1S181.6,377.3,182.2,377.1z"/>
			<path class="st10" d="M177.6,379.3c0.5-0.1-0.2-1.1-0.2-1.1S176.9,379.5,177.6,379.3z"/>
			<path class="st10" d="M178.1,379.5c0.3,0.4,0.5-0.9,0.5-0.9S177.6,379.1,178.1,379.5z"/>
			<path class="st10" d="M176,379.4c0,0,0.7,1.1,1,0.3C177.2,379.1,176,379.4,176,379.4z"/>
			<path class="st10" d="M173.9,388.9L173.9,388.9h0.2c0.1,0,0.2-0.1,0.3-0.1c0.1-0.1,0.1-0.2,0.1-0.3c0,0,0-0.1-0.1-0.1l0,0l0,0
				h-0.1l-0.5-0.1c0.2-0.1,0.3-0.1,0.5-0.2l0,0l0.2-0.1l0,0l0.2-0.2c0.1-0.1,0.2-0.2,0.2-0.3c0-0.1,0-0.1,0-0.2c0,0,0,0,0-0.1l0,0
				v-0.1l0,0V387l0,0v-0.1l0,0l-0.1-0.1l0,0l-0.1-0.1l0,0c0,0,0,0-0.1,0l0,0h0.1h0.1l0.1-0.1c0,0,0,0,0.1-0.1l0,0c0,0,0,0,0-0.1l0,0
				c0,0,0,0,0-0.1l0,0v-0.1l0,0c0,0,0,0,0-0.1l0,0V386l0,0c0,0,0,0,0-0.1l0,0l-0.1-0.1l0,0c-0.2-0.2-0.4-0.4-0.5-0.4
				c0.2-0.3,0.3-0.7,0.4-1.1c0-0.1,0-0.1,0-0.2l0,0c0-0.1,0-0.1,0-0.2l0,0c0-0.1-0.1-0.2-0.1-0.4l0,0c-0.1-0.1-0.1-0.2-0.2-0.2
				c-0.2-0.1-0.5-0.1-0.7-0.1c0.1-0.1,0.2-0.3,0.1-0.5c-0.1-0.1-0.3-0.2-0.4-0.1c0-0.1,0-0.2,0-0.3c0-0.1-0.1-0.1-0.1-0.1s0,0-0.1,0
				c0.1-0.5-0.1-1-0.6-1.2s-1-0.1-1.4,0.2c0-0.1-0.2-0.2-0.3-0.2l0,0c0.1-0.1,0-0.2-0.1-0.3l0,0c-0.1,0-0.2,0-0.3,0.1
				c0-0.2-0.1-0.4-0.1-0.6c0-0.1,0-0.2-0.1-0.2s-0.2,0-0.3,0s-0.2,0.1-0.3,0.1h-0.1l-0.2,0.1l-0.1,0.1l-0.1,0.1l0,0l0,0l0,0
				l-0.1,0.1l-0.1,0.1l0,0L169,381l0,0l0,0v0.1l-0.1,0.1v0.1l0,0l0,0l-0.1,0.1l0,0l0,0v0.1c0,0.1,0,0.1-0.1,0.2l0,0l0,0l-0.1,0.2
				c0,0.1,0,0.1-0.1,0.1l-0.1,0.1c-0.1,0.1-0.1,0.2-0.1,0.3c-0.1,0.1-0.2,0.2-0.3,0.4c0-0.1-0.1-0.2-0.2-0.3l0,0h0.2l0,0h-0.1H167
				h-0.1l0,0h-0.1l0,0l-0.1,0.1l-0.1,0.1l0,0l-0.1,0.1l0,0c0,0,0,0.1-0.1,0.1c-0.2,0.5,0.1,1.1,0,1.6c-0.1,0-0.1,0.1-0.1,0.2
				s0.1,0.2,0,0.3c-0.1-0.1-0.2,0-0.3,0.1c0,0,0,0,0,0.1c0-0.1-0.1-0.1-0.2-0.1c-0.1,0.1-0.1,0.2-0.1,0.3c0,0.2,0,0.3,0,0.5l0,0v0.1
				c0,0.1,0,0.1,0,0.2v0.1v0.2c0,0,0,0,0,0.1l0.1,0.2l0,0l0.1,0.2v0.1c0,0,0,0.1,0.1,0.1v0.1l0.2,0.2c-0.1,0.1-0.1,0.2,0,0.3l0,0
				c-0.1-0.1-0.3,0-0.3,0.1c0,0.2,0,0.3,0.1,0.4c0.5,0.6,1.3,0.8,2,0.6c-0.1,0-0.1,0.1-0.1,0.2c0.3,0.1,0.6,0.1,0.9,0l0.4,0.1
				c0.2,0,0.4,0,0.6-0.1c0.1,0.1,0.2,0.2,0.3,0.3c-0.1,0.3-0.3,0.5-0.5,0.5h1c-0.1-0.2-0.2-0.5-0.2-0.8c0-0.1,0.1-0.2,0.1-0.3
				c0.2,0,0.5,0,0.7,0c0.1,0,0.3,0,0.4-0.1C172.3,389,173.1,389,173.9,388.9z M169.2,388.7H169l0.5-0.2l0.1,0.1
				c0.1,0,0.1,0.1,0.2,0.1C169.6,388.8,169.4,388.8,169.2,388.7z M169.7,388.4L169.7,388.4c0.1-0.1,0.2-0.1,0.3-0.2v0.1
				c0,0.1,0.1,0.3,0.1,0.4C170,388.6,169.9,388.5,169.7,388.4z M170.2,388.5c0-0.1,0-0.2,0-0.4h0.1l0.3,0.1
				c-0.1,0.1-0.3,0.3-0.4,0.4L170.2,388.5z M171.2,388.5c-0.2,0-0.4,0-0.6,0l0,0c0.1-0.1,0.1-0.1,0.2-0.2l0.7,0.2
				C171.4,388.5,171.3,388.5,171.2,388.5L171.2,388.5z"/>
			<path class="st10" d="M173.9,382.5c0.2,0.3,0.6-0.6,0.6-0.6S173.6,382.1,173.9,382.5z"/>
			<path class="st10" d="M173.8,382c0.4,0.1,0.2-0.8,0.2-0.8S173.4,381.9,173.8,382z"/>
			<path class="st10" d="M170.9,380.4c0.4,0.2,0.3-0.8,0.3-0.8S170.5,380.2,170.9,380.4z"/>
			<path class="st10" d="M170.6,380c0.4-0.1-0.2-0.8-0.2-0.8S170.1,380.2,170.6,380z"/>
			<path class="st10" d="M167,381.7c0.4-0.1-0.1-0.8-0.1-0.8S166.6,381.9,167,381.7z"/>
			<path class="st10" d="M167.8,381.2c0,0-0.7,0.4-0.4,0.7S167.8,381.2,167.8,381.2z"/>
			<path class="st10" d="M166.6,382c0.2-0.4-0.8-0.3-0.8-0.3S166.3,382.6,166.6,382z"/>
			<path class="st10" d="M180.8,362.2c0.2,0.3,0.6-0.6,0.6-0.6S180.5,361.8,180.8,362.2z"/>
			<path class="st10" d="M180.7,361.7c0.4,0.1,0.2-0.8,0.2-0.8S180.2,361.6,180.7,361.7z"/>
			<path class="st10" d="M176.2,359.2c0.4,0.1,0.2-0.8,0.2-0.8S175.7,359,176.2,359.2z"/>
			<path class="st10" d="M175.8,358.8c0.4-0.1-0.3-0.8-0.3-0.8S175.4,359,175.8,358.8z"/>
			<path class="st10" d="M172,359.8c0.3-0.2-0.4-0.7-0.4-0.7S171.6,360,172,359.8z"/>
			<path class="st10" d="M172.4,359.8c0.4,0.1,0.2-0.8,0.2-0.8S172,359.6,172.4,359.8z"/>
			<path class="st10" d="M171.8,360.2c0-0.4-0.8,0-0.8,0S171.8,360.7,171.8,360.2z"/>
			<path class="st10" d="M168.1,364.2c0.3-0.3-0.6-0.5-0.6-0.5S167.8,364.5,168.1,364.2z"/>
			<path class="st10" d="M168.6,364.1c0.4,0.1,0-0.8,0-0.8S168.1,364,168.6,364.1z"/>
			<rect x="180.5" y="365" class="st10" width="0.7" height="24.9"/>
			<rect x="170.1" y="364.5" class="st10" width="0.7" height="25.5"/>
			<rect x="178.4" y="364.5" class="st10" width="0.7" height="25.5"/>
			<polygon class="st10" points="173.8,350.8 164.2,364.4 164.2,389.9 165.1,389.9 165.1,364.4 174.8,350.8 			"/>
			<polygon class="st10" points="164.5,364 186.7,364 185.9,363 165.2,363 			"/>
			<polygon class="st14" points="220.8,350.2 177.3,350.2 188.5,363.3 232,363.3 			"/>
			<polygon class="st9" points="188.8,362.9 177.9,350.2 177.3,350.2 188.5,363.3 232,363.3 231.6,362.9 			"/>
			<path class="st15" d="M220.9,350.2h-42.8c0.2,0.3,0.5,0.5,0.8,0.7c4.4,2.8,16.4,5.8,30.6,7.4c6.3,0.7,12.7,1.1,19,1L220.9,350.2z
				"/>
			<polygon class="st9" points="231.3,363.3 232,363.3 220.8,350.2 220.1,350.2 			"/>
			<polygon class="st9" points="197.4,363.1 208.6,350.2 207.9,350.2 196.8,363.1 			"/>
			<polygon class="st9" points="191.7,350.2 184.7,358.5 185,358.9 192.4,350.2 			"/>
			<polygon class="st9" points="191.3,350.2 202.3,363 203,363 192,350.2 			"/>
			<polygon class="st9" points="207.6,350.2 218.6,363 219.3,363 208.3,350.2 			"/>
			<polygon class="st9" points="209.6,363.3 210.8,363.3 220.1,350.2 219.1,350.2 			"/>
			<path class="st9" d="M221.9,362c0-0.3-0.1-0.5-0.2-0.7c-0.1-0.1-0.2-0.2-0.3-0.3c-0.1-0.1-0.2-0.1-0.3-0.2l0,0c0,0,0,0-0.1-0.1
				l0,0c-0.1-0.1-0.1-0.2-0.1-0.3v-0.1l-0.1-0.9v-0.1c0-0.1,0-0.2-0.1-0.3l-0.1-0.1l0,0l0,0l0,0l0,0l0,0h-0.1h-0.1h-0.1h-0.6
				c0-0.1,0-0.2-0.1-0.2c-0.1-0.1-0.2-0.1-0.3,0c0-0.1,0-0.3,0-0.4l0,0c0-0.1,0-0.1,0-0.2s0-0.2-0.1-0.3c0-0.1,0-0.1-0.1-0.2l0,0
				l0,0l0,0l0,0c0-0.1-0.1-0.2-0.1-0.4l-0.1-0.1l-0.1-0.1l0,0l0,0l-0.1-0.1c0,0,0,0,0-0.1v-0.1l-0.1-0.1l-0.1-0.1l-0.1-0.1v-0.1
				c-0.1-0.1-0.2-0.2-0.2-0.2c-0.1-0.1-0.2-0.2-0.4-0.2l0,0c-0.7-0.5-1.6-0.5-2.3-0.1c-0.1,0.1-0.1,0.1-0.2,0.1h-0.1h-0.1
				c0,0-0.1,0-0.1-0.1h-0.1c0,0,0,0-0.1,0c0.1-0.2-0.1-0.4-0.4-0.5c-0.2-0.1-0.4-0.2-0.7-0.2h0.3c-0.2,0-0.3,0.1-0.4,0.2l-0.1,0.1
				c0,0.1-0.1,0.2-0.2,0.3c-0.2,0.3-0.6,0.3-0.9,0.5s-0.2,0.3-0.4,0.4s-0.4,0.1-0.6,0.1c-0.2,0.1-0.3,0.3-0.2,0.5
				c-0.7-0.2-1.4,0-1.9,0.4c-0.5,0.5-0.9,1-1.1,1.7c0,0.1-0.1,0.2-0.1,0.3c0,0.1,0,0.2,0,0.3c0,0.1,0.1,0.2,0.1,0.3
				c0.1,0.1,0.1,0.2,0.1,0.3c0.1,0.2-0.1,0.6-0.3,0.5l-0.1-0.1h-0.1h-0.1c-0.1,0-0.1,0-0.2,0c-0.1,0-0.1,0-0.2,0.1l-0.2,0.1
				c-0.2,0.1-0.3,0.3-0.4,0.5c-0.2,0.3-0.3,0.5-0.4,0.8c0,0.1-0.1,0.2-0.1,0.3v0.1l0,0v0.1l0,0v0.1l0,0v0.1l0,0v0.1l0,0l0,0v0.1l0,0
				l0,0v0.1l0,0h15.7v-0.1C222.1,362.9,222,362.4,221.9,362z"/>
			<path class="st9" d="M219.8,358.4c0.2,0.3,0.6-0.5,0.6-0.5S219.5,358,219.8,358.4z"/>
			<path class="st9" d="M219.6,357.9c0.4,0.1,0.2-0.8,0.2-0.8S219.2,357.8,219.6,357.9z"/>
			<path class="st9" d="M215.2,355.4c0.4,0.1,0.2-0.8,0.2-0.8S214.7,355.2,215.2,355.4z"/>
			<path class="st9" d="M214.8,355c0.4-0.1-0.3-0.8-0.3-0.8S214.3,355.1,214.8,355z"/>
			<path class="st9" d="M211,356c0.4-0.2-0.4-0.7-0.4-0.7S210.5,356.2,211,356z"/>
			<path class="st9" d="M211.4,356c0.4,0.1,0.2-0.8,0.2-0.8S211,355.8,211.4,356z"/>
			<path class="st9" d="M210.8,356.4c0-0.4-0.8,0-0.8,0S210.8,356.9,210.8,356.4z"/>
			<path class="st9" d="M207.1,360.4c0.3-0.3-0.6-0.5-0.6-0.5S206.8,360.7,207.1,360.4z"/>
			<path class="st9" d="M207.5,360.3c0.4,0.1,0-0.8,0-0.8S207.1,360.2,207.5,360.3z"/>
			<rect x="164.3" y="364.5" class="st10" width="22.8" height="0.8"/>
			<rect x="164.3" y="389.2" class="st10" width="22.8" height="0.8"/>
			<rect x="163.8" y="363.9" class="st13" width="23.7" height="0.8"/>
			<rect x="169.6" y="364.5" class="st13" width="0.7" height="25.9"/>
			<rect x="177.9" y="364.5" class="st13" width="0.7" height="25.9"/>
			<polygon class="st6" points="192.3,349.9 191.6,349.9 203.6,363.8 204.2,363.8 			"/>
			<polygon class="st6" points="208.6,349.9 207.9,349.9 219.9,363.8 220.6,363.8 			"/>
			<rect x="224" y="385" class="st16" width="4.9" height="1.4"/>
			<path class="st17" d="M228.2,384.4L228.2,384.4c0.4,0,0.7,0.3,0.7,0.6v1.3c0,0.3-0.3,0.6-0.6,0.6h-0.1c-0.3,0-0.6-0.3-0.6-0.6
				V385C227.6,384.6,227.9,384.4,228.2,384.4z"/>
			<path class="st17" d="M211.9,384.4L211.9,384.4c0.4,0,0.7,0.3,0.7,0.6v1.3c0,0.3-0.3,0.6-0.6,0.6h-0.1c-0.3,0-0.6-0.3-0.6-0.6
				V385C211.3,384.6,211.5,384.4,211.9,384.4z"/>
			<path class="st17" d="M224.7,384.4L224.7,384.4c0.4,0,0.7,0.3,0.7,0.6v1.3c0,0.3-0.3,0.6-0.6,0.6h-0.1c-0.3,0-0.6-0.3-0.6-0.6
				V385C224,384.6,224.3,384.4,224.7,384.4z"/>
			<path class="st17" d="M204.8,368.2c0.1,0.4,0.5,0.7,0.9,0.6s0.7-0.5,0.6-0.9c-0.1-0.4-0.4-0.6-0.8-0.6
				C205.1,367.3,204.7,367.7,204.8,368.2z"/>
			<path class="st16" d="M212.2,386.3h-1.4c-1.6,0-2.9-1.3-2.9-2.8l0,0v-13.1c0-0.8-0.6-1.4-1.4-1.4l0,0h-0.8
				c-0.4,0-0.7-0.3-0.7-0.7l0,0l0,0c0-0.4,0.3-0.7,0.7-0.7h0.8c1.6,0,2.9,1.3,2.9,2.9l0,0v13.1c0,0.8,0.6,1.4,1.4,1.4l0,0h1.4
				c0.4,0,0.7,0.3,0.7,0.7l0,0l0,0C213,386,212.7,386.3,212.2,386.3C212.3,386.3,212.3,386.3,212.2,386.3z"/>
			<path class="st17" d="M212.2,384.9h-1.4c-0.8,0-1.4-0.6-1.4-1.4l0,0v-10.6c-0.2,1.2-0.6,2.4-1.4,3.3v7.3c0,1.6,1.3,2.9,2.8,2.9
				l0,0h1.4c0.4,0,0.8-0.2,0.8-0.6s-0.2-0.8-0.6-0.8C212.4,384.9,212.3,384.9,212.2,384.9z"/>
			<path class="st18" d="M214.5,362h7.7c1.5,0,2.8,1.2,2.8,2.8v21.8c0,1.5-1.2,2.8-2.8,2.8h-7.7c-1.5,0-2.8-1.2-2.8-2.8v-21.8
				C211.8,363.3,213,362,214.5,362z"/>
			<path class="st19" d="M217.9,387.5c-0.7,0-1.2-0.5-1.2-1.2l0,0V362H213c-0.7,0-1.2,0.6-1.2,1.2V388c0,0.7,0.6,1.2,1.2,1.2h10.8
				c0.7,0,1.2-0.6,1.2-1.2v-0.6L217.9,387.5z"/>
			<path class="st20" d="M212.1,369.3c-0.1,0-0.2,0-0.3,0.1v18.7c0,0.7,0.6,1.2,1.2,1.2h1.1c0.6-2.7,0.9-5.5,0.9-8.3
				C215,374.5,213.7,369.3,212.1,369.3z"/>
			<path class="st13" d="M215.6,363.5h5.5c1.5,0,2.7,1.2,2.7,2.7V383c0,1.5-1.2,2.7-2.7,2.7h-5.5c-1.5,0-2.7-1.2-2.7-2.7v-16.8
				C212.9,364.7,214.1,363.5,215.6,363.5z"/>
			<path class="st21" d="M216.2,364.3h3c1.2,0,2.1,1,2.1,2.1v17c0,1.2-1,2.1-2.1,2.1h-3c-1.2,0-2.1-1-2.1-2.1v-17
				C214,365.2,215,364.3,216.2,364.3z"/>
			<path class="st22" d="M223.8,384.2v-4.7c-1.5-0.3-3-0.8-4.4-1.3c-0.3-0.1-0.6-0.2-0.9-0.2c-0.4,0.1-0.8,0.2-1.2,0.5
				c-1.3,0.7-2.9,1-4.4,0.9v4.8c-0.1,0.7,0.4,1.3,1.1,1.4h8.8C223.4,385.5,223.9,384.9,223.8,384.2z"/>
			<path class="st23" d="M220.6,385c-2.9,0-5.3-2.5-5.8-5.7c-0.7,0.1-1.3,0.1-2,0.1v4.8c-0.1,0.7,0.4,1.3,1.1,1.4h8.8
				c0.7-0.1,1.1-0.7,1.1-1.4v-0.3C222.9,384.6,221.8,385,220.6,385z"/>
			<path class="st24" d="M218.5,378c-0.4,0.1-0.8,0.2-1.2,0.5c-1.3,0.7-2.9,1-4.4,0.9v0.5c1.5,0.2,3.1,0.3,4.7,0.3
				c2.1,0,4.2-0.2,6.2-0.6l0,0c-1.5-0.3-3-0.8-4.4-1.3C219.1,378.1,218.8,378,218.5,378z"/>
			<path class="st16" d="M222.6,385.7h-8.5c-0.7,0-1.3-0.6-1.3-1.3l0,0v-19.7c0-0.7,0.6-1.3,1.3-1.3l0,0h8.5c0.7,0,1.3,0.6,1.3,1.3
				l0,0v19.7C224,385.1,223.4,385.7,222.6,385.7L222.6,385.7z M214.1,363.6c-0.6,0-1.1,0.5-1.1,1.1v19.7c0,0.6,0.5,1.1,1.1,1.1h8.5
				c0.6,0,1.1-0.5,1.1-1.1v-19.7c0-0.6-0.5-1.1-1.1-1.1H214.1z"/>
			<path class="st25" d="M221.2,364.3h0.3c0.6,0,1.2,0.5,1.2,1.2v6.1c0,0.6-0.5,1.2-1.2,1.2h-0.3c-0.6,0-1.2-0.5-1.2-1.2v-6.1
				C220.1,364.8,220.6,364.3,221.2,364.3z"/>
			<path class="st25" d="M221.2,374.1h0.3c0.6,0,1.2,0.5,1.2,1.2v1.2c0,0.6-0.5,1.2-1.2,1.2h-0.3c-0.6,0-1.2-0.5-1.2-1.2v-1.2
				C220.1,374.7,220.6,374.1,221.2,374.1z"/>
			<path class="st18" d="M231.2,362h7.7c1.5,0,2.8,1.2,2.8,2.8v21.8c0,1.5-1.2,2.8-2.8,2.8h-7.7c-1.5,0-2.8-1.2-2.8-2.8v-21.8
				C228.4,363.3,229.7,362,231.2,362z"/>
			<path class="st19" d="M234.6,387.5c-0.7,0-1.2-0.6-1.2-1.2V362h-3.6c-0.7,0-1.2,0.5-1.2,1.2l0,0V388c0,0.7,0.6,1.2,1.2,1.2l0,0
				h10.7c0.7,0,1.2-0.5,1.2-1.2l0,0v-0.6L234.6,387.5z"/>
			<path class="st20" d="M228.7,369.3c-0.1,0-0.2,0-0.3,0.1v18.7c0,0.7,0.6,1.2,1.2,1.2l0,0h1.1c0.6-2.7,0.9-5.6,0.9-8.4
				C231.6,374.5,230.3,369.3,228.7,369.3z"/>
			<path class="st13" d="M232.3,363.5h5.5c1.5,0,2.7,1.2,2.7,2.7V383c0,1.5-1.2,2.7-2.7,2.7h-5.5c-1.5,0-2.7-1.2-2.7-2.7v-16.8
				C229.6,364.7,230.8,363.5,232.3,363.5z"/>
			<path class="st21" d="M232.8,364.3h3c1.2,0,2.1,1,2.1,2.1v17c0,1.2-1,2.1-2.1,2.1h-3c-1.2,0-2.1-1-2.1-2.1v-17
				C230.7,365.2,231.6,364.3,232.8,364.3z"/>
			<path class="st22" d="M240.5,384.2v-17.8c-1.5-0.3-3-0.8-4.4-1.3c-0.3-0.1-0.6-0.2-0.9-0.2c-0.4,0.1-0.8,0.2-1.2,0.5
				c-1.4,0.7-2.9,1-4.4,0.9v17.9c-0.1,0.7,0.4,1.3,1.1,1.4h8.8C240.1,385.5,240.6,384.9,240.5,384.2z"/>
			<path class="st23" d="M231.6,366.2c-0.7,0.1-1.3,0.1-2,0.1v17.9c-0.1,0.7,0.4,1.3,1.1,1.4h8.8c0.7-0.1,1.1-0.7,1.1-1.4v-0.3
				C239.6,384.6,231.7,385.1,231.6,366.2z"/>
			<path class="st24" d="M235.2,364.9c-0.4,0.1-0.8,0.2-1.2,0.5c-1.4,0.7-2.9,1-4.4,0.9v0.5c1.5,0.2,3.1,0.3,4.7,0.3
				c2.1,0,4.2-0.2,6.2-0.6l0,0c-1.5-0.3-3-0.8-4.4-1.3C235.8,365,235.5,364.9,235.2,364.9z"/>
			<path class="st16" d="M239.3,385.7h-8.5c-0.7,0-1.4-0.6-1.4-1.4l0,0v-19.7c0-0.7,0.6-1.4,1.3-1.4l0,0h8.5c0.7,0,1.4,0.6,1.4,1.4
				l0,0v19.7C240.6,385.1,240,385.7,239.3,385.7L239.3,385.7z M230.8,363.6c-0.6,0-1.1,0.5-1.1,1.1l0,0v19.7c0,0.6,0.5,1.1,1,1.1
				l0,0h8.5c0.6,0,1.1-0.5,1.1-1.1l0,0v-19.7c0-0.6-0.5-1.1-1-1.1l0,0H230.8z"/>
			<path class="st25" d="M237.9,364.3h0.3c0.6,0,1.2,0.5,1.2,1.2v6.1c0,0.6-0.5,1.2-1.2,1.2h-0.3c-0.6,0-1.2-0.5-1.2-1.2v-6.1
				C236.7,364.8,237.2,364.3,237.9,364.3z"/>
			<path class="st25" d="M237.9,374.1h0.3c0.6,0,1.2,0.5,1.2,1.2v1.2c0,0.6-0.5,1.2-1.2,1.2h-0.3c-0.6,0-1.2-0.5-1.2-1.2v-1.2
				C236.7,374.7,237.2,374.1,237.9,374.1z"/>
			<circle class="st25" cx="216.9" cy="384.5" r="0.3"/>
			<path class="st25" d="M221.5,381.4c0-0.2-0.1-0.3-0.3-0.3s-0.3,0.1-0.3,0.3c0,0.2,0.1,0.3,0.3,0.3S221.5,381.6,221.5,381.4
				L221.5,381.4z"/>
			<circle class="st25" cx="222.1" cy="382.6" r="0.1"/>
			<circle class="st25" cx="214.7" cy="381" r="0.1"/>
			<circle class="st25" cx="223.1" cy="380.6" r="0.1"/>
			<circle class="st25" cx="219" cy="383.6" r="0.2"/>
			<path class="st25" d="M222.1,384.9c0-0.1,0-0.2-0.1-0.2s-0.2,0-0.2,0.1v0.1c0,0.1,0.1,0.2,0.2,0.2l0,0
				C222,385.1,222.1,385,222.1,384.9L222.1,384.9z"/>
			<path class="st25" d="M217.5,380.7c0-0.1-0.1-0.2-0.2-0.2s-0.2,0.1-0.2,0.2s0.1,0.2,0.2,0.2C217.4,380.9,217.5,380.8,217.5,380.7
				z"/>
			<circle class="st25" cx="215.4" cy="384.4" r="0.2"/>
			<path class="st25" d="M218,383.5c0-0.1-0.1-0.2-0.2-0.2l0,0c-0.1,0-0.2,0.1-0.2,0.2l0,0c0,0.1,0.1,0.2,0.2,0.2l0,0
				C217.9,383.7,218,383.6,218,383.5z"/>
			<path class="st25" d="M220.3,380.5c0-0.1-0.1-0.2-0.2-0.2c-0.1,0-0.2,0.1-0.2,0.2l0,0c0,0.1,0.1,0.2,0.2,0.2l0,0
				C220.2,380.7,220.3,380.6,220.3,380.5L220.3,380.5z"/>
			<circle class="st25" cx="220.2" cy="384.7" r="0.2"/>
			<path class="st25" d="M216,381.9c0-0.1-0.1-0.2-0.2-0.2l0,0c-0.1,0-0.3,0.1-0.3,0.2s0.1,0.3,0.2,0.3h0.1
				C215.9,382.2,216,382.1,216,381.9L216,381.9z"/>
			<path class="st25" d="M233.1,384.4c0-0.2-0.1-0.3-0.3-0.3s-0.3,0.1-0.3,0.3s0.1,0.3,0.3,0.3S233.1,384.5,233.1,384.4z"/>
			<path class="st25" d="M237.3,381.2c0-0.2-0.1-0.3-0.3-0.3s-0.3,0.1-0.3,0.3c0,0.2,0.1,0.3,0.3,0.3l0,0
				C237.1,381.6,237.3,381.4,237.3,381.2z"/>
			<path class="st25" d="M235.4,375.5c0-0.2-0.1-0.3-0.3-0.3s-0.3,0.1-0.3,0.3s0.1,0.3,0.3,0.3l0,0
				C235.2,375.8,235.3,375.7,235.4,375.5z"/>
			<circle class="st25" cx="237.9" cy="382.5" r="0.1"/>
			<path class="st25" d="M230.6,380.8c0-0.1-0.1-0.1-0.1-0.1c-0.1,0-0.2,0.1-0.2,0.1c0,0.1,0.1,0.2,0.1,0.2l0,0
				C230.6,381,230.7,380.9,230.6,380.8z"/>
			<circle class="st25" cx="238.9" cy="380.5" r="0.1"/>
			<path class="st25" d="M235,383.5c0-0.1-0.1-0.2-0.2-0.2s-0.2,0.1-0.2,0.2s0.1,0.2,0.2,0.2S235,383.6,235,383.5L235,383.5z"/>
			<path class="st25" d="M237.9,384.7c0-0.1-0.1-0.2-0.2-0.2c-0.1,0-0.2,0.1-0.2,0.2s0.1,0.2,0.2,0.2l0,0
				C237.8,384.9,237.9,384.8,237.9,384.7z"/>
			<path class="st25" d="M233.3,380.6c0-0.1-0.1-0.2-0.2-0.2c-0.1,0-0.2,0.1-0.2,0.2l0,0c0,0.1,0.1,0.2,0.2,0.2l0,0
				C233.2,380.8,233.3,380.7,233.3,380.6L233.3,380.6z"/>
			<path class="st25" d="M231.4,384.3c0-0.1-0.1-0.2-0.2-0.2s-0.2,0.1-0.2,0.2s0.1,0.2,0.2,0.2S231.4,384.4,231.4,384.3L231.4,384.3
				z"/>
			<circle class="st25" cx="233.6" cy="383.3" r="0.2"/>
			<circle class="st25" cx="235.9" cy="380.4" r="0.2"/>
			<path class="st25" d="M236.3,384.6c0-0.1-0.1-0.2-0.2-0.2c-0.1,0-0.2,0.1-0.2,0.2s0.1,0.2,0.2,0.2
				C236.2,384.8,236.3,384.7,236.3,384.6z"/>
			<path class="st25" d="M238.8,375.8c0-0.1-0.1-0.1-0.1-0.1c-0.1,0-0.2,0.1-0.2,0.1l0,0c0,0.1,0.1,0.1,0.1,0.1
				C238.8,375.9,238.8,375.9,238.8,375.8z"/>
			<path class="st25" d="M238.7,378c0-0.1-0.1-0.2-0.2-0.2s-0.2,0.1-0.2,0.2s0.1,0.2,0.2,0.2S238.7,378.1,238.7,378L238.7,378z"/>
			<path class="st25" d="M237.1,377.9c0-0.1-0.1-0.2-0.2-0.2s-0.2,0.1-0.2,0.2s0.1,0.2,0.2,0.2S237.1,378,237.1,377.9L237.1,377.9z"
				/>
			<path class="st25" d="M231.8,381.8c0-0.1-0.1-0.2-0.2-0.2c-0.1,0-0.2,0.1-0.2,0.2s0.1,0.2,0.2,0.2S231.8,381.9,231.8,381.8z"/>
			<path class="st25" d="M233.8,370.5c-0.2,0.1-0.2,0.3-0.2,0.4c0.1,0.2,0.3,0.2,0.4,0.2c0.2-0.1,0.2-0.3,0.2-0.4l0,0
				C234.1,370.5,233.9,370.4,233.8,370.5z"/>
			<path class="st25" d="M232.2,375c-0.1,0-0.1,0.2-0.1,0.2c0,0.1,0.2,0.1,0.2,0.1c0.1,0,0.1-0.2,0.1-0.2
				C232.4,375,232.3,375,232.2,375L232.2,375z"/>
			<path class="st25" d="M234.4,377.9c-0.1,0-0.1,0.2-0.1,0.2c0,0.1,0.2,0.1,0.2,0.1c0.1,0,0.1-0.2,0.1-0.2
				C234.6,377.9,234.5,377.9,234.4,377.9z"/>
			<path class="st25" d="M232.5,376.1c-0.1,0.1-0.2,0.2-0.1,0.3l0,0c0,0.1,0.2,0.2,0.3,0.1l0,0c0.1-0.1,0.2-0.2,0.1-0.3
				C232.8,376.1,232.6,376.1,232.5,376.1L232.5,376.1L232.5,376.1z"/>
			<path class="st25" d="M232,378.6c-0.1,0.1-0.2,0.2-0.1,0.3c0.1,0.1,0.2,0.2,0.3,0.1s0.2-0.2,0.1-0.3l0,0
				C232.3,378.6,232.1,378.6,232,378.6z"/>
			<circle class="st25" cx="237" cy="369.1" r="0.3"/>
			<path class="st25" d="M235.8,372.5c0-0.2-0.1-0.3-0.3-0.3l0,0c-0.2,0-0.3,0.1-0.3,0.3s0.1,0.3,0.3,0.3S235.8,372.7,235.8,372.5z"
				/>
			<circle class="st25" cx="237.9" cy="370.3" r="0.1"/>
			<circle class="st25" cx="237.5" cy="374.4" r="0.1"/>
			<path class="st25" d="M230.6,368.7c0-0.1-0.1-0.1-0.1-0.1c-0.1,0-0.1,0.1-0.1,0.1c0,0.1,0.1,0.1,0.1,0.1
				C230.6,368.8,230.6,368.8,230.6,368.7L230.6,368.7z"/>
			<circle class="st25" cx="238.9" cy="368.3" r="0.1"/>
			<path class="st25" d="M233.3,368.4c0-0.1-0.1-0.2-0.2-0.2s-0.2,0.1-0.2,0.2s0.1,0.2,0.2,0.2l0,0
				C233.2,368.6,233.3,368.5,233.3,368.4z"/>
			<circle class="st25" cx="235.9" cy="368.2" r="0.2"/>
			<path class="st25" d="M231.8,369.6c0-0.1-0.1-0.2-0.2-0.2s-0.2,0.1-0.2,0.2s0.1,0.2,0.2,0.2C231.7,369.9,231.8,369.8,231.8,369.6
				L231.8,369.6z"/>
			<path class="st16" d="M208.9,388.2h16.6c0.4,0,0.6,0.3,0.6,0.6v0.1c0,0.4-0.3,0.6-0.6,0.6h-16.6c-0.4,0-0.6-0.3-0.6-0.6v-0.1
				C208.2,388.5,208.5,388.2,208.9,388.2z"/>
			<path class="st16" d="M227.2,388.2h14.5c0.4,0,0.6,0.3,0.6,0.6v0.1c0,0.4-0.3,0.6-0.6,0.6h-14.5c-0.4,0-0.6-0.3-0.6-0.6v-0.1
				C226.6,388.5,226.9,388.2,227.2,388.2z"/>
			<rect x="192.3" y="389" class="st13" width="51.4" height="1.9"/>
			<rect x="192.3" y="389" class="st26" width="18.9" height="1.9"/>
			<polygon class="st10" points="183.3,360 180.6,363.1 181.3,363.1 183.6,360.4 			"/>
			<rect x="176.9" y="382.5" class="st13" width="1.2" height="0.3"/>
			<rect x="176.9" y="374.3" class="st13" width="1.2" height="0.3"/>
			<rect x="176.8" y="373.7" class="st13" width="0.5" height="9.5"/>
		</g>
		<path id="BukitHijau1" class="st27" d="M284.3,374.1c0,0-284-8-284.3,184.5h283.8L284.3,374.1z"/>
	</g>
	<g id="BukitOrange">
		<path class="st3" d="M100.9,420.8c1-1.6,1.3-3.5,0.7-5.3c-0.5-1.5-2.1-2.4-3.6-2.1c0-2.2-1.8-3.8-3.6-3.2c1-1.9,0.9-4.2-0.2-6
			c-1.1-1.4-3.2-1.7-4.7-0.6c0,0-0.1,0-0.1,0.1c-0.6-2.3-2.8-3.8-5.1-3.7c-2.2,0.2-4.4,2.1-5.5,4.8c-1.2-1.7-3.9-1-4.9,1.2
			c-0.8-1.5-2.7-2.2-4.3-1.7c-1.8,0.8-3.2,2.4-3.6,4.4c-2.6-1.4-6.5,1.4-7,5.1C70.6,416.3,82.3,418.4,100.9,420.8z"/>
		<path class="st28" d="M284.5,560.5c0,0,21.9-131.2-284.5-159.5v159.5H284.5z"/>
		<path class="st29" d="M0.3,406.8l0.5-5.1c25.3,9.5,70.7,32.5,96.8,49.4c42.1,27.4,81.2,45.7,117.6,80.2
			c-13.9,0.5-27.7,2.4-41.2,5.7C128.6,476.6,68.5,445.3,0,412.4L0.3,406.8z"/>
		<path class="st29" d="M51.7,408.2L51.7,408.2c27.7,11.6,64.2,25.5,90.8,42.9c48,31.5,77.3,46.1,118.8,85.5
			c-14.1-5.8-25.1-8.3-37.6-9.2C166.1,467.1,101.4,443.3,21.6,404l0,0L51.7,408.2z"/>
		<path class="st29" d="M0.3,433.7l0.5-8.9c20.8,11.2,36.1,18.6,63.4,35c42.1,27.4,67.6,49.6,104,84.1c-13.9,0.5-18.8,0.5-32.3,3.7
			c-54.3-61.4-66.5-64.2-135-97L0.3,433.7z"/>
		<path class="st29" d="M0.3,473.2v-11.5c25.3,9.5,31.8,15.9,59,32.2c42.1,27.4,45.8,30.1,82.1,64.5c-14.4,0-27.2,0-41.5,0.1
			C82.6,532.2,41.2,502,0.3,488.3V473.2z"/>
		<path class="st29" d="M143.4,430.5L143.4,430.5c29.7,13.8,67,31.2,92.8,49.3c14.6,10.5,9.8,8.7,46.9,43.3
			c-13.2-3.1-19.4-4.5-31.8-5.9c-55.2-53.3-76-56.2-153.7-99.5l16.6,3.6L143.4,430.5z"/>
	</g>
	<g id="Rumah_1_">
		<path id="Tumbuhan2" class="st2" d="M263.4,512.5c0.5-3.7-1-7.4-4-9.7c-2.9-2-6.7-2-9.6,0c-1.7-3.1-5.6-4.2-8.7-2.5
			c-0.8,0.5-1.6,1.1-2.1,1.9c-5.1-7.5-16.6-7.9-22.4-0.6c0.1-2.7-1.4-5.3-3.8-6.5c-2.5-1-5.2-0.2-6.9,1.9c-0.3-6.2-5-11.6-10.5-11.9
			s-11,4.6-12.1,10.7c-4.4-3.8-11.1-3.5-15.1,0.8c-1-3.9-5-6.2-8.9-5.2c-0.2,0-0.4,0.1-0.5,0.2c-3.8,1.3-6.5,5.3-7.9,9.5
			s-1.4,8.8-1.6,13.2c38.8,0.3,73.4,5.3,111.6,12.5C260,522.4,262.1,522.5,263.4,512.5z"/>
		<g id="Rumah">
			<rect x="86.8" y="448.4" class="st30" width="68.4" height="28.7"/>
			<polygon class="st31" points="155.2,448.4 125.4,477.1 185,482.4 185,477.1 			"/>
			<polygon class="st30" points="86.8,448.4 57,477.1 116.6,477.1 			"/>
			<rect x="57" y="477.2" class="st32" width="75" height="30.5"/>
			<polygon class="st33" points="185,481.5 185,507.2 125.4,507.2 125.4,482 155.2,453.8 			"/>
			<polygon class="st34" points="96.4,450.8 133.7,450.8 110.1,473.8 75.4,473.8 			"/>
			<polygon class="st35" points="96.6,451.3 132.6,451.3 109.8,473.4 76.3,473.4 			"/>
			<polygon class="st36" points="96.8,451.7 132.2,451.7 109.8,473.4 76.9,473.4 			"/>
			<polygon class="st37" points="97.6,451.7 108.8,451.7 102.9,473.4 90.6,473.4 			"/>
			<polygon class="st37" points="110.6,451.7 113.3,451.7 109.6,473.4 105.8,473.4 			"/>
			<polygon class="st34" points="124.8,451.2 125.3,451.2 104.1,473.5 103.6,473.5 			"/>
			<polygon class="st34" points="117.7,451.2 118.2,451.2 97,473.5 96.5,473.5 			"/>
			<polygon class="st34" points="110.6,451.2 111.1,451.2 89.9,473.5 89.4,473.5 			"/>
			<polygon class="st34" points="103.5,451.2 104,451.2 82.8,473.5 82.3,473.5 			"/>
			<polygon class="st34" points="90.1,458.1 90.5,457.7 126.4,457.7 126,458.1 			"/>
			<polygon class="st34" points="82.8,465.7 83.2,465.3 118.5,465.3 118.1,465.7 			"/>
			<rect x="78.8" y="479.8" class="st38" width="12.2" height="16.2"/>
			<rect x="152.4" y="461.8" class="st30" width="5.9" height="9.8"/>
			<rect x="153.1" y="463" class="st38" width="4.4" height="7.4"/>
		</g>
		<path id="Tumbuhan3" class="st3" d="M7.8,498.4c0-3.6,2-6.9,5.2-8.6c3.1-1.5,6.9-0.9,9.5,1.4c0.6-4.8,3.9-8.9,8.5-10.5
			c4.6-1.3,9.6,0.3,12.6,4c1.7-2.1,4.4-2.9,7-2.1c2.6,0.9,4.5,3.2,4.9,5.9c3.9-3.7,9.8-4.4,14.5-1.7c4.7,3.1,7.2,8.6,6.4,14.2
			C52.8,499.4,29.2,499.4,7.8,498.4z"/>
	</g>
	<path id="BukitHijauBawah" class="st39" d="M0,496.7c183.3-3.1,281.6,30.6,281.6,30.6l1.7,33.1L0,560.4V496.7z"/>
	<g id="Turbine_1_">
		<polygon class="st40" points="85.2,516.2 62,506.7 55.3,507 72.4,516.2 		"/>
		<polygon class="st40" points="49.5,507.3 28.9,508.6 30.2,506.9 86.2,504.4 89.6,505.5 		"/>
		<g id="Tiang">
			<path class="st41" d="M72.4,516.2c2.2,0.7,4.5,1,6.8,1c4.9,0,6-1,6-1l-4.9-129.8h-3.4L72.4,516.2z"/>
			<path class="st42" d="M76.6,382.6h4.1c1,0,1.8,0.8,1.8,1.8v2.6c0,1-0.8,1.8-1.8,1.8h-4.1c-1,0-1.8-0.8-1.8-1.8v-2.6
				C74.8,383.4,75.6,382.6,76.6,382.6z"/>
			<polygon class="st42" points="78.7,388.8 73.7,516.6 72.1,516.2 76.8,388.8 			"/>
		</g>
		<g id="Turbine">
			<ellipse class="st43" cx="78.6" cy="381.6" rx="74.2" ry="74.3"/>
			<path class="st41" d="M82.3,381.6l-0.4-2.5l3.4-0.6l2.4-3.9l61.2-6.3c0.4,0,0.9,0.1,1.2,0.3l0.7,0.5c0.2,0.1,0.3,0.3,0.4,0.6
				l0.1,0.6L82.3,381.6z"/>
			<path class="st41" d="M75.2,384.5l2.3,1.1l-1.4,3.1l1.9,4.2l-29.1,54.3c-0.2,0.4-0.5,0.7-0.9,0.8l-0.8,0.3
				c-0.2,0.1-0.4,0.1-0.7,0l-0.5-0.2L75.2,384.5z"/>
			<path class="st41" d="M76.5,377.3l-1.9,1.7l-2.3-2.6h-4.6l-37.6-48.8c-0.3-0.3-0.4-0.8-0.4-1.2v-0.8c0-0.2,0.1-0.4,0.3-0.6
				l0.5-0.4L76.5,377.3z"/>
			<ellipse class="st44" cx="78.6" cy="381.6" rx="4.8" ry="4.8"/>
		</g>
	</g>
	<path id="Pad" class="st41" d="M254,0h32l0,0v560.4l0,0h-32c-8.8,0-16-7.2-16-16V16C238,7.2,245.2,0,254,0z"/>
	<g id="Tumbuhan1">
		<path class="st2" d="M279.1,560.4c4-3.2,4.7-10.3,1.5-14.6c-2.6-3.4-7.5-4.2-10.9-1.6c-0.7,0.5-1.3,1.1-1.8,1.8
			c1.6-6.5-1.4-14.3-6.5-17.2s-12-0.6-15.1,5.1c-4.7-5.9-14-4.7-17.4,2.2c-4.3-6-9.9-11.2-16.5-12.5c-7.1-1.3-14.1,2.7-16.5,9.5
			c-5.7-3.1-12.8-1.7-16.9,3.3c-2-9.4-15.3-16.9-24.4-15.2c-8.3,1.7-12.2,7.8-12.2,14c-3.8-2.8-9-2.5-12.4,0.8
			c-3.5,3.3-5,9.2-3.6,14.3c-6.2-0.6-8.9,2.6-8.2,10c34.1,0,61.9,0.1,94.4,0C235.8,560.5,255.1,560.6,279.1,560.4z"/>
		<path class="st45" d="M260.7,534.5c-0.2-0.1-0.5,0.1-0.6,0.3c-0.7,4.2-1.6,8.3-2.7,12.4l-1.8-6.3c-0.1-0.2-0.3-0.4-0.6-0.3l0,0
			c-0.2,0.1-0.4,0.3-0.3,0.6l2.2,7.7c0,0,0,0.1,0.1,0.1c-0.8,3.1-1.8,6.1-2.8,9.1c-2-2.8-4.1-5.6-6.2-8.3c0.5-3.4,0.6-6.9,0.1-10.3
			c0-0.3-0.3-0.4-0.5-0.4l0,0c-0.2,0-0.4,0.3-0.4,0.5c0.4,3,0.4,6.1,0,9.2c-2.2-2.7-4.5-5.3-6.9-7.8l0,0c-0.2-0.2-0.5-0.2-0.7,0
			s-0.2,0.5,0,0.6c5.3,5.5,10.1,11.4,14.4,17.7l0.5,0.8l0.3-0.9c2.8-7.9,4.9-16,6.3-24.2C261,534.8,260.9,534.6,260.7,534.5z"/>
		<path class="st45" d="M209.6,543.7c-0.2-0.1-0.5,0-0.6,0.2c-2.4,4-4.5,8.1-6.5,12.3c-1.1-2.2-2.1-4.4-3-6.7
			c1.7-3.6,3-7.5,3.8-11.4c0.1-0.3-0.1-0.5-0.4-0.5c-0.3-0.1-0.5,0.1-0.6,0.4c-0.8,3.6-1.9,7-3.4,10.4c-1.3-3.4-2.5-6.9-3.4-10.5
			c-0.1-0.2-0.3-0.4-0.6-0.3s-0.4,0.3-0.3,0.6c1,3.9,2.3,7.8,3.8,11.5c-0.1,0.2,0,0.4,0.2,0.5c1,2.5,2.1,5,3.4,7.5
			c0.1,0.2,0.2,0.3,0.4,0.2h0.1c0.1,0,0.1,0,0.2,0c0.2-0.1,0.3-0.3,0.2-0.4c2-4.5,4.3-8.8,6.8-13
			C209.9,544.1,209.9,543.8,209.6,543.7z"/>
		<path class="st45" d="M156.8,537c0.1-0.3-0.1-0.6-0.4-0.7c-0.3-0.1-0.6,0.1-0.7,0.4c-1.3,6.3-3.4,12.4-6.1,18.2
			c-2.9-4.3-6.2-8.4-9.8-12.1c-0.2-0.2-0.6-0.2-0.8,0s-0.2,0.6,0,0.8c4.6,4.7,8.6,9.9,12,15.6c0.1,0.2,0.3,0.3,0.5,0.3
			c0.1,0,0.2,0,0.3-0.1l0,0c0.3-0.2,0.4-0.5,0.2-0.8c-0.5-0.9-1.1-1.8-1.6-2.6C153.2,550,155.4,543.6,156.8,537L156.8,537z"/>
	</g>
</g>
</svg>
