<svg xmlns="http://www.w3.org/2000/svg" xmlns:xlink="http://www.w3.org/1999/xlink" viewBox="0 0 285 560.4" xmlns:v="https://vecta.io/nano"><style><![CDATA[.u{enable-background:new}.v{opacity:.56}.w{fill:#b3d4db}.x{fill:#179668}.y{fill:#d3ebef}.z{fill:#424a4e}.AA{fill:#178ea6}.AB{fill:#007c8d}.AC{fill:#00707a}.AD{fill:#f5eedb}.AE{fill:#fceae8}]]></style><path d="M0 0h285v560.4H0z" fill="#32e6f9"/><path d="M.2 190.4s173.9-4.1 284.8 72.1v105.9S175.4 259.1.2 235.7v-45.3h0z" opacity=".1" fill="#fff" class="u"/><path d="M105.7 327.7c-32-.8-63.7-6.8-94.9-14.5-1 0-1.8-.7-1.8-1.7 0-.3.1-.6.2-.9.5-1.1 1.7-1.6 2.9-1.4-.3-.8 0-1.6.8-1.9.3-.1.6-.1 1-.1.1-1 .7-1.8 1.4-2.4a3.69 3.69 0 0 1 3.9-.5c.7-1.2 2.3-1.7 3.5-1h.1c1-1 2.6-1 3.6 0 .2.2.3.4.5.6 1.6-.7 3.4-.2 4.5 1.1 1.7-1.7 4.2-2.1 6.3-1 .1-1.7.9-3.3 2.3-4.3.3-.2.6-.4 1-.6 1.9-.9 4.2-.6 5.8.7 1-1.1 2.6-1.2 3.8-.3 1-.5 2.1-.7 3.2-.6.4-1.9 2.3-3.1 4.1-2.7 1 .2 1.9.9 2.4 1.8a2.48 2.48 0 0 1 3.4 1c.1.2.2.5.3.7 2.4-1 5.1-.1 6.6 2 1.1-.5 2.4-.2 3.2.7 1.1-1.3 3-1.7 4.5-.9 1.4 1 2.3 2.7 2.2 4.4 1.1.6 1.9 1.6 2.1 2.8 2.2-1 4.8-.1 5.9 2.1.4.8.5 1.8.3 2.7 1.6-.1 3 .8 3.7 2.2 1.4-.8 3.1-.7 4.3.2.4.3.8.7 1 1.2a3.5 3.5 0 0 1 .2 3c1-.1 1.9.6 2.1 1.6v.1c.9-1.1 2.5-1.3 3.6-.4.8.6 1.1 1.6.9 2.5a2.16 2.16 0 0 1 1.8 2.5c-.3.7-.4 1.1-.7 1.3h0z" class="AC"/><path d="M113.4 321.4c.9-1.5 1-3.2.4-4.8-.5-1.3-2-2.1-3.3-1.7-.1-2-1.8-3.3-3.3-2.7.8-1.7.6-3.8-.5-5.4-1.1-1.3-3-1.4-4.2-.3h0c-.7-2-2.6-3.3-4.8-3.1-2 .3-3.9 2.1-4.7 4.5-1.1-1.4-3.5-.7-4.3 1.3-.8-1.4-2.5-1.9-4-1.3-1.6.8-2.7 2.3-3 4.1-2.4-1.2-5.7 1.5-6.1 4.9 10.5 1.8 21.1 3.2 37.8 4.5z" class="x"/><path d="M0 308.2s284.3-6 284.3 155.5H0V308.2z" fill="#23b781"/><path d="M0 308.2s1 34.5 27.2 37.8 59.9-6.5 84.8 4.1 10.1 22.6-18.9 31.4 4.6 43.4 79.2 31.8 112 50.4 112 50.4S309.9 313.3 0 308.2z" fill="#33cb93"/><path d="M133.9 396.9c-.7-2.1-.3-4.4 1.2-6 1.5-1.5 3.8-1.9 5.7-1.1-.6-2.9.5-5.9 2.8-7.8a7.27 7.27 0 0 1 8-.3c.6-1.5 1.9-2.6 3.6-2.7 1.7 0 3.2.9 4 2.4a7.52 7.52 0 0 1 8-3.9 8.98 8.98 0 0 1 6.6 6.8c-13.9 3.9-27.4 8.8-39.9 12.6z" class="x"/><path d="M187.9 363.9h45.7v26.9h-45.7z" class="y"/><path d="M188.8 364.6h44.1V390h-44.1z" fill="#40a0be"/><path d="M189.4 366h42.8v9.6h-42.8z" fill="#4ab3cd"/><g class="AA"><path d="M206.5 384.6v-.1-.1-.1-.1s0-.1-.1-.1l-.1-.1-.1-.1-.1-.1-.1-.1-.1-.1s0-.1-.1-.1l-.1-.1-.1-.1h0l.1-.1c.1 0 .1-.1.1-.1l.2-.2.1-.1v-.1-.1-.1-.1-.1-.1-.1-.1h0l-.1-.1h0l-.1-.1h0l-.1-.1h0c-.3-.4-.8-.8-1-.7.4-.6.6-1.3.7-2v-.3-.1c0-.1 0-.2-.1-.3h0c-.1-.2-.2-.5-.3-.6h0c-.1-.2-.3-.3-.5-.5a2.2 2.2 0 0 0-1.4-.2c.2-.2.3-.6.1-.9s-.5-.4-.8-.3v-.5c-.1-.1-.3-.2-.4-.1.2-.9-.3-1.9-1.2-2.2-.8-.3-1.8-.2-2.6.3-.1-.3-.3-.4-.6-.3.1-.2 0-.4-.2-.5h-.1c-.2 0-.4 0-.6.2-.1-.4-.2-.7-.2-1.1 0-.2-.1-.3-.2-.5a.45.45 0 0 0-.5 0l-.2.1h-.1l-.2.1h-.1l-.1.1-.1.1-.1.1-.1.1-.1.1-.1.1-.1.1h.4 0 0l-.1.1-.1.1h0 0 0c-.4.5-.7 1.1-.9 1.7h0c0 .1-.1.3-.1.4s0 .2-.1.3l-.2.2c-.1.1-.2.4-.1.5-.3.2-.4.5-.5.8-.1-.2-.2-.4-.4-.6h0l-.1-.1h-.1 0-.1-.2 0-.1 0 .1 0 0 0-.1 0-.1 0 0l-.1.1-.2.2v.1c-.1.1-.1.2-.2.2h0c0 .1-.1.1-.1.2-.4.9.2 2 .2 3-.1-.1-.3.2-.2.3s.2.3.1.5c-.2-.1-.4 0-.5.2v.1c0-.2-.3-.3-.4-.1s-.2.4-.1.6c0 .4 0 .9.1 1.3h0l.1.4h0c0 .1.1.2.1.3h0l.1.3h0c0 .1.1.2.1.3v.1l.1.3h0c.1.1.1.2.2.2l.1.1c.1.1.1.2.2.2-.2.2-.2.4 0 .6h0c-.1-.2-.6-.1-.6.2s.1.6.3.8c.9 1.1 2.4 1.5 3.8 1-.1.1-.2.2-.2.3a2.21 2.21 0 0 0 1.6 0c.2.1.5.1.7.1.4.1.8 0 1.2-.1.2.2.4.4.5.6-.1.5-.5 1-.9 1h1.7c-.2-.4-.4-.9-.5-1.4.1-.2.2-.3.3-.5.4.1.9.1 1.3.1.3 0 .5-.1.8-.1 1.4.6 3 .8 4.6.5.2 0 .4-.1.5-.2.2-.1.2-.4.1-.5l-.1-.1h0-.1 0l-.1-.1-.9-.3c.3-.1.6-.3.8-.4h0l.3-.2h.1a1.38 1.38 0 0 1 .4-.3c.2-.2.3-.4.4-.6v-.2c-.3 0-.9.1-.9.1zm-10.2 3l-.5-.1c.3-.1.6-.2.9-.4l.2.1c.1.1.3.2.4.3-.3.2-.7.2-1 .1h0zm.9-.5l-.2-.1c.2-.1.5-.2.7-.3v.2c.1.2.1.5.2.8-.2-.3-.4-.5-.7-.6h0zm.9.2c0-.2-.1-.4-.1-.7h.1l.6.1c-.2.2-.5.5-.6.7.1 0 .1 0 0-.1h0zm1.7 0c-.4 0-.7 0-1.1-.1h0c.1-.1.2-.3.3-.4l1.4.4c-.2.1-.4.1-.6.1h0zm4.6-11c.4.6 1.1-1.1 1.1-1.1s-1.7.3-1.1 1.1z"/><path d="M204.1 375.4c.7.2.3-1.5.3-1.5s-1.1 1.2-.3 1.5zm-5.4-3c.7.3.4-1.5.4-1.5s-1.2 1.1-.4 1.5zm-.6-.6c.7-.2-.5-1.5-.5-1.5s-.4 1.7.5 1.5zm-6.3 3c.6-.2-.3-1.5-.3-1.5s-.6 1.8.3 1.5zm1.3-1s-1.3.7-.7 1.3.7-1.3.7-1.3zm-2.1 1.6c.3-.8-1.4-.5-1.4-.5s1 1.6 1.4.5zm35.4 10.8s0-.1 0 0v-.1h0v-.1h0l-.1-.1v-.1l-.1-.1h-.1l-.1-.1h-.1l-.1-.1h0 .1l.1-.1.1-.1.1-.1h0v-.1h0v-.1-.1h0v-.1h0v-.1h0v-.1h0l-.1-.1h0c-.2-.3-.6-.5-.7-.5.3-.5.5-1 .6-1.5v-.2-.1-.2h0c0-.2-.1-.3-.2-.5h0l-.3-.3c-.3-.1-.7-.2-1-.1a.47.47 0 0 0 .1-.6c-.1-.2-.4-.3-.6-.2v-.4c-.1-.1-.2-.2-.3-.1.2-.7-.2-1.4-.8-1.6s-1.3-.1-1.9.2c0-.2-.2-.3-.4-.3h0c.1-.1 0-.3-.1-.4h-.1c-.2 0-.3 0-.4.1l-.1-.8c0-.1-.1-.2-.1-.3-.1-.1-.2-.1-.4 0-.1 0-.2.1-.4.1l-.1.1.1.1-.1.1-.2.1h0 0 0l-.1.1-.1.1-.1.1-.1.1h0v.1l-.1.1-.1.1-.1.1v.1h0l-.1.2h0 0c0 .1-.1.1-.1.2s0 .1-.1.2 0 0 0 0h0c0 .1-.1.2-.1.3s0 .1-.1.2c0 0-.1.1-.2.1-.1.1-.1.3-.1.4-.2.1-.3.3-.4.6a1.38 1.38 0 0 0-.3-.4h0l-.1-.1h0-.1-.2 0s-.1 0-.1.1h0l-.1.1h0l-.1.1-.2.2h0c-.1.1-.2.2-.2.3-.3.7.1 1.5.1 2.2-.1-.1-.2.1-.2.2s.1.2.1.4c-.1-.1-.3 0-.4.1v.1c0-.1-.2-.2-.3-.1s-.1.3-.1.4v.7h0 0v.1.2.1.2.1c0 .1 0 .2.1.3h0l.1.2v.1c0 .1.1.1.1.2 0 0 0 .1.1.1.1.1.1.2.2.2-.1.1-.1.3 0 .4h0c-.1-.2-.4-.1-.4.1l-.8-2.8v-.2c-.1-.4-.1-.9-.2-1.3v-.2-.2-.4h0v-.4-.4-1.6h0v-.4h0v-1.6s0-.6-.1-1.6c.5-.3 1-.7 1.4-1.2h.2c.5 0 .9-.4.9-.9h.3 0s.1 0 .1-.1h0l.1-.1h0l.1-.1h0v-.2c.4.1.8.1 1.1-.2s.4-.7.2-1.1c.2-.1.3-.1.5-.2.1-.1.3-.2.4-.3l.2-.2c.2-.2.3-.4.4-.6.1-.1.1-.2.2-.2.1-.1.2-.1.3-.1.3 0 .6-.2.9-.4.2-.2.3-.4.4-.6 0-.1.1-.2.1-.2.1-.7-.1-1.4-.7-1.8.3-.2.5-.5.5-.9.1-.4.2-.8.2-1.2 0-.3-.1-.5-.2-.7h0-15.7c-.1.2-.3.5-.4.7 0 .1-.1.2-.1.3v.1h0v.1h0v.1h0v.1.1h0 0v.1h0 0v.1.1.1l.2.2c.1.1.1.2.1.3s.1.2.1.3 0 .2.1.3c0 .1 0 .1.1.2h0c0 .1.1.1.1.1h0c.1 0 .1.1.2.1-.1.1-.1.1-.1.2h0 0v.1s0 .1.1.1c-.3 0-.3.4-.2.7a1.08 1.08 0 0 0 .3.7h0 0s0 .1.1.1h0l.1.1h0c.1 0 .1.1.2.1h.3c0 .1.1.1.1.2v.1h0c0 .1-.1.2-.1.3h0l-.1.1c-.3.5-.3 1.1-.1 1.6s.7.8 1.3.9c.1.2.3.3.6.2l.2-.1s0 .1.1.1h0l.1.1h0 .1 0 .1.3.2.2 0 .2 0l.2-.1h0l.1-.1h0c.2-.1.4-.3.4-.5h.3c.9.9 1.5 1.9 1.9 3.1l.1 2.6v.3.5.2 2.5.1.2.1.1.1.1.1.1.1.1.1.1.1.1.1.1c0 .1.1.2.1.4h0v.2.1.2.1.2.1.2.1.2.1.2.1.3.2.1.2.1.2.1c0 .1 0 .2-.1.3-.6 1.4-1.1.9-1.1 1.6h4.5l-.3-.1h-.1l-.2-.1h-.1l-.2-.1-.5-.3c-.2-.1-.3-.3-.4-.5s-.2-.4-.2-.6v-.2-.4h0c0 .1.1.2.1.2.6.8 1.7 1.1 2.7.7-.1 0-.2.1-.2.2.4.1.8.1 1.2 0 .2 0 .4.1.5.1.3 0 .6 0 .8-.1.1.1.3.3.3.5-.1.4-.4.7-.7.7h1.2l-.3-1c.1-.1.1-.3.2-.4.3.1.6.1.9 0 .2 0 .4-.1.6-.1 1 .4 2 .5 3 .4h.2a.76.76 0 0 0 .4-.2c.1-.1.2-.3.1-.4l-.1-.1h0c-.1 0-.1-.1-.2-.1l-.6-.2.6-.3h0l.2-.2h0c.1-.1.2-.1.3-.2s.2-.3.3-.5v-.2h0c.3.8.4.8.5.7zm-13.2-11.4c-.5-.6-1.1-1.1-1.7-1.7l.1-.1c.1-.2.3-.4.6-.3.1.4.4.7.9.6 0 .2 0 .4.1.6l.1.1c-.1.3-.1.5-.1.8h0zm.3-.5c.1.1.2.1.3.2.2.1.4.2.7.3l-1 .6v-1.1h0zm5.5 14.1h-.3l.6-.3.2.1.3.2c-.3.1-.6.1-.8 0zm.7-.4h-.1c.2-.1.4-.2.5-.2v.2c0 .1.1.4.1.5l-.5-.5h0zm.7.4v-.2c0-.2-.1-.3-.1-.5h.1l.4.1c-.2.2-.3.4-.4.6h0zm1.1-.2c-.3 0-.5 0-.8-.1h0c.1-.1.2-.2.2-.3l1 .3c-.1.1-.3.1-.4.1h0z"/><path d="M188.8 364.7h44.5v.7h-44.5zm0 24.7h44.5v.7h-44.5z"/><path d="M196.2 365h.7v25.5h-.7zm6.6-.4h.6V390h-.6z"/></g><g class="AB"><path d="M211.5 365.9l-9.1 1c-.7.1-1.3.7-1.3 1.4V390h12v-22.6c0-.8-.6-1.4-1.4-1.4-.1-.1-.1-.1-.2-.1z"/><path d="M209.1 364.6h1.1v24.2h-1.1z" opacity=".33" class="u"/><path d="M231.4 365.8l-10.6 1.3V390h10.6z"/></g><path d="M203.3 364.2h.7v26.4h-.7z" class="y"/><path d="M204 366.8l-.7.1v23.7h.7z" fill="#96c0c7"/><path d="M219.6 364.2h.7v26.4h-.7z" class="y"/><path d="M187.9 363.9l-12.3-14.4h-1.9l-10.3 14.4v26.9h24.5z" class="w"/><path d="M221.3 349.5h-45.7l12.3 14.5h45.7z" class="y"/><path d="M187.1 364.4l-11.9-13.6h-1.4l-9.6 13.6v25.5h22.9z" class="AA"/><g class="AB"><path d="M187.9 386.3v-.1-.1-.1h0v-.1h0s0-.1-.1-.1v-.1l-.1-.1h-.1l-.1-.1h-.1-.1 0 .1l.1-.1c.1 0 .1-.1.1-.1l.1-.1h0v-.1h0v-.1h0v-.1c0-.1 0 0 0 0v-.1h0v-.1h0l-.1-.1h0l-.1-.1h0c-.2-.3-.6-.5-.7-.5.3-.4.5-.9.6-1.5v-.2-.1-.2h0c0-.2-.1-.3-.2-.5h0l-.3-.3c-.3-.1-.7-.2-1-.1a.47.47 0 0 0 .1-.6c-.1-.2-.4-.3-.6-.2v-.3c0-.1-.1-.1-.2-.1h-.1c.2-.7-.2-1.3-.8-1.6-.6-.2-1.3-.2-1.8.2 0-.2-.2-.3-.4-.2h0c.1-.1 0-.3-.1-.3h-.1c-.2 0-.3 0-.4.1l-.1-.8c0-.1-.1-.2-.1-.3-.1-.1-.2-.1-.4 0l-.4.1-.1.1-.2.1-.1.1-.2.1h0 0 0l-.1.1-.1.1-.1.1-.1.1h0v.1l-.1.1-.1.1-.1.1v.1h0l-.1.2h0 0l-.1.2c0 .1-.1.1-.1.2h0 0c0 .1-.1.2-.1.3s0 .1-.1.2c0 .1-.1.1-.2.1-.1.1-.1.3-.1.4-.2.1-.3.3-.4.5-.1-.2-.1-.3-.3-.4h0l-.1-.1h0-.1-.2 0 .7 0l-.1.1h0l-.1.1-.1.2h0c-.1.1-.2.2-.2.3-.3.7.1 1.4 0 2.1-.1-.1-.2.1-.2.2s.1.2.1.4c-.1-.1-.3 0-.4.1v.1c0-.1-.2-.2-.3-.1s-.1.3-.1.4v.7h0v.1.2.1.2.1c0 .1 0 .2.1.3h0l.1.2.1.1c0 .1.1.1.1.2l.1.1.2.2c-.1.1-.1.3 0 .5h0c-.1-.2-.4-.1-.4.1l-.8-2.8v-.2c-.1-.4-.1-.9-.2-1.3v-.3-.3h0v-.4-.4-.4-.8h0v-.4h0v-.4h0v-1.6-1.5c.5-.3 1-.7 1.4-1.2h.2c.5 0 .9-.4.9-.8h.3 0s.1 0 .1-.1h0l.1-.1h0l.1-.1h0v-.1c.5.2 1.1-.1 1.3-.6.1-.2.1-.4 0-.6.2-.1.3-.1.5-.2.1-.1.3-.2.4-.3l.2-.2c.2-.2.3-.4.4-.6 0-.1.1-.2.2-.2s.2-.1.3-.1c.3 0 .6-.2.9-.4.2-.1.3-.3.4-.6 0-.1.1-.2.1-.2.1-.7-.1-1.3-.7-1.7.3-.2.5-.5.5-.9.1-.4.2-.8.1-1.2 0-.3-.1-.5-.2-.7l-.3-.3c-.1-.1-.2-.1-.3-.2h0l-.1-.1h0c-.1-.1-.1-.2-.1-.3v-.4l-.1-.9v-.1c0-.1 0-.2-.1-.3 0 0 0-.1-.1-.1h0 0 0 0 0-.1 0 0-.2-.6c0-.1-.1-.2-.3-.2h-.1v-.4h0v-.2c0-.1 0-.2-.1-.3s0-.1 0-.2h0v-.1h0 0c0-.1-.1-.2-.1-.3v-.1l-.1-.1h0v-.1-.1-.1s0-.1-.1-.1l-.1-.1-.1-.1-.1-.1-.1-.1-.2-.2c-.1-.1-.2-.2-.4-.2h0c-.7-.5-1.6-.5-2.3-.1-.1.1-.1.1-.2.1h-.1l-.1-.1h-.1-.1 0c.1-.2-.1-.4-.4-.5-.2-.1-.4-.2-.7-.2h-.2c-.2 0-.3.1-.4.2l-.1.1c0 .1-.1.2-.2.3-.2.3-.6.3-.9.5l-.4.4c-.2.1-.4.1-.5.1-.2.1-.3.3-.2.4-.7-.2-1.4 0-1.9.4s-.9 1-1.1 1.7c0 .1-.1.2-.1.3v.3c0 .1.1.2.1.3.1.1.1.2.1.3.1.2-.1.6-.3.5l-.1-.1-.1-.1h-.1-.2c-.1 0-.1 0-.2.1-.1 0-.1.1-.2.1-.2.1-.3.3-.4.5-.2.2-.3.5-.4.8l-.1.3v.1h0v.1h0v.1h0v.1h0v.1h0 0v.1h0 0v.1.1.1c.1.1.1.2.2.2.1.1.1.2.2.3 0 .1.1.2.1.3s0 .2.1.3c0 .1 0 .1.1.2h0c0 .1.1.1.1.1h0c.1 0 .1.1.2.1-.1.1-.1.1-.1.2h0 0v.1s0 .1.1.1c-.3 0-.3.4-.2.6a1.08 1.08 0 0 0 .3.7h0 0l.1.1h0l.1.1h0c.1 0 .1.1.2.1h.1c0 .1.1.1.1.2v.1h0c0 .1-.1.2-.1.3h0l-.1.1c-.3.5-.3 1-.1 1.5.3.5.7.8 1.3.8 0 .2.3.3.6.2l.2-.1.1.1h0l.1.1h0 .1 0 .1.3.2.2 0 .2 0l.2-.1h0c-.2-.2-.4-.2-.7-.1h0c.2-.1.4-.3.4-.5h.3c.8.8 1.5 1.9 1.9 3l.1 2.6v2.2.2.5.2.1.2.1.2.1.1.1.1.1.1.1.1.1.1.1.1.1.1c0 .1.1.2.1.4h0v.2.2.2.1.2.1.2.1.2.1.2.1.3.2.1.2.1.2.1c0 .1 0 .2-.1.2-.6 1.3-1.1.9-1.1 1.5h4.5l-.3-.1h-.1l-.2-.1h-.1l-.2-.1-.5-.3a.78.78 0 0 1-.4-.4c-.1-.2-.1-.4-.2-.6v-.1-.4h0c0 .1.1.1.1.2.7.8 1.7 1.1 2.7.7-.1 0-.1.1-.2.2.4.1.8.1 1.1 0 .2 0 .4.1.5.1.3 0 .6 0 .8-.1.1.1.3.3.3.5-.1.4-.4.7-.7.7h1.2l-.3-1c.1-.1.1-.2.2-.4.3.1.6.1.9 0 .2 0 .4 0 .6-.1 1 .4 2 .5 3 .4h0 .2a.76.76 0 0 0 .4-.2c.1-.1.1-.3.1-.4 0 0 0-.1-.1-.1h0c-.1 0-.1-.1-.2-.1l-.6-.2.6-.3h0c.1-.1.2-.1.2-.2h.1l.3-.2c.1-.1.3-.3.3-.4v-.1l.3.4zM175 375.6v-1l.3.2c.2.1.4.2.7.3a4.67 4.67 0 0 0-1 .5zm-2-2.2s.1-.1 0 0c.2-.2.4-.5.6-.4.1.4.5.7.9.6 0 .2 0 .4.1.6l.1.1v.8l-1.7-1.7zm7.4 15l-.3-.1.6-.3.2.1c.1.1.2.1.3.2-.3.1-.5.2-.8.1h0zm.7-.4h0c.1-.1.3-.2.5-.2v.2c0 .2.1.4.1.5-.2-.2-.4-.3-.6-.5h0zm.7.2c0-.2-.1-.3-.1-.5h.1l.4.1c-.2.1-.3.3-.5.5l.1-.1zm1.1 0c-.3 0-.5 0-.8-.1h0l.3-.3 1 .3c-.1.1-.3.1-.5.1h0zm3.7-7.9c.3.4.8-.8.8-.8s-1.2.3-.8.8zm-.2-.6c.5.2.3-1.1.3-1.1s-.9.9-.3 1.1zm-3.8-2.1c.5.2.4-1.1.4-1.1s-.9.8-.4 1.1z"/><path d="M182.2 377.1c.5-.1-.3-1.1-.3-1.1s-.3 1.3.3 1.1zm-4.6 2.2c.5-.1-.2-1.1-.2-1.1s-.5 1.3.2 1.1zm.5.2c.3.4.5-.9.5-.9s-1 .5-.5.9zm-2.1-.1s.7 1.1 1 .3c.2-.6-1-.3-1-.3zm-2.1 9.5h0 .2c.1 0 .2-.1.3-.1.1-.1.1-.2.1-.3 0 0 0-.1-.1-.1h0 0-.1l-.5-.1c.2-.1.3-.1.5-.2h0l.2-.1h0l.2-.2c.1-.1.2-.2.2-.3v-.2-.1h0v-.1h0v-.1h0v-.1h0l-.1-.1h0l-.1-.1h0-.1 0 .1.1l.1-.1.1-.1h0v-.1h0v-.1h0v-.1h0v-.1h0v-.1h0v-.1h0l-.1-.1h0c-.2-.2-.4-.4-.5-.4.2-.3.3-.7.4-1.1v-.2h0v-.2h0c0-.1-.1-.2-.1-.4h0c-.1-.1-.1-.2-.2-.2-.2-.1-.5-.1-.7-.1.1-.1.2-.3.1-.5-.1-.1-.3-.2-.4-.1v-.3c0-.1-.1-.1-.1-.1h-.1c.1-.5-.1-1-.6-1.2s-1-.1-1.4.2c0-.1-.2-.2-.3-.2h0c.1-.1 0-.2-.1-.3h0c-.1 0-.2 0-.3.1 0-.2-.1-.4-.1-.6 0-.1 0-.2-.1-.2h-.3c-.1 0-.2.1-.3.1h-.1l-.2.1-.1.1-.1.1h0 0 0l-.1.1-.1.1h0l-.1.4h0 0v.1l-.1.1v.1h0 0l-.1.1h0 0v.1c0 .1 0 .1-.1.2h0 0l-.1.2c0 .1 0 .1-.1.1l-.1.1c-.1.1-.1.2-.1.3a1.38 1.38 0 0 0-.3.4c0-.1-.1-.2-.2-.3h0 .2 0-.1-.9-.1 0-.1 0l-.1.1-.1.1h0l-.1.1h0s0 .1-.1.1c-.2.5.1 1.1 0 1.6-.1 0-.1.1-.1.2s.1.2 0 .3c-.1-.1-.2 0-.3.1v.1c0-.1-.1-.1-.2-.1-.1.1-.1.2-.1.3v.5h0v.1.2.1.2.1l.1.2h0l.1.2v.1s0 .1.1.1v.1l.2.2c-.1.1-.1.2 0 .3h0c-.1-.1-.3 0-.3.1 0 .2 0 .3.1.4.5.6 1.3.8 2 .6-.1 0-.1.1-.1.2.3.1.6.1.9 0l.4.1c.2 0 .4 0 .6-.1l.3.3c-.1.3-.3.5-.5.5h1c-.1-.2-.2-.5-.2-.8 0-.1.1-.2.1-.3h.7c.1 0 .3 0 .4-.1.7.3 1.5.3 2.3.2zm-4.7-.2h-.2l.5-.2.1.1c.1 0 .1.1.2.1-.2.1-.4.1-.6 0zm.5-.3h0c.1-.1.2-.1.3-.2v.1c0 .1.1.3.1.4a1.38 1.38 0 0 0-.4-.3zm.5.1v-.4h.1l.3.1-.4.4v-.1zm1 0h-.6 0l.2-.2.7.2h-.3 0z"/><path d="M173.9 382.5c.2.3.6-.6.6-.6s-.9.2-.6.6zm-.1-.5c.4.1.2-.8.2-.8s-.6.7-.2.8zm-2.9-1.6c.4.2.3-.8.3-.8s-.7.6-.3.8zm-.3-.4c.4-.1-.2-.8-.2-.8s-.3 1 .2.8zm-3.6 1.7c.4-.1-.1-.8-.1-.8s-.3 1 .1.8zm.8-.5s-.7.4-.4.7.4-.7.4-.7zm-1.2.8c.2-.4-.8-.3-.8-.3s.5.9.8.3zm14.2-19.8c.2.3.6-.6.6-.6s-.9.2-.6.6zm-.1-.5c.4.1.2-.8.2-.8s-.7.7-.2.8zm-4.5-2.5c.4.1.2-.8.2-.8s-.7.6-.2.8zm-.4-.4c.4-.1-.3-.8-.3-.8s-.1 1 .3.8zm-3.8 1c.3-.2-.4-.7-.4-.7s0 .9.4.7z"/><path d="M172.4 359.8c.4.1.2-.8.2-.8s-.6.6-.2.8zm-.6.4c0-.4-.8 0-.8 0s.8.5.8 0zm-3.7 4c.3-.3-.6-.5-.6-.5s.3.8.6.5zm.5-.1c.4.1 0-.8 0-.8s-.5.7 0 .8zm11.9.9h.7v24.9h-.7zm-10.4-.5h.7V390h-.7zm8.3 0h.7V390h-.7zm-4.6-13.7l-9.6 13.6v25.5h.9v-25.5l9.7-13.6z"/><path d="M164.5 364h22.2l-.8-1h-20.7z"/></g><path d="M220.8 350.2h-43.5l11.2 13.1H232z" fill="#2bb3cf"/><path d="M188.8 362.9l-10.9-12.7h-.6l11.2 13.1H232l-.4-.4z" class="AA"/><path d="M220.9 350.2h-42.8c.2.3.5.5.8.7 4.4 2.8 16.4 5.8 30.6 7.4 6.3.7 12.7 1.1 19 1l-7.6-9.1z" fill="#44c6de"/><g class="AA"><path d="M231.3 363.3h.7l-11.2-13.1h-.7zm-33.9-.2l11.2-12.9h-.7l-11.1 12.9zm-5.7-12.9l-7 8.3.3.4 7.4-8.7z"/><path d="M191.3 350.2l11 12.8h.7l-11-12.8zm16.3 0l11 12.8h.7l-11-12.8z"/><path d="M209.6 363.3h1.2l9.3-13.1h-1z"/><path d="M221.9 362c0-.3-.1-.5-.2-.7l-.3-.3c-.1-.1-.2-.1-.3-.2h0l-.1-.1h0c-.1-.1-.1-.2-.1-.3v-.1l-.1-.9v-.1c0-.1 0-.2-.1-.3l-.1-.1h0 0 0 0 0-.1-.1-.1-.6c0-.1 0-.2-.1-.2-.1-.1-.2-.1-.3 0v-.4h0v-.2c0-.1 0-.2-.1-.3 0-.1 0-.1-.1-.2h0 0 0 0c0-.1-.1-.2-.1-.4l-.1-.1-.1-.1h0 0l-.1-.1v-.1-.1l-.1-.1-.1-.1-.1-.1v-.1l-.2-.2c-.1-.1-.2-.2-.4-.2h0c-.7-.5-1.6-.5-2.3-.1-.1.1-.1.1-.2.1h-.1-.1s-.1 0-.1-.1h-.1-.1c.1-.2-.1-.4-.4-.5-.2-.1-.4-.2-.7-.2h.3c-.2 0-.3.1-.4.2l-.1.1c0 .1-.1.2-.2.3-.2.3-.6.3-.9.5s-.2.3-.4.4-.4.1-.6.1c-.2.1-.3.3-.2.5-.7-.2-1.4 0-1.9.4-.5.5-.9 1-1.1 1.7 0 .1-.1.2-.1.3v.3c0 .1.1.2.1.3.1.1.1.2.1.3.1.2-.1.6-.3.5l-.1-.1h-.1-.1-.2c-.1 0-.1 0-.2.1l-.2.1c-.2.1-.3.3-.4.5-.2.3-.3.5-.4.8 0 .1-.1.2-.1.3v.1h0v.1h0v.1h0v.1h0v.1h0 0v.1h0 0v.1h0 15.7v-.1c.2-.4.1-.9 0-1.3zm-2.1-3.6c.2.3.6-.5.6-.5s-.9.1-.6.5z"/><path d="M219.6 357.9c.4.1.2-.8.2-.8s-.6.7-.2.8zm-4.4-2.5c.4.1.2-.8.2-.8s-.7.6-.2.8zm-.4-.4c.4-.1-.3-.8-.3-.8s-.2.9.3.8zm-3.8 1c.4-.2-.4-.7-.4-.7s-.1.9.4.7z"/><path d="M211.4 356c.4.1.2-.8.2-.8s-.6.6-.2.8zm-.6.4c0-.4-.8 0-.8 0s.8.5.8 0zm-3.7 4c.3-.3-.6-.5-.6-.5s.3.8.6.5zm.4-.1c.4.1 0-.8 0-.8s-.4.7 0 .8z"/></g><path d="M164.3 364.5h22.8v.8h-22.8zm0 24.7h22.8v.8h-22.8z" class="AB"/><g class="w"><path d="M163.8 363.9h23.7v.8h-23.7z"/><path d="M169.6 364.5h.7v25.9h-.7zm8.3 0h.7v25.9h-.7z"/></g><path d="M192.3 349.9h-.7l12 13.9h.6zm16.3 0h-.7l12 13.9h.7z" class="y"/><path d="M224 385h4.9v1.4H224z" class="z"/><path d="M228.2 384.4h0c.4 0 .7.3.7.6v1.3a.65.65 0 0 1-.6.6h-.1a.65.65 0 0 1-.6-.6V385c0-.4.3-.6.6-.6zm-16.3 0h0c.4 0 .7.3.7.6v1.3a.65.65 0 0 1-.6.6h-.1a.65.65 0 0 1-.6-.6V385c0-.4.2-.6.6-.6zm12.8 0h0c.4 0 .7.3.7.6v1.3a.65.65 0 0 1-.6.6h-.1a.65.65 0 0 1-.6-.6V385c-.1-.4.2-.6.6-.6zm-19.9-16.2c.1.4.5.7.9.6s.7-.5.6-.9-.4-.6-.8-.6a.75.75 0 0 0-.7.9z" fill="#30393d"/><path d="M212.2 386.3h-1.4c-1.6 0-2.9-1.3-2.9-2.8h0v-13.1c0-.8-.6-1.4-1.4-1.4h0-.8a.68.68 0 0 1-.7-.7h0 0a.68.68 0 0 1 .7-.7h.8c1.6 0 2.9 1.3 2.9 2.9h0v13.1c0 .8.6 1.4 1.4 1.4h0 1.4a.68.68 0 0 1 .7.7h0 0c.1.3-.2.6-.7.6h0z" class="z"/><path d="M212.2 384.9h-1.4c-.8 0-1.4-.6-1.4-1.4h0v-10.6c-.2 1.2-.6 2.4-1.4 3.3v7.3c0 1.6 1.3 2.9 2.8 2.9h0 1.4c.4 0 .8-.2.8-.6s-.2-.8-.6-.8c0-.1-.1-.1-.2-.1z" fill="#30393d"/><path d="M214.5 362h7.7c1.5 0 2.8 1.2 2.8 2.8v21.8c0 1.5-1.2 2.8-2.8 2.8h-7.7c-1.5 0-2.8-1.2-2.8-2.8v-21.8c.1-1.5 1.3-2.8 2.8-2.8z" class="AD"/><path d="M217.9 387.5c-.7 0-1.2-.5-1.2-1.2h0V362H213c-.7 0-1.2.6-1.2 1.2V388c0 .7.6 1.2 1.2 1.2h10.8c.7 0 1.2-.6 1.2-1.2v-.6l-7.1.1z" fill="#d9cdb1"/><path d="M212.1 369.3c-.1 0-.2 0-.3.1v18.7c0 .7.6 1.2 1.2 1.2h1.1a38.37 38.37 0 0 0 .9-8.3c0-6.5-1.3-11.7-2.9-11.7z" fill="#e3d9c0"/><use xlink:href="#B" class="w"/><path d="M216.2 364.3h3c1.2 0 2.1 1 2.1 2.1v17c0 1.2-1 2.1-2.1 2.1h-3c-1.2 0-2.1-1-2.1-2.1v-17c-.1-1.2.9-2.1 2.1-2.1z" fill="#a1c6cc"/><path d="M223.8 384.2v-4.7c-1.5-.3-3-.8-4.4-1.3-.3-.1-.6-.2-.9-.2-.4.1-.8.2-1.2.5-1.3.7-2.9 1-4.4.9v4.8c-.1.7.4 1.3 1.1 1.4h8.8c.6-.1 1.1-.7 1-1.4z" fill="#40bdcf"/><path d="M220.6 385c-2.9 0-5.3-2.5-5.8-5.7-.7.1-1.3.1-2 .1v4.8c-.1.7.4 1.3 1.1 1.4h8.8c.7-.1 1.1-.7 1.1-1.4v-.3c-.9.7-2 1.1-3.2 1.1z" fill="#18b4c2"/><path d="M218.5 378c-.4.1-.8.2-1.2.5-1.3.7-2.9 1-4.4.9v.5c1.5.2 3.1.3 4.7.3 2.1 0 4.2-.2 6.2-.6h0c-1.5-.3-3-.8-4.4-1.3-.3-.2-.6-.3-.9-.3z" fill="#00a6b3"/><path d="M222.6 385.7h-8.5c-.7 0-1.3-.6-1.3-1.3h0v-19.7c0-.7.6-1.3 1.3-1.3h0 8.5c.7 0 1.3.6 1.3 1.3h0v19.7c.1.7-.5 1.3-1.3 1.3h0zm-8.5-22.1a1.11 1.11 0 0 0-1.1 1.1v19.7a1.11 1.11 0 0 0 1.1 1.1h8.5a1.11 1.11 0 0 0 1.1-1.1v-19.7a1.11 1.11 0 0 0-1.1-1.1h-8.5z" class="z"/><g class="AD"><path d="M221.2 364.3h.3c.6 0 1.2.5 1.2 1.2v6.1c0 .6-.5 1.2-1.2 1.2h-.3c-.6 0-1.2-.5-1.2-1.2v-6.1c.1-.7.6-1.2 1.2-1.2zm0 9.8h.3c.6 0 1.2.5 1.2 1.2v1.2c0 .6-.5 1.2-1.2 1.2h-.3c-.6 0-1.2-.5-1.2-1.2v-1.2c.1-.6.6-1.2 1.2-1.2z" class="u v"/><path d="M231.2 362h7.7c1.5 0 2.8 1.2 2.8 2.8v21.8c0 1.5-1.2 2.8-2.8 2.8h-7.7c-1.5 0-2.8-1.2-2.8-2.8v-21.8c0-1.5 1.3-2.8 2.8-2.8z"/></g><path d="M234.6 387.5c-.7 0-1.2-.6-1.2-1.2V362h-3.6c-.7 0-1.2.5-1.2 1.2h0V388c0 .7.6 1.2 1.2 1.2h0 10.7c.7 0 1.2-.5 1.2-1.2h0v-.6l-7.1.1z" fill="#d9cdb1"/><path d="M228.7 369.3c-.1 0-.2 0-.3.1v18.7c0 .7.6 1.2 1.2 1.2h0 1.1c.6-2.7.9-5.6.9-8.4 0-6.4-1.3-11.6-2.9-11.6z" fill="#e3d9c0"/><use xlink:href="#B" x="16.7" class="w"/><path d="M232.8 364.3h3c1.2 0 2.1 1 2.1 2.1v17c0 1.2-1 2.1-2.1 2.1h-3c-1.2 0-2.1-1-2.1-2.1v-17c0-1.2.9-2.1 2.1-2.1z" fill="#a1c6cc"/><path d="M240.5 384.2v-17.8c-1.5-.3-3-.8-4.4-1.3-.3-.1-.6-.2-.9-.2-.4.1-.8.2-1.2.5-1.4.7-2.9 1-4.4.9v17.9c-.1.7.4 1.3 1.1 1.4h8.8c.6-.1 1.1-.7 1-1.4z" fill="#40bdcf"/><path d="M231.6 366.2c-.7.1-1.3.1-2 .1v17.9c-.1.7.4 1.3 1.1 1.4h8.8c.7-.1 1.1-.7 1.1-1.4v-.3c-1 .7-8.9 1.2-9-17.7z" fill="#18b4c2"/><path d="M235.2 364.9c-.4.1-.8.2-1.2.5-1.4.7-2.9 1-4.4.9v.5c1.5.2 3.1.3 4.7.3 2.1 0 4.2-.2 6.2-.6h0c-1.5-.3-3-.8-4.4-1.3-.3-.2-.6-.3-.9-.3z" fill="#00a6b3"/><path d="M239.3 385.7h-8.5c-.7 0-1.4-.6-1.4-1.4h0v-19.7c0-.7.6-1.4 1.3-1.4h0 8.5c.7 0 1.4.6 1.4 1.4h0v19.7c0 .8-.6 1.4-1.3 1.4h0zm-8.5-22.1a1.11 1.11 0 0 0-1.1 1.1h0v19.7c0 .6.5 1.1 1 1.1h0 8.5a1.11 1.11 0 0 0 1.1-1.1h0v-19.7c0-.6-.5-1.1-1-1.1h0-8.5z" class="z"/><g class="AD u"><path d="M237.9 364.3h.3c.6 0 1.2.5 1.2 1.2v6.1c0 .6-.5 1.2-1.2 1.2h-.3c-.6 0-1.2-.5-1.2-1.2v-6.1c0-.7.5-1.2 1.2-1.2zm0 9.8h.3c.6 0 1.2.5 1.2 1.2v1.2c0 .6-.5 1.2-1.2 1.2h-.3c-.6 0-1.2-.5-1.2-1.2v-1.2c0-.6.5-1.2 1.2-1.2z" class="v"/><circle cx="216.9" cy="384.5" r=".3" class="v"/><path d="M221.5 381.4c0-.2-.1-.3-.3-.3s-.3.1-.3.3.1.3.3.3.3-.1.3-.3h0z" class="v"/><circle cx="222.1" cy="382.6" r=".1" class="v"/><circle cx="214.7" cy="381" r=".1" class="v"/><circle cx="223.1" cy="380.6" r=".1" class="v"/><circle cx="219" cy="383.6" r=".2" class="v"/><path d="M222.1 384.9c0-.1 0-.2-.1-.2s-.2 0-.2.1v.1c0 .1.1.2.2.2h0s.1-.1.1-.2h0zm-4.6-4.2c0-.1-.1-.2-.2-.2s-.2.1-.2.2.1.2.2.2.2-.1.2-.2z" class="v"/><circle cx="215.4" cy="384.4" r=".2" class="v"/><path d="M218 383.5c0-.1-.1-.2-.2-.2h0c-.1 0-.2.1-.2.2h0c0 .1.1.2.2.2h0c.1 0 .2-.1.2-.2zm2.3-3c0-.1-.1-.2-.2-.2s-.2.1-.2.2h0c0 .1.1.2.2.2h0c.1 0 .2-.1.2-.2h0z" class="v"/><circle cx="220.2" cy="384.7" r=".2" class="v"/><path d="M216 381.9c0-.1-.1-.2-.2-.2h0c-.1 0-.3.1-.3.2s.1.3.2.3h.1c.1 0 .2-.1.2-.3h0zm17.1 2.5c0-.2-.1-.3-.3-.3s-.3.1-.3.3.1.3.3.3.3-.2.3-.3zm4.2-3.2c0-.2-.1-.3-.3-.3s-.3.1-.3.3.1.3.3.3h0c.1.1.3-.1.3-.3zm-1.9-5.7c0-.2-.1-.3-.3-.3s-.3.1-.3.3.1.3.3.3h0c.1 0 .2-.1.3-.3z" class="v"/><circle cx="237.9" cy="382.5" r=".1" class="v"/><path d="M230.6 380.8c0-.1-.1-.1-.1-.1-.1 0-.2.1-.2.1 0 .1.1.2.1.2h0c.2 0 .3-.1.2-.2z" class="v"/><circle cx="238.9" cy="380.5" r=".1" class="v"/><use xlink:href="#C" class="v"/><path d="M237.9 384.7c0-.1-.1-.2-.2-.2s-.2.1-.2.2.1.2.2.2h0c.1 0 .2-.1.2-.2zm-4.6-4.1c0-.1-.1-.2-.2-.2s-.2.1-.2.2h0c0 .1.1.2.2.2h0c.1 0 .2-.1.2-.2h0z" class="v"/><use xlink:href="#C" x="-3.6" y="0.8" class="v"/><circle cx="233.6" cy="383.3" r=".2" class="v"/><circle cx="235.9" cy="380.4" r=".2" class="v"/><path d="M236.3 384.6c0-.1-.1-.2-.2-.2s-.2.1-.2.2.1.2.2.2.2-.1.2-.2zm2.5-8.8c0-.1-.1-.1-.1-.1-.1 0-.2.1-.2.1h0c0 .1.1.1.1.1.2 0 .2 0 .2-.1z" class="v"/><use xlink:href="#C" x="3.7" y="-5.5" class="v"/><use xlink:href="#C" x="2.1" y="-5.6" class="v"/><path d="M231.8 381.8c0-.1-.1-.2-.2-.2s-.2.1-.2.2.1.2.2.2.2-.1.2-.2zm2-11.3c-.2.1-.2.3-.2.4.1.2.3.2.4.2.2-.1.2-.3.2-.4h0c-.1-.2-.3-.3-.4-.2zm-1.6 4.5c-.1 0-.1.2-.1.2 0 .1.2.1.2.1.1 0 .1-.2.1-.2 0-.1-.1-.1-.2-.1h0zm2.2 2.9c-.1 0-.1.2-.1.2 0 .1.2.1.2.1.1 0 .1-.2.1-.2 0-.1-.1-.1-.2-.1zm-1.9-1.8c-.1.1-.2.2-.1.3h0c0 .1.2.2.3.1h0c.1-.1.2-.2.1-.3 0-.1-.2-.1-.3-.1h0 0zm-.5 2.5c-.1.1-.2.2-.1.3s.2.2.3.1.2-.2.1-.3h0c0-.1-.2-.1-.3-.1z" class="v"/><circle cx="237" cy="369.1" r=".3" class="v"/><path d="M235.8 372.5c0-.2-.1-.3-.3-.3h0c-.2 0-.3.1-.3.3s.1.3.3.3.3-.1.3-.3z" class="v"/><circle cx="237.9" cy="370.3" r=".1" class="v"/><circle cx="237.5" cy="374.4" r=".1" class="v"/><path d="M230.6 368.7c0-.1-.1-.1-.1-.1-.1 0-.1.1-.1.1 0 .1.1.1.1.1.1 0 .1 0 .1-.1h0z" class="v"/><circle cx="238.9" cy="368.3" r=".1" class="v"/><path d="M233.3 368.4c0-.1-.1-.2-.2-.2s-.2.1-.2.2.1.2.2.2h0c.1 0 .2-.1.2-.2z" class="v"/><circle cx="235.9" cy="368.2" r=".2" class="v"/><path d="M231.8 369.6c0-.1-.1-.2-.2-.2s-.2.1-.2.2.1.2.2.2c.1.1.2 0 .2-.2h0z" class="v"/></g><path d="M208.9 388.2h16.6c.4 0 .6.3.6.6v.1c0 .4-.3.6-.6.6h-16.6c-.4 0-.6-.3-.6-.6v-.1c-.1-.3.2-.6.6-.6zm18.3 0h14.5c.4 0 .6.3.6.6v.1c0 .4-.3.6-.6.6h-14.5c-.4 0-.6-.3-.6-.6v-.1a.65.65 0 0 1 .6-.6z" class="z"/><path d="M192.3 389h51.4v1.9h-51.4z" class="w"/><path d="M192.3 389h18.9v1.9h-18.9z" fill="#90b9c0"/><path d="M183.3 360l-2.7 3.1h.7l2.3-2.7z" class="AB"/><g class="w"><path d="M176.9 382.5h1.2v.3h-1.2zm0-8.2h1.2v.3h-1.2z"/><path d="M176.8 373.7h.5v9.5h-.5z"/></g><path d="M284.3 374.1S.3 366.1 0 558.6h283.8l.5-184.5z" fill="#3eba82"/><path d="M100.9 420.8c1-1.6 1.3-3.5.7-5.3a3.2 3.2 0 0 0-3.6-2.1c0-2.2-1.8-3.8-3.6-3.2a6.11 6.11 0 0 0-.2-6c-1.1-1.4-3.2-1.7-4.7-.6 0 0-.1 0-.1.1-.6-2.3-2.8-3.8-5.1-3.7-2.2.2-4.4 2.1-5.5 4.8-1.2-1.7-3.9-1-4.9 1.2-.8-1.5-2.7-2.2-4.3-1.7-1.8.8-3.2 2.4-3.6 4.4-2.6-1.4-6.5 1.4-7 5.1 11.6 2.5 23.3 4.6 41.9 7z" class="x"/><path d="M284.5 560.5S306.4 429.3 0 401v159.5h284.5z" fill="#e0c36c"/><path d="M.3 406.8l.5-5.1c25.3 9.5 70.7 32.5 96.8 49.4 42.1 27.4 81.2 45.7 117.6 80.2-13.9.5-27.7 2.4-41.2 5.7-45.4-60.4-105.5-91.7-174-124.6l.3-5.6zm51.4 1.4h0c27.7 11.6 64.2 25.5 90.8 42.9 48 31.5 77.3 46.1 118.8 85.5-14.1-5.8-25.1-8.3-37.6-9.2-57.6-60.3-122.3-84.1-202.1-123.4h0l30.1 4.2zM.3 433.7l.5-8.9c20.8 11.2 36.1 18.6 63.4 35 42.1 27.4 67.6 49.6 104 84.1-13.9.5-18.8.5-32.3 3.7-54.3-61.4-66.5-64.2-135-97l-.6-16.9zm0 39.5v-11.5c25.3 9.5 31.8 15.9 59 32.2 42.1 27.4 45.8 30.1 82.1 64.5l-41.5.1C82.6 532.2 41.2 502 .3 488.3v-15.1zm143.1-42.7h0c29.7 13.8 67 31.2 92.8 49.3 14.6 10.5 9.8 8.7 46.9 43.3-13.2-3.1-19.4-4.5-31.8-5.9-55.2-53.3-76-56.2-153.7-99.5l16.6 3.6 29.2 9.2z" fill="#ddb46c"/><path d="M263.4 512.5a10.44 10.44 0 0 0-4-9.7 8.43 8.43 0 0 0-9.6 0c-1.7-3.1-5.6-4.2-8.7-2.5-.8.5-1.6 1.1-2.1 1.9-5.1-7.5-16.6-7.9-22.4-.6.1-2.7-1.4-5.3-3.8-6.5-2.5-1-5.2-.2-6.9 1.9-.3-6.2-5-11.6-10.5-11.9s-11 4.6-12.1 10.7c-4.4-3.8-11.1-3.5-15.1.8-1-3.9-5-6.2-8.9-5.2-.2 0-.4.1-.5.2-3.8 1.3-6.5 5.3-7.9 9.5s-1.4 8.8-1.6 13.2c38.8.3 73.4 5.3 111.6 12.5-.9-4.4 1.2-4.3 2.5-14.3z" class="AC"/><path d="M86.8 448.4h68.4v28.7H86.8z" class="AE"/><path d="M155.2 448.4l-29.8 28.7 59.6 5.3v-5.3z" fill="#9c2740"/><path d="M86.8 448.4L57 477.1h59.6z" class="AE"/><path d="M57 477.2h75v30.5H57z" fill="#94214f"/><path d="M185 481.5v25.7h-59.6V482l29.8-28.2z" fill="#d4375c"/><path d="M96.4 450.8h37.3l-23.6 23H75.4z" fill="#41859a"/><path d="M96.6 451.3h36l-22.8 22.1H76.3z" fill="#1f4e59"/><path d="M96.8 451.7h35.4l-22.4 21.7H76.9z" fill="#41a7c0"/><path d="M97.6 451.7h11.2l-5.9 21.7H90.6zm13 0h2.7l-3.7 21.7h-3.8z" fill="#56c0d7"/><g fill="#41859a"><path d="M124.8 451.2h.5l-21.2 22.3h-.5zm-7.1 0h.5L97 473.5h-.5zm-7.1 0h.5l-21.2 22.3h-.5zm-7.1 0h.5l-21.2 22.3h-.5z"/><path d="M90.1 458.1l.4-.4h35.9l-.4.4zm-7.3 7.6l.4-.4h35.3l-.4.4z"/></g><path d="M78.8 479.8H91V496H78.8z" fill="#271329"/><path d="M152.4 461.8h5.9v9.8h-5.9z" class="AE"/><path d="M153.1 463h4.4v7.4h-4.4z" fill="#271329"/><path d="M7.8 498.4c0-3.6 2-6.9 5.2-8.6 3.1-1.5 6.9-.9 9.5 1.4a12.84 12.84 0 0 1 8.5-10.5c4.6-1.3 9.6.3 12.6 4 1.7-2.1 4.4-2.9 7-2.1 2.6.9 4.5 3.2 4.9 5.9 3.9-3.7 9.8-4.4 14.5-1.7 4.7 3.1 7.2 8.6 6.4 14.2-23.6-1.6-47.2-1.6-68.6-2.6z" class="x"/><path d="M0 496.7c183.3-3.1 281.6 30.6 281.6 30.6l1.7 33.1H0v-63.7z" fill="#3cbf80"/><g class="x u"><path d="M85.2 516.2L62 506.7l-6.7.3 17.1 9.2z" opacity=".5"/><path d="M49.5 507.3l-20.6 1.3 1.3-1.7 56-2.5 3.4 1.1z" opacity=".5"/></g><path d="M72.4 516.2c2.2.7 4.5 1 6.8 1 4.9 0 6-1 6-1l-4.9-129.8h-3.4l-4.5 129.8z" fill="#fff"/><g fill="#c6d9f2"><path d="M76.6 382.6h4.1a1.79 1.79 0 0 1 1.8 1.8v2.6a1.79 1.79 0 0 1-1.8 1.8h-4.1a1.79 1.79 0 0 1-1.8-1.8v-2.6a1.79 1.79 0 0 1 1.8-1.8z"/><path d="M78.7 388.8l-5 127.8-1.6-.4 4.7-127.4z"/></g><path d="M82.3 381.6l-.4-2.5 3.4-.6 2.4-3.9 61.2-6.3c.4 0 .9.1 1.2.3l.7.5c.2.1.3.3.4.6l.1.6-69 11.3zm-7.1 2.9l2.3 1.1-1.4 3.1 1.9 4.2-29.1 54.3c-.2.4-.5.7-.9.8l-.8.3c-.2.1-.4.1-.7 0l-.5-.2 29.2-63.6zm1.3-7.2l-1.9 1.7-2.3-2.6h-4.6l-37.6-48.8c-.3-.3-.4-.8-.4-1.2v-.8c0-.2.1-.4.3-.6l.5-.4 46 52.7z" fill="#fff"/><circle cx="78.6" cy="381.6" r="4.8" fill="#eef8f5"/><path d="M254 0h32 0v560.4h0-32c-8.8 0-16-7.2-16-16V16c0-8.8 7.2-16 16-16z" fill="#fff"/><path d="M279.1 560.4c4-3.2 4.7-10.3 1.5-14.6-2.6-3.4-7.5-4.2-10.9-1.6a7.69 7.69 0 0 0-1.8 1.8c1.6-6.5-1.4-14.3-6.5-17.2s-12-.6-15.1 5.1c-4.7-5.9-14-4.7-17.4 2.2-4.3-6-9.9-11.2-16.5-12.5-7.1-1.3-14.1 2.7-16.5 9.5a13.52 13.52 0 0 0-16.9 3.3c-2-9.4-15.3-16.9-24.4-15.2-8.3 1.7-12.2 7.8-12.2 14-3.8-2.8-9-2.5-12.4.8-3.5 3.3-5 9.2-3.6 14.3-6.2-.6-8.9 2.6-8.2 10h94.4l66.5.1z" class="AC"/><path d="M260.7 534.5c-.2-.1-.5.1-.6.3a130.34 130.34 0 0 1-2.7 12.4l-1.8-6.3c-.1-.2-.3-.4-.6-.3h0c-.2.1-.4.3-.3.6l2.2 7.7s0 .1.1.1l-2.8 9.1c-2-2.8-4.1-5.6-6.2-8.3.5-3.4.6-6.9.1-10.3 0-.3-.3-.4-.5-.4h0c-.2 0-.4.3-.4.5.4 3 .4 6.1 0 9.2a128.1 128.1 0 0 0-6.9-7.8h0c-.2-.2-.5-.2-.7 0s-.2.5 0 .6c5.3 5.5 10.1 11.4 14.4 17.7l.5.8.3-.9a145.99 145.99 0 0 0 6.3-24.2c-.1-.2-.2-.4-.4-.5zm-51.1 9.2c-.2-.1-.5 0-.6.2-2.4 4-4.5 8.1-6.5 12.3-1.1-2.2-2.1-4.4-3-6.7 1.7-3.6 3-7.5 3.8-11.4.1-.3-.1-.5-.4-.5-.3-.1-.5.1-.6.4a54.99 54.99 0 0 1-3.4 10.4c-1.3-3.4-2.5-6.9-3.4-10.5-.1-.2-.3-.4-.6-.3s-.4.3-.3.6a91.07 91.07 0 0 0 3.8 11.5c-.1.2 0 .4.2.5 1 2.5 2.1 5 3.4 7.5.1.2.2.3.4.2h.1.2c.2-.1.3-.3.2-.4 2-4.5 4.3-8.8 6.8-13 .2-.4.2-.7-.1-.8zm-52.8-6.7c.1-.3-.1-.6-.4-.7s-.6.1-.7.4c-1.3 6.3-3.4 12.4-6.1 18.2-2.9-4.3-6.2-8.4-9.8-12.1a.61.61 0 0 0-.8 0 .61.61 0 0 0 0 .8c4.6 4.7 8.6 9.9 12 15.6a.55.55 0 0 0 .5.3c.1 0 .2 0 .3-.1h0c.3-.2.4-.5.2-.8-.5-.9-1.1-1.8-1.6-2.6 2.8-6 5-12.4 6.4-19h0z" fill="#0b474f"/><defs ><path id="B" d="M215.6 363.5h5.5a2.69 2.69 0 0 1 2.7 2.7V383a2.69 2.69 0 0 1-2.7 2.7h-5.5a2.69 2.69 0 0 1-2.7-2.7v-16.8a2.69 2.69 0 0 1 2.7-2.7z"/><path id="C" d="M235 383.5c0-.1-.1-.2-.2-.2s-.2.1-.2.2.1.2.2.2.2-.1.2-.2h0z"/></defs></svg>