<svg xmlns="http://www.w3.org/2000/svg" viewBox="0 0 1600 228.09"><defs><style>.cls-1{fill:#edeff3;}.cls-2{fill:#e6e9ed;}.cls-3{fill:#dde3e8;}.cls-4{fill:#e8ebef;}.cls-5{fill:#dfe3e8;}.cls-6{fill:#f2f4f9;}.cls-7{fill:#ebeef2;}.cls-8{fill:#f0f2f7;}</style></defs><g id="Layer_2" data-name="Layer 2"><g id="Login_background"><g id="Login_background-2" data-name="Login_background"><g id="Langit"><polygon class="cls-1" points="1599.5 227.09 0 228.09 0 0 1597.34 0 1599.5 227.09"/></g><path class="cls-2" d="M1220.11,155.34a119.12,119.12,0,0,0,22.7,1.86,79.84,79.84,0,0,0,10.58-1.07,45.7,45.7,0,0,0,9.26-2.85c3.22-1.25,7.17-1.45,10.54-2.33a68.22,68.22,0,0,0,19.79-8.23c1.69-1.09,4-2.65,4.57-4.7.53-1.82-1.39-3.75-3-4.43-2.11-.9-5,.11-5.58,2.32a1.46,1.46,0,0,0-2.63.19,1.06,1.06,0,0,0-1.62.8,1.21,1.21,0,0,0-1.93-.75,2.19,2.19,0,0,0-2.5-3.56,3.92,3.92,0,0,0-7.14-.51,1.58,1.58,0,1,0-2.53-1.89,2.28,2.28,0,0,0-4.27-1.55c-.23-2-.56-4.12-2-5.45s-4.44-1-4.79,1a2.54,2.54,0,0,0-2.06-1.47c-.89,0-1.75.92-1.42,1.74a2.12,2.12,0,0,0-3,3,1.72,1.72,0,0,0-2,2.73,1.08,1.08,0,0,0-2.09.53,2.48,2.48,0,0,0-4.87.95,1.52,1.52,0,0,0-3-.12,2.21,2.21,0,1,0-4.39-.08,1.5,1.5,0,0,0-2.45.55,3.86,3.86,0,0,0-7.71.45,1.79,1.79,0,0,0-2.88,1.39,2.33,2.33,0,1,0-4.42,1.32,1.42,1.42,0,0,0-2,1.07c-.5-1.24-2.83-.69-2.72.64a2.18,2.18,0,0,0-4.33-.18,3.23,3.23,0,0,0-5.72-1.72c.37-.39-.18-1-.68-1.14a5.57,5.57,0,0,0-6.24,2.6,7.93,7.93,0,0,0-.2,7A13.94,13.94,0,0,0,1202,149C1207.16,152.81,1213.72,154.28,1220.11,155.34Z"/><path class="cls-2" d="M54.94,92.75c.15-.54.65-.51.77,0L56.57,96l-.53.21c-.12,0-.08.17.05.17h.58l2.08,8-1.2.48c-.14.07-.11.19.06.17h1.31l1.36,5.25H50.37l2.39-9.2h.74c.15,0,.16-.12.06-.18l-.66-.37Z"/><path class="cls-2" d="M88.05,88c-.21-.72-.88-.69-1,0l-1.15,4.45.72.27c.16.06.11.23-.07.23h-.78L82.9,103.75l1.63.65c.18.09.15.26-.09.24l-1.76,0-1.84,7.07H94.22L91,99.29H90c-.2,0-.21-.16-.08-.23l.89-.51Z"/><path class="cls-2" d="M19.38,80.51c-.31-1-1.28-.92-1.52,0l-1.68,5.92,1,.36c.23.09.16.31-.1.31H16l-4.08,14.45,2.35.86c.27.12.22.34-.12.32l-2.56,0-2.66,9.43h19.4L23.64,95.59H22.18c-.28,0-.3-.2-.11-.31l1.29-.67Z"/><path class="cls-3" d="M69.82,125.06a104,104,0,0,1-19.65,2.48,67.65,67.65,0,0,1-9.23-.52,39.83,39.83,0,0,1-8.16-2.12c-2.84-1-6.28-1-9.24-1.62A59.22,59.22,0,0,1,6,116.88C4.52,116,2.47,114.73,1.88,113c-.53-1.56,1.06-3.3,2.45-4,1.8-.85,4.35-.09,4.94,1.81a1.27,1.27,0,0,1,2.29.07.92.92,0,0,1,1.44.63,1.05,1.05,0,0,1,1.65-.73,1.9,1.9,0,0,1,2-3.18,3.4,3.4,0,0,1,6.18-.72A1.38,1.38,0,1,1,25,105.14a2,2,0,0,1,3.65-1.51c.12-1.72.33-3.6,1.56-4.81s3.82-1,4.19.67a2.24,2.24,0,0,1,1.74-1.35c.77,0,1.56.73,1.3,1.45a1.85,1.85,0,0,1,2.74,2.48,1.49,1.49,0,0,1,1.83,2.3.94.94,0,0,1,1.84.37,2.16,2.16,0,0,1,4.27.65,1.32,1.32,0,0,1,2.62-.22,1.92,1.92,0,1,1,3.81-.25,1.3,1.3,0,0,1,2.14.39,3.37,3.37,0,0,1,6.73.1A1.55,1.55,0,0,1,66,106.5a2,2,0,1,1,3.9,1,1.24,1.24,0,0,1,1.79.86c.38-1.1,2.42-.71,2.38.45a1.9,1.9,0,0,1,3.75-.32,2.82,2.82,0,0,1,4.91-1.72c-.34-.32.12-.85.55-1a4.84,4.84,0,0,1,5.52,2,6.88,6.88,0,0,1,.44,6.1,12.12,12.12,0,0,1-3.85,5C81,122.37,75.33,123.89,69.82,125.06Z"/><polygon class="cls-4" points="0 107.84 1600 152 1600 227.09 0 228.09 0 107.84"/><path class="cls-5" d="M748.54,192.89c-.93-6.68,2-15.21,9.6-18.88,3.68-1.78,8.1-1.52,12.39.3a15.19,15.19,0,0,1,11.62-8.25,12.5,12.5,0,0,1,12.44,6.71c3.08-3.83,9-4,12.92,1.69a15.09,15.09,0,0,1,12.78-7.11,15.65,15.65,0,0,1,12.85,8,9.83,9.83,0,0,1,8.36-4.7,8.85,8.85,0,0,1,7.76,4.77c3.23-3.41,6.54-6.8,10.44-9.12s8.5-3.51,12.87-2.26a14.08,14.08,0,0,1,9.52,10.6,6.41,6.41,0,0,1,9,3.24c3.64-9.58,15.68-12.93,23.2-6.45,2.71-5.46,9.82-6.39,14.63-3s7.39,10.08,7.92,16.49-.7,12.74-1.92,18.95c-14.38-7.28-30.19-8.75-45.66-9.87C840.4,190.52,790.23,199.05,748.54,192.89Z"/><path class="cls-6" d="M917.27,200.29l-.56-.83a156.21,156.21,0,0,0-15.48-19.4.49.49,0,0,1,0-.7.5.5,0,0,1,.71,0,156.25,156.25,0,0,1,15,18.7,164.21,164.21,0,0,0,6.36-25.36.51.51,0,0,1,.58-.42.51.51,0,0,1,.41.58,165,165,0,0,1-6.73,26.47Z"/><path class="cls-6" d="M909.76,189.53h-.08a.51.51,0,0,1-.42-.57,40.72,40.72,0,0,0,.13-11.08.51.51,0,0,1,.44-.56.5.5,0,0,1,.56.43,42,42,0,0,1-.14,11.36A.5.5,0,0,1,909.76,189.53Z"/><path class="cls-6" d="M920.41,188.35a.51.51,0,0,1-.48-.36l-2.41-8.42a.5.5,0,0,1,.34-.61.48.48,0,0,1,.62.34l2.41,8.41a.49.49,0,0,1-.34.62A.32.32,0,0,1,920.41,188.35Z"/><path class="cls-6" d="M873.68,192.82a.48.48,0,0,1-.45-.28,110,110,0,0,1-7.88-21.34.5.5,0,1,1,1-.24,109,109,0,0,0,7.8,21.14.5.5,0,0,1-.22.67A.47.47,0,0,1,873.68,192.82Z"/><path class="cls-6" d="M873.69,192.69a.46.46,0,0,1-.2-.05.49.49,0,0,1-.26-.66,144.28,144.28,0,0,1,7.4-14.43.5.5,0,0,1,.68-.17.49.49,0,0,1,.18.68,143.32,143.32,0,0,0-7.35,14.33A.49.49,0,0,1,873.69,192.69Z"/><path class="cls-6" d="M869.88,184.42a.52.52,0,0,1-.21,0,.5.5,0,0,1-.24-.67,59.29,59.29,0,0,0,4.18-12.66.5.5,0,0,1,.59-.39.51.51,0,0,1,.39.6,60.17,60.17,0,0,1-4.26,12.87A.49.49,0,0,1,869.88,184.42Z"/><path class="cls-6" d="M774.07,192.73a.5.5,0,0,1-.43-.25,73,73,0,0,0-10.57-14,.5.5,0,0,1,.72-.69A73.64,73.64,0,0,1,774.5,192a.49.49,0,0,1-.18.68A.45.45,0,0,1,774.07,192.73Z"/><path class="cls-6" d="M772.6,190a.42.42,0,0,1-.22-.05.5.5,0,0,1-.24-.66,74.12,74.12,0,0,0,5.67-16.91.49.49,0,0,1,.59-.39.5.5,0,0,1,.39.59,75.47,75.47,0,0,1-5.74,17.14A.5.5,0,0,1,772.6,190Z"/><path class="cls-2" d="M1600,227.09l-1600,1V152c824,50.47,1600,40,1600,40Z"/><path class="cls-1" d="M0,165.43s1209.13,46.36,1599.56,31.68L1599.5,213C880.57,203.18.05,187.72.05,187.72Z"/><path class="cls-2" d="M1443.19,91.1a11.48,11.48,0,0,0-7.25-8.62,8.92,8.92,0,0,0-9.76,3.21,6.89,6.89,0,0,0-11.28,3c-7.72-6-19.53-2.52-23.11,6.8a7.56,7.56,0,0,0-6.07-5.41,6.43,6.43,0,0,0-6.41,4.19c-2.32-6.26-9-10.21-14.7-8.69s-9.69,8.31-8.79,14.95a11.82,11.82,0,0,0-15.19,5.77,7.83,7.83,0,0,0-11.31-2c-3.41,2.62-4.92,7.55-4.87,12.3s1.42,9.4,2.78,14c39.73-12.55,76.72-18.91,118-24.23C1443,102.29,1445.23,101.72,1443.19,91.1Z"/><path class="cls-3" d="M1289.51,132.3c-1.38-5.75,3.88-11.49,9.1-9.9a5.9,5.9,0,0,1,2.09-6.46,5.22,5.22,0,0,1,6.4,1c-1-4.68,1.2-11.61,5.13-13.11s9.21,2.57,11.59,6.71c2.4-3.85,5.36-7.7,9.61-8.67s9.78,2.6,9.7,7.44a7.57,7.57,0,0,1,8.86-2.15,10.35,10.35,0,0,1,5.86,8.41C1334.74,119.46,1312.07,125.5,1289.51,132.3Z"/><path class="cls-7" d="M988.78,227.09S1326.84,86.05,1600,81.45V228.09Z"/><path class="cls-2" d="M1600,101c-35.86,44.6-54,63.53-59.82,123.4a170,170,0,0,0-47.45-4.81c17.06-39,30.1-39.72,54-74,15-21.45,34.53-41.41,53.27-56.71Z"/><path class="cls-2" d="M1554.43,84.52h0c-22.54,11.58-46.94,28.71-69.53,48-36.48,31.19-68.52,53-99.13,91a177.14,177.14,0,0,1,38.48,2.67c36.71-65.15,88.1-105,148.47-143.75Z"/><path class="cls-2" d="M1481.66,94.76h0c-25.61,11.92-61.35,26.19-85.92,44.08-44.42,32.34-69.47,47.16-107.85,87.59,11.47,2.58,23.21-8.55,34.79-9.42,52-68.28,113.08-86.25,186.83-126.58h0Z"/><path class="cls-2" d="M1414.86,107.45h0c-85.74,33.29-155.66,64.22-228,119.94,13.2-5.68,24.11,3.36,36.85-3.44,4.53-2.42,8.38-.07,12.2-3.65,60.48-56.58,130-86.74,204.63-118.14h0Z"/><path class="cls-2" d="M1337,126.75h0c-26.27,11.09-51.91,16-78.09,27.93-61.64,28.19-119.61,25.94-172.06,70.68,23.4-3.06,39,6.28,59.15-6.6,68.47-43.75,140.16-66.67,214.26-98.31,0,0,0,0,0,0Z"/><path class="cls-2" d="M1291.83,135.67c-72.81,31.38-185.12,46-252.77,88.41-3.22,2-6.5,1.08-10.16,1.94-2.82.65-5.74-.43-8.65-.54-8.76-.29-17.51.43-26.27.14C1087.54,181.37,1208.54,165.37,1291.83,135.67Z"/><path class="cls-5" d="M93,209.62c-3.67-3-4.37-10.21-1.37-14.26a7.16,7.16,0,0,1,11.76.22c-1.48-6.2,1.27-13.52,6.09-16.26s11.13-.55,14,4.87c4.35-5.62,13-4.49,16.21,2.11,4-5.71,9.25-10.61,15.32-11.83a13.6,13.6,0,0,1,15.37,9A12.45,12.45,0,0,1,186,186.53c1.89-8.87,14.24-16,22.65-14.34,7.69,1.56,11.36,7.43,11.35,13.27a8.87,8.87,0,0,1,11.57.76c3.22,3.09,4.6,8.74,3.31,13.52,5.74-.57,11.12,6.29,10.4,13.28-29.6-7.58-60.22-6.66-90.52-5.71C134.92,207.93,115,208.56,93,209.62Z"/><path class="cls-8" d="M198.56,205.72a.28.28,0,0,0,.28-.23,161.48,161.48,0,0,1,7.7-26.78.28.28,0,0,0-.17-.36.27.27,0,0,0-.36.16,162.57,162.57,0,0,0-7.73,26.87.28.28,0,0,0,.23.33Z"/><path class="cls-8" d="M201,194.34h.07a.29.29,0,0,0,.2-.35l-3.75-14.65a.29.29,0,0,0-.35-.2.29.29,0,0,0-.21.34l3.76,14.65A.29.29,0,0,0,201,194.34Z"/><path class="cls-8" d="M198.7,204.16a.24.24,0,0,0,.19-.08c5.23-5,10.78-9.9,16.52-14.46a.28.28,0,1,0-.35-.44c-5.76,4.57-11.33,9.44-16.56,14.49a.28.28,0,0,0,0,.4A.29.29,0,0,0,198.7,204.16Z"/><path class="cls-8" d="M182.72,207.63h0a.28.28,0,0,0,.25-.32,131.34,131.34,0,0,1-.92-19.93.28.28,0,0,0-.28-.29.29.29,0,0,0-.29.28,131.17,131.17,0,0,0,.93,20A.27.27,0,0,0,182.72,207.63Z"/><path class="cls-8" d="M182.86,207.89a.32.32,0,0,0,.2-.08.3.3,0,0,0,0-.41,56.32,56.32,0,0,1-10.9-16,.28.28,0,0,0-.37-.14.29.29,0,0,0-.15.38,56.92,56.92,0,0,0,11,16.12A.27.27,0,0,0,182.86,207.89Z"/><path class="cls-8" d="M176.93,200.56a.3.3,0,0,0,.29-.28,37.27,37.27,0,0,1,1-7.67.29.29,0,0,0-.21-.35.29.29,0,0,0-.34.21,37.75,37.75,0,0,0-1.06,7.79.29.29,0,0,0,.28.3Z"/><path class="cls-8" d="M152.17,207.38a.3.3,0,0,0,.28-.23l4.47-23.45a.29.29,0,0,0-.23-.34.28.28,0,0,0-.33.23L151.89,207a.28.28,0,0,0,.22.33Z"/><path class="cls-8" d="M152.42,205.56a.31.31,0,0,0,.13,0,.28.28,0,0,0,.12-.38,135.78,135.78,0,0,1-6.83-15.79.27.27,0,0,0-.36-.17.28.28,0,0,0-.17.36,134.55,134.55,0,0,0,6.86,15.86A.27.27,0,0,0,152.42,205.56Z"/><path class="cls-8" d="M153.26,201.09a.31.31,0,0,0,.13,0,35.34,35.34,0,0,0,7.48-5.27.27.27,0,0,0,0-.4.29.29,0,0,0-.4,0,35.11,35.11,0,0,1-7.36,5.19.28.28,0,0,0,.13.53Z"/><path class="cls-8" d="M123.89,206a.2.2,0,0,0,.11,0,.29.29,0,0,0,.15-.38,132,132,0,0,1-7.52-21.16.28.28,0,0,0-.35-.2.29.29,0,0,0-.2.35,133.16,133.16,0,0,0,7.55,21.25A.3.3,0,0,0,123.89,206Z"/><path class="cls-8" d="M120.57,206.4a.28.28,0,0,0,.18-.5c-4.54-3.88-9-8-13.25-12.28a.28.28,0,1,0-.4.4c4.26,4.28,8.73,8.42,13.28,12.31A.34.34,0,0,0,120.57,206.4Z"/><path class="cls-8" d="M122.67,203.33a.29.29,0,0,0,.25-.14,111.52,111.52,0,0,0,6.12-13,.28.28,0,0,0-.16-.37.28.28,0,0,0-.37.16,110.34,110.34,0,0,1-6.09,12.9.28.28,0,0,0,.11.39A.32.32,0,0,0,122.67,203.33Z"/><path class="cls-8" d="M103.22,207.21a.27.27,0,0,0,.17-.06.29.29,0,0,0,.06-.4,48.51,48.51,0,0,1-5.35-8.84.27.27,0,0,0-.38-.14.28.28,0,0,0-.13.38A48.57,48.57,0,0,0,103,207.1.28.28,0,0,0,103.22,207.21Z"/><path class="cls-8" d="M214.92,206.37H215a1.88,1.88,0,0,0,.85-.57l10.85-11a.28.28,0,0,0-.4-.4l-10.85,11a1.38,1.38,0,0,1-.58.41.29.29,0,0,0-.21.35A.28.28,0,0,0,214.92,206.37Z"/><path class="cls-8" d="M217.92,203.56h0a.28.28,0,0,0,.25-.32c-.35-2.5-.69-5-1-7.51v-.08a.29.29,0,1,0-.57.07l0,.08,1,7.52A.29.29,0,0,0,217.92,203.56Z"/><path class="cls-5" d="M1533.3,207c6.47-5.29,7.69-17.95,2.43-25.07a12.6,12.6,0,0,0-20.69.39c2.6-10.91-2.22-23.78-10.71-28.59s-19.55-1-24.59,8.56c-7.65-9.88-22.9-7.89-28.5,3.72-7.08-10.05-16.26-18.66-26.94-20.8a23.89,23.89,0,0,0-27,15.83c-9-5.19-20.46-3-27.58,5.36-3.32-15.58-25-28.2-39.82-25.21-13.52,2.74-20,13.06-20,23.34a15.59,15.59,0,0,0-20.33,1.32c-5.66,5.44-8.09,15.37-5.82,23.79-10.1-1-19.56,11-18.28,23.34,52-13.32,105.86-11.71,159.13-10C1459.56,204.07,1494.51,205.17,1533.3,207Z"/><path class="cls-6" d="M1347.67,200.18a.5.5,0,0,1-.49-.4,284.45,284.45,0,0,0-13.53-47.07.5.5,0,0,1,.94-.36,284.71,284.71,0,0,1,13.57,47.23.5.5,0,0,1-.39.59Z"/><path class="cls-6" d="M1343.39,180.18h-.12a.51.51,0,0,1-.37-.61l6.61-25.75a.5.5,0,1,1,1,.25l-6.61,25.75A.49.49,0,0,1,1343.39,180.18Z"/><path class="cls-6" d="M1347.43,197.44a.45.45,0,0,1-.34-.14c-9.18-8.85-18.95-17.4-29-25.42a.5.5,0,1,1,.62-.78c10.12,8,19.91,16.61,29.11,25.49a.48.48,0,0,1,0,.7A.48.48,0,0,1,1347.43,197.44Z"/><path class="cls-6" d="M1375.53,203.55h-.06a.5.5,0,0,1-.44-.55,231.83,231.83,0,0,0,1.62-35.05.5.5,0,0,1,.49-.51.51.51,0,0,1,.51.48,232.51,232.51,0,0,1-1.63,35.2A.5.5,0,0,1,1375.53,203.55Z"/><path class="cls-6" d="M1375.28,204a.47.47,0,0,1-.35-.14.5.5,0,0,1,0-.71,98.94,98.94,0,0,0,19.16-28,.51.51,0,0,1,.67-.25.49.49,0,0,1,.24.66,100,100,0,0,1-19.35,28.34A.51.51,0,0,1,1375.28,204Z"/><path class="cls-6" d="M1385.7,191.1a.5.5,0,0,1-.5-.48,64.92,64.92,0,0,0-1.84-13.49.5.5,0,0,1,.37-.6.49.49,0,0,1,.6.36,65.6,65.6,0,0,1,1.87,13.7.5.5,0,0,1-.49.51Z"/><path class="cls-6" d="M1429.24,203.1a.51.51,0,0,1-.49-.41l-7.86-41.23a.5.5,0,0,1,1-.19l7.86,41.23a.5.5,0,0,1-.4.59Z"/><path class="cls-6" d="M1428.8,199.91a.46.46,0,0,1-.23-.06.49.49,0,0,1-.22-.67,236.22,236.22,0,0,0,12-27.76.5.5,0,1,1,1,.33,236.64,236.64,0,0,1-12.06,27.88A.49.49,0,0,1,1428.8,199.91Z"/><path class="cls-6" d="M1427.32,192.05a.46.46,0,0,1-.23-.06,62.64,62.64,0,0,1-13.16-9.26.5.5,0,0,1,.68-.74,61.61,61.61,0,0,0,12.94,9.12.49.49,0,0,1,.21.67A.5.5,0,0,1,1427.32,192.05Z"/><path class="cls-6" d="M1479,200.74a.54.54,0,0,1-.21-.05.5.5,0,0,1-.25-.66,232.6,232.6,0,0,0,13.21-37.2.5.5,0,1,1,1,.25,234.27,234.27,0,0,1-13.27,37.36A.49.49,0,0,1,1479,200.74Z"/><path class="cls-6" d="M1484.8,201.37a.49.49,0,0,1-.38-.17.51.51,0,0,1,0-.71c8-6.81,15.82-14.07,23.29-21.57a.5.5,0,0,1,.71,0,.51.51,0,0,1,0,.71c-7.49,7.52-15.35,14.8-23.35,21.63A.49.49,0,0,1,1484.8,201.37Z"/><path class="cls-6" d="M1481.1,196a.51.51,0,0,1-.44-.26,194.16,194.16,0,0,1-10.76-22.8.5.5,0,0,1,.93-.37,192.16,192.16,0,0,0,10.71,22.68.5.5,0,0,1-.2.68A.44.44,0,0,1,1481.1,196Z"/><path class="cls-6" d="M1515.29,202.8a.52.52,0,0,1-.31-.1.5.5,0,0,1-.09-.7,85.47,85.47,0,0,0,9.4-15.55.49.49,0,0,1,.66-.24.5.5,0,0,1,.25.66,86.67,86.67,0,0,1-9.52,15.74A.47.47,0,0,1,1515.29,202.8Z"/><path class="cls-6" d="M1318.92,201.34l-.12,0a3.25,3.25,0,0,1-1.49-1L1298.23,181a.5.5,0,0,1,0-.71.49.49,0,0,1,.7,0L1318,199.61a2.53,2.53,0,0,0,1,.74.5.5,0,0,1-.11,1Z"/><path class="cls-6" d="M1313.63,196.38h-.07a.49.49,0,0,1-.42-.56l1.8-13.21,0-.15a.5.5,0,0,1,1,.14l0,.14-1.8,13.22A.51.51,0,0,1,1313.63,196.38Z"/><path class="cls-4" d="M1600,228.09H0V192c836.75,63.06,1600-10,1600-10Z"/></g></g></g></svg>
