<svg xmlns="http://www.w3.org/2000/svg" width="364" height="230" fill="none" xmlns:v="https://vecta.io/nano"><style><![CDATA[.B{fill:#008444}.C{fill:#006430}.D{fill-rule:evenodd}.E{fill:#069550}.F{fill:#16a75c}.G{fill:#ffa600}.H{stroke-miterlimit:10}]]></style><g clip-path="url(#A)"><path d="M359.847 163.893c3.862-12.601 4.801-25.931 1.983-38.844-4.383-20.098-18.369-44.467-58.969-54.985-76.712-19.89-103.431-78.104-175.238-59.567 0 0-38.513 6.977-56.777 70.606-18.16 63.628-89.55 64.67-64.918 120.071 4.07 9.06 14.821 18.954 30.372 28.222l291.089-.937c20.143-24.16 26.406-44.988 32.459-64.566z" fill="#c3e9d0"/><g fill="#9bdbb3"><path d="M291.171 118.384h-10.958v-11.871c0-5.936-4.175-10.935-9.811-12.289V79.333h-4.071v14.475c-6.471.625-11.48 5.936-11.48 12.601v12.288h-10.855v13.642h-.731v25.41l-19.726-.104v-30.409h-22.648v22.286h-15.864v21.661h-19.204v57.276h63.77 13.672 79.948v-72.168h-32.146l.104-37.907zm-225.439 31.45v-28.43h10.75V106.2h3.966v15.204h9.915v28.43h10.959v17.079h17.638v-58.109h36.843v119.655h-24.005-10.333-25.988-12.003-31.311v-78.625h13.568z"/></g><path d="M266.644 228.146l-167.618.104c-6.367 0-11.481-5.102-11.481-11.455l190.58-.104c0 6.352-5.114 11.455-11.481 11.455z" class="B"/><path d="M266.644 224.189l-167.618.104c-4.905 0-9.185-3.124-10.75-7.498h-.731c0 6.353 5.114 11.455 11.481 11.455l167.618-.104c6.367 0 11.481-5.103 11.481-11.455h-.73c-1.566 4.374-5.845 7.498-10.751 7.498z" class="E"/><path d="M193.689 220.544h-21.604c-2.088 0-3.862-1.666-3.862-3.853h29.328c0 2.187-1.774 3.853-3.862 3.853z" class="C"/><path d="M268.314 216.691l-170.958.104-.104-102.993c0-5.935 4.801-10.726 10.75-10.726l149.563-.104c5.949 0 10.75 4.79 10.75 10.726v102.993z" class="F"/><path d="M259.443 112.032H106.227v95.911h153.216v-95.911z" class="B"/><g class="C"><path d="M259.443 198.675H106.227v9.164h153.216v-9.164zm0-86.643H106.227v4.582h153.216v-4.582z"/></g><g fill="#4dc27e"><path opacity=".16" d="M157.264 112.032l-51.037 51.028v44.883h.104l96.021-96.015-45.088.104zm-31.207 95.911l22.544-.104 96.021-95.911h-22.544l-96.021 96.015zm115.33-.104l18.056-18.016-.105-34.053-53.959 52.069h36.008z"/></g><path d="M268.314 152.958H97.251v18.849h171.063v-18.849z" class="G"/><g fill="#fff"><path d="M118.569 173.5H103.5l12.931-23H131.5l-12.931 23zm31.406 0H135.5l12.525-23H162.5l-12.525 23zm31.594 0H166.5l12.931-23H194.5l-12.931 23zm31.462 0H198.5l12.469-23H225.5l-12.469 23zm31 0H229.5l12.469-23H256.5l-12.469 23z"/></g><g class="D"><path d="M304.02 44.335L290.556 57.56l.928.945v1.325h11.18l-12.108 11.893.928.945v1.325h11.191l-12.122 12.001.931.941v1.324h11.085l-12.016 11.897.931.942v1.324h11.18l-12.108 11.893.928.945v1.325h11.18l-12.108 11.893.928.945v1.325h11.191l-12.122 12.001.931.941v1.325h11.085l-12.016 11.897.931.941v1.324h11.18l-12.108 11.894.928.945v1.324h11.191l-12.122 12.001.931.942v1.324h11.085l-12.016 11.897 1.863 1.883 13.464-13.33-.932-.941v-2.158h-10.243l11.175-11.064-.932-.941v-2.262h-10.225l11.153-10.956-.928-.945v-2.262h-10.243l11.175-11.064-.932-.941v-2.157h-10.243l11.175-11.064-.932-.942v-2.261h-10.225l11.153-10.957-.928-.944v-2.262h-10.225l11.153-10.956-.928-.945v-2.262h-10.243l11.175-11.064-.932-.941V85.61h-10.243l11.175-11.064-.932-.941v-2.262h-10.225l11.153-10.956-.928-.945v-2.262h-10.225l11.153-10.956-1.856-1.89z" class="F"/><g class="B"><path d="M292.809 47.466v156.833h-2.649V47.466h2.649zm13.464 0v156.833h-2.649V47.466h2.649z"/></g></g><path d="M309.419 200.445h-22.927a2 2 0 0 0-2 2v25.909h26.927v-25.909a2 2 0 0 0-2-2z" class="C"/><path d="M304.948 48.5h-14.09c-2.505 0-4.488-2.056-4.488-4.653V25.668c0-2.597 1.983-4.653 4.488-4.653h14.09c2.505 0 4.488 2.056 4.488 4.653v18.287c0 2.489-1.983 4.545-4.488 4.545z" class="E"/><path d="M297.538 40.493h-8.976V27.616h9.08c1.879 0 3.445 1.623 3.445 3.571v5.843c-.105 1.948-1.67 3.463-3.549 3.463z" class="C"/><g class="B D"><path d="M212.185 80.624l-10.854-31.346 2.043-.708 10.854 31.346-2.043.708zm-39.298-7.664l21.083-28.326 1.735 1.291-21.083 28.326-1.735-1.291z"/></g><path d="M201.1 59.13l21.709 28.43c2.4 3.124 1.774 7.602-1.357 9.997l-28.284 21.661c-3.131 2.395-7.619 1.77-10.02-1.354l-21.709-28.43c-2.4-3.124-1.774-7.602 1.357-9.997l28.493-21.661c3.027-2.291 7.515-1.77 9.811 1.354z" fill="#ffb900"/><path d="M199.534 64.545l17.848 23.223c1.983 2.603 1.461 6.248-1.044 8.123l-23.275 17.807c-2.609 1.979-6.262 1.458-8.141-1.041l-17.847-23.223c-1.983-2.603-1.461-6.248 1.044-8.123l23.274-17.808c2.505-2.083 6.158-1.562 8.141 1.041z" stroke="#006430" stroke-width="1.114" class="H"/><path d="M194.003 99.119c-.522 4.165-6.993 3.332-6.367-.833.522-4.27 6.888-3.436 6.367.833zm2.713-23.535l-2.505 17.704-5.427-.729 2.296-17.704 5.636.729z" class="C"/><path d="M199.325 51.528c4.958 0 8.976-4.01 8.976-8.956s-4.018-8.956-8.976-8.956-8.975 4.01-8.975 8.956 4.018 8.956 8.975 8.956z" class="B"/><path d="M205.692 42.572c0 3.541-2.818 6.352-6.367 6.352s-6.366-2.812-6.366-6.352 2.818-6.352 6.366-6.352c3.445 0 6.367 2.812 6.367 6.352z" class="E"/><g class="D"><path d="M233.383 5.191L218.81 20.655v.36h-.339l-.856.908-.964-.908h-.49v-.461l-.474-.447.474-.503V1.854h2.649v14.939L233.743.945l.964.908h1.324v15.825l14.468-15.354v-.471h.444l.856-.908.964.908h.385v.363l.579.545-.579.614v15.299L269.855.945l.964.908h1.325v15.825L287.911.945l.964.908h1.012v16.157L305.967.945l.964.908h1.325v15.825L324.023.945l.964.908h1.325v19.161h-2.649V5.191l-15.768 16.733-.964-.908h-1.324V5.191l-15.768 16.733-.964-.908h-1.637V5.523l-15.455 16.401-.964-.908h-1.324V5.191l-15.768 16.733-.964-.908h-2.264V6.187l-14.828 15.736-.964-.908h-1.324V5.191z" class="F"/><path d="M214.564.529c-.404 0-.786.184-1.037.5l-15.231 19.152c-.184.228-.295.518-.295.834h0v21.557c0 .731.593 1.324 1.324 1.324s1.325-.593 1.325-1.324V22.34h145.838c.54 0 1.025-.328 1.228-.828s.08-1.074-.308-1.449L327.578.901c-.247-.239-.577-.372-.921-.372H214.564zm-12.493 19.161l13.132-16.513h110.919l17.089 16.513h-141.14z" class="B"/></g><path d="M121.465 225.751l10.333-26.555a1.53 1.53 0 0 1 2.818 0l10.333 26.555h-23.484z" class="G"/><g fill="#fff"><path d="M140.5 205.5h-15v5h15v-5zm2.987 10.046h-20.665v5.623h20.665v-5.623z"/></g><path d="M146.827 225.751h-27.24v2.291h27.24v-2.291z" fill="#ff9500"/><path d="M263.132 225.751l10.333-26.555a1.53 1.53 0 0 1 2.818 0l10.333 26.555h-23.484z" class="G"/><g fill="#fff"><path d="M282.428 204.923h-15v5h15v-5zm2.726 10.623h-20.665v5.623h20.665v-5.623z"/></g><path d="M288.494 225.751h-27.24v2.291h27.24v-2.291z" fill="#ff9500"/><path d="M86.653 184.418c1.741-11.662-6.323-22.523-18.011-24.26s-22.574 6.309-24.314 17.971 6.323 22.524 18.011 24.26 22.574-6.309 24.314-17.971z" fill="#1fb767"/><path d="M65.523 173.114a.57.57 0 0 1 .568.568v10.411.005 5.68l.094-.097 2.401-2.467 3.946-4.041c.222-.222.582-.222.804.001a.57.57 0 0 1-.001.803l-3.934 4.03-2.4 2.466-.909.935v36.53a.57.57 0 0 1-.568.568.57.57 0 0 1-.568-.568v-43.624l-8.204-9.106a.57.57 0 0 1 .042-.803.57.57 0 0 1 .803.042l7.359 8.169v-8.934a.57.57 0 0 1 .568-.568z" class="B D"/><path d="M1.126 228.459h358.93" stroke="#008444" stroke-width="1.137" stroke-linecap="round" stroke-linejoin="round" class="H"/></g><defs><clipPath id="A"><path fill="#fff" transform="translate(.5 .5)" d="M0 0h363v229H0z"/></clipPath></defs></svg>