<svg width="20" height="20" viewBox="0 0 20 20" fill="currentColor" xmlns="http://www.w3.org/2000/svg">
<path d="M10 1.66675C14.6025 1.66675 18.3334 5.39758 18.3334 10.0001C18.3334 14.6026 14.6025 18.3334 10 18.3334C5.39752 18.3334 1.66669 14.6026 1.66669 10.0001C1.66669 5.39758 5.39752 1.66675 10 1.66675ZM13.83 6.17008C13.7476 6.0874 13.6386 6.03647 13.5223 6.02625C13.406 6.01604 13.2898 6.0472 13.1942 6.11425C10.7859 7.80425 9.42752 8.80592 9.11585 9.11592C8.88167 9.35057 8.75014 9.66856 8.75014 10.0001C8.75014 10.3316 8.88167 10.6496 9.11585 10.8842C9.35051 11.1184 9.6685 11.25 10 11.25C10.3315 11.25 10.6495 11.1184 10.8842 10.8842C11.0667 10.7009 12.0659 9.34175 13.8825 6.80341C13.9501 6.70871 13.982 6.59309 13.9723 6.47713C13.9627 6.36116 13.9123 6.25236 13.83 6.17008ZM14.5834 9.16675C14.3623 9.16675 14.1504 9.25455 13.9941 9.41083C13.8378 9.56711 13.75 9.77907 13.75 10.0001C13.75 10.2211 13.8378 10.4331 13.9941 10.5893C14.1504 10.7456 14.3623 10.8334 14.5834 10.8334C14.8044 10.8334 15.0163 10.7456 15.1726 10.5893C15.3289 10.4331 15.4167 10.2211 15.4167 10.0001C15.4167 9.77907 15.3289 9.56711 15.1726 9.41083C15.0163 9.25455 14.8044 9.16675 14.5834 9.16675ZM5.41669 9.16675C5.19567 9.16675 4.98371 9.25455 4.82743 9.41083C4.67115 9.56711 4.58335 9.77907 4.58335 10.0001C4.58335 10.2211 4.67115 10.4331 4.82743 10.5893C4.98371 10.7456 5.19567 10.8334 5.41669 10.8334C5.6377 10.8334 5.84966 10.7456 6.00594 10.5893C6.16222 10.4331 6.25002 10.2211 6.25002 10.0001C6.25002 9.77907 6.16222 9.56711 6.00594 9.41083C5.84966 9.25455 5.6377 9.16675 5.41669 9.16675ZM7.34835 6.17008C7.27087 6.09271 7.17891 6.03136 7.07772 5.98953C6.97653 5.9477 6.86809 5.92621 6.7586 5.92628C6.6491 5.92636 6.54069 5.94801 6.43956 5.98998C6.33843 6.03195 6.24656 6.09344 6.16919 6.17092C6.01293 6.32739 5.92523 6.53953 5.92539 6.76067C5.92547 6.87017 5.94711 6.97857 5.98908 7.07971C6.03106 7.18084 6.09254 7.27271 6.17002 7.35008C6.3265 7.50634 6.53864 7.59404 6.75978 7.59388C6.98091 7.59372 7.19293 7.50573 7.34919 7.34925C7.50544 7.19277 7.59314 6.98063 7.59298 6.75949C7.59283 6.53836 7.50483 6.32634 7.34835 6.17008ZM10 4.58341C9.77901 4.58341 9.56705 4.67121 9.41077 4.82749C9.25449 4.98377 9.16669 5.19573 9.16669 5.41675C9.16669 5.63776 9.25449 5.84972 9.41077 6.006C9.56705 6.16228 9.77901 6.25008 10 6.25008C10.221 6.25008 10.433 6.16228 10.5893 6.006C10.7456 5.84972 10.8334 5.63776 10.8334 5.41675C10.8334 5.19573 10.7456 4.98377 10.5893 4.82749C10.433 4.67121 10.221 4.58341 10 4.58341Z" fill="currentColor"/>
</svg>
