<svg width="20" height="20" viewBox="0 0 20 20" fill="currentColor" xmlns="http://www.w3.org/2000/svg">
<path d="M18.6572 10.7746C18.4287 11.0033 18.1533 11.1177 17.8311 11.1177C17.5088 11.1177 17.2363 11.0004 17.0137 10.7658L16.5391 10.2907L15.0625 17.874C15.0273 18.1203 14.8896 18.3695 14.6494 18.6217C14.4092 18.8739 14.1719 19 13.9375 19H6.08008C5.8457 19 5.6084 18.8739 5.36816 18.6217C5.12793 18.3695 4.99023 18.1203 4.95508 17.874L3.47852 10.2731L2.98633 10.7658C2.76367 11.0004 2.49121 11.1177 2.16895 11.1177C1.84668 11.1177 1.57129 11.0033 1.34277 10.7746C1.11426 10.5458 1 10.2702 1 9.94763C1 9.62507 1.11133 9.35236 1.33398 9.12949L9.13867 1.33513C9.37305 1.10054 9.66016 0.989108 10 1.00084C10.3398 0.989108 10.627 1.10054 10.8613 1.33513L18.666 9.12949C18.8887 9.35236 19 9.62507 19 9.94763C19 10.2702 18.8857 10.5458 18.6572 10.7746ZM10.0088 16.7479C10.3193 16.7479 10.583 16.6394 10.7998 16.4224C11.0166 16.2054 11.125 15.9415 11.125 15.6307C11.125 15.3198 11.0166 15.053 10.7998 14.8301C10.583 14.6072 10.3193 14.4958 10.0088 14.4958C9.69824 14.4958 9.43457 14.6072 9.21777 14.8301C9.00098 15.053 8.89258 15.3198 8.89258 15.6307C8.89258 15.9415 9.00098 16.2054 9.21777 16.4224C9.43457 16.6394 9.69824 16.7479 10.0088 16.7479ZM10.0176 7.73953C9.39648 7.73953 8.86621 7.95946 8.42676 8.39932C7.9873 8.83918 7.76758 9.36995 7.76758 9.99162C7.76758 10.6133 7.9873 11.1441 8.42676 11.5839C8.86621 12.0238 9.39648 12.2437 10.0176 12.2437C10.6387 12.2437 11.166 12.0238 11.5996 11.5839C12.0332 11.1441 12.25 10.6133 12.25 9.99162C12.25 9.36995 12.0332 8.83918 11.5996 8.39932C11.166 7.95946 10.6387 7.73953 10.0176 7.73953Z" fill="currentColor"/>
</svg>
