<svg width="16" height="16" viewBox="0 0 16 16" fill="none" xmlns="http://www.w3.org/2000/svg">
<g clip-path="url(#clip0_3447_191161)">
<path d="M3.13999 2.23975H12.86C13.4577 2.23971 14.0328 2.46839 14.4672 2.87887C14.9017 3.28935 15.1626 3.85053 15.1964 4.44727L15.2 4.57975V11.4198C15.2 12.0175 14.9714 12.5925 14.5609 13.027C14.1504 13.4614 13.5892 13.7223 12.9925 13.7562L12.86 13.7598H3.13999C2.54229 13.7598 1.96723 13.5311 1.53278 13.1206C1.09833 12.7101 0.837427 12.149 0.803588 11.5522L0.799988 11.4198V4.57975C0.799949 3.98205 1.02863 3.40699 1.43911 2.97254C1.8496 2.53809 2.41077 2.27719 3.00751 2.24335L3.13999 2.23975ZM14.12 6.10831L8.25199 9.19711C8.18574 9.23211 8.11292 9.25294 8.03817 9.25827C7.96343 9.2636 7.88839 9.25332 7.81783 9.22807L7.74871 9.19783L1.87999 6.10903V11.4198C1.88 11.736 1.99891 12.0406 2.21312 12.2732C2.42733 12.5058 2.72117 12.6494 3.03631 12.6754L3.13999 12.6798H12.86C13.1763 12.6797 13.4811 12.5607 13.7137 12.3464C13.9463 12.132 14.0898 11.838 14.1157 11.5227L14.12 11.4198V6.10831ZM12.86 3.31975H3.13999C2.82377 3.31976 2.51912 3.43867 2.28651 3.65288C2.05389 3.86708 1.91033 4.16092 1.88431 4.47607L1.87999 4.57975V4.88863L7.99999 8.10919L14.12 4.88791V4.57975C14.12 4.26342 14.001 3.95867 13.7866 3.72604C13.5722 3.49341 13.2782 3.34992 12.963 3.32407L12.86 3.31975Z" fill="#616161"/>
</g>
<defs>
<clipPath id="clip0_3447_191161">
<rect width="14.4" height="14.4" fill="white" transform="translate(0.799988 0.799805)"/>
</clipPath>
</defs>
</svg>
