<svg width="16" height="16" viewBox="0 0 16 16" fill="none" xmlns="http://www.w3.org/2000/svg">
<g clip-path="url(#clip0_3447_191175)">
<path d="M12.5 4.4C12.5 4.63869 12.4052 4.86761 12.2364 5.0364C12.0676 5.20518 11.8387 5.3 11.6 5.3C11.3613 5.3 11.1324 5.20518 10.9636 5.0364C10.7948 4.86761 10.7 4.63869 10.7 4.4C10.7 4.16131 10.7948 3.93239 10.9636 3.7636C11.1324 3.59482 11.3613 3.5 11.6 3.5C11.8387 3.5 12.0676 3.59482 12.2364 3.7636C12.4052 3.93239 12.5 4.16131 12.5 4.4Z" fill="#616161"/>
<path d="M10.25 0.799805C7.48159 0.799805 5.29999 2.9814 5.29999 5.7498C5.29999 6.1071 5.33599 6.4662 5.40979 6.8073C5.46199 7.0503 5.40259 7.2609 5.28199 7.3815L1.19599 11.4675C1.07038 11.593 0.970745 11.742 0.902794 11.906C0.834843 12.07 0.799907 12.2458 0.799988 12.4233V13.8498C0.799988 14.2078 0.94222 14.5512 1.19539 14.8044C1.44857 15.0576 1.79195 15.1998 2.14999 15.1998H3.94999C4.30803 15.1998 4.65141 15.0576 4.90458 14.8044C5.15776 14.5512 5.29999 14.2078 5.29999 13.8498V13.3998H6.19999C6.43868 13.3998 6.6676 13.305 6.83638 13.1362C7.00517 12.9674 7.09999 12.7385 7.09999 12.4998V11.5998H7.99999C8.23868 11.5998 8.4676 11.505 8.63638 11.3362C8.80517 11.1674 8.89999 10.9385 8.89999 10.6998V10.5378C9.34369 10.6584 9.80629 10.6998 10.25 10.6998C13.0184 10.6998 15.2 8.5182 15.2 5.7498C15.2 2.9814 13.0184 0.799805 10.25 0.799805ZM6.19999 5.7498C6.19999 3.4782 7.97839 1.6998 10.25 1.6998C12.5216 1.6998 14.3 3.4782 14.3 5.7498C14.3 8.0214 12.5216 9.7998 10.25 9.7998C9.65599 9.7998 9.10429 9.7143 8.65159 9.4875C8.58298 9.45313 8.50672 9.43686 8.43006 9.44026C8.3534 9.44366 8.27888 9.4666 8.21358 9.50692C8.14829 9.54723 8.09439 9.60357 8.057 9.67059C8.01962 9.7376 7.99999 9.81307 7.99999 9.8898V10.6998H7.09999C6.86129 10.6998 6.63237 10.7946 6.46359 10.9634C6.29481 11.1322 6.19999 11.3611 6.19999 11.5998V12.4998H5.29999C5.06129 12.4998 4.83237 12.5946 4.66359 12.7634C4.49481 12.9322 4.39999 13.1611 4.39999 13.3998V13.8498C4.39999 13.9692 4.35258 14.0836 4.26819 14.168C4.18379 14.2524 4.06934 14.2998 3.94999 14.2998H2.14999C2.03064 14.2998 1.91618 14.2524 1.83179 14.168C1.7474 14.0836 1.69999 13.9692 1.69999 13.8498V12.4224C1.70001 12.3033 1.74727 12.189 1.83139 12.1047L5.91829 8.0178C6.30709 7.629 6.38809 7.0782 6.28909 6.6174C6.22905 6.33213 6.19918 6.04133 6.19999 5.7498V5.7498Z" fill="#616161"/>
</g>
<defs>
<clipPath id="clip0_3447_191175">
<rect width="14.4" height="14.4" fill="white" transform="translate(0.799988 0.799805)"/>
</clipPath>
</defs>
</svg>
