<svg width="24" height="25" viewBox="0 0 24 25" fill="currentColor" xmlns="http://www.w3.org/2000/svg">
<path d="M5 14.0059C4.73479 14.0059 4.48043 14.1113 4.2929 14.2988C4.10536 14.4863 4 14.7407 4 15.0059V19.0059C4 19.2711 4.10536 19.5255 4.2929 19.713C4.48043 19.9005 4.73479 20.0059 5 20.0059C5.26522 20.0059 5.51957 19.9005 5.70711 19.713C5.89464 19.5255 6 19.2711 6 19.0059V18.6739H6.666C7.28502 18.6739 7.87868 18.428 8.31639 17.9903C8.7541 17.5526 9 16.9589 9 16.3399C9 15.7209 8.7541 15.1272 8.31639 14.6895C7.87868 14.2518 7.28502 14.0059 6.666 14.0059H5ZM6.666 16.6739H6V16.0059H6.666C6.75458 16.0059 6.83954 16.0411 6.90218 16.1037C6.96481 16.1664 7 16.2513 7 16.3399C7 16.4285 6.96481 16.5134 6.90218 16.5761C6.83954 16.6387 6.75458 16.6739 6.666 16.6739ZM16.002 15.0039C16.0025 14.739 16.1081 14.4852 16.2956 14.2981C16.4831 14.111 16.7371 14.0059 17.002 14.0059H18.998C19.2632 14.0059 19.5176 14.1113 19.7051 14.2988C19.8926 14.4863 19.998 14.7407 19.998 15.0059C19.998 15.2711 19.8926 15.5255 19.7051 15.713C19.5176 15.9005 19.2632 16.0059 18.998 16.0059H17.998V16.6759H18.998C19.2632 16.6759 19.5176 16.7813 19.7051 16.9688C19.8926 17.1563 19.998 17.4107 19.998 17.6759C19.998 17.9411 19.8926 18.1955 19.7051 18.383C19.5176 18.5705 19.2632 18.6759 18.998 18.6759H18V19.0039C18.0003 19.1352 17.9747 19.2653 17.9246 19.3867C17.8746 19.5082 17.8012 19.6186 17.7085 19.7116C17.5214 19.8995 17.2672 20.0054 17.002 20.0059C16.7368 20.0064 16.4822 19.9016 16.2943 19.7144C16.1064 19.5273 16.0005 19.2731 16 19.0079V15.0039H16.002ZM10.996 14.0059C10.7308 14.0059 10.4764 14.1113 10.2889 14.2988C10.1014 14.4863 9.996 14.7407 9.996 15.0059V19.0059C9.996 19.2711 10.1014 19.5255 10.2889 19.713C10.4764 19.9005 10.7308 20.0059 10.996 20.0059H12C12.7957 20.0059 13.5587 19.6898 14.1213 19.1272C14.6839 18.5646 15 17.8016 15 17.0059C15 16.2103 14.6839 15.4472 14.1213 14.8846C13.5587 14.322 12.7957 14.0059 12 14.0059H10.996ZM11.996 18.0059V16.0059H12C12.2652 16.0059 12.5196 16.1113 12.7071 16.2988C12.8946 16.4863 13 16.7407 13 17.0059C13 17.2711 12.8946 17.5255 12.7071 17.713C12.5196 17.9005 12.2652 18.0059 12 18.0059H11.996ZM2 3.00391V10.1679C1.41452 10.3749 0.907709 10.7585 0.54948 11.2657C0.191251 11.773 -0.000737294 12.3789 2.12784e-06 12.9999V21.0059C2.12784e-06 21.8016 0.316073 22.5646 0.878682 23.1272C1.44129 23.6898 2.20435 24.0059 3 24.0059H21C21.7957 24.0059 22.5587 23.6898 23.1213 23.1272C23.6839 22.5646 24 21.8016 24 21.0059V12.9979C24.0003 12.3773 23.8081 11.7718 23.4499 11.2649C23.0917 10.7581 22.5852 10.3748 22 10.1679V6.82791C22.0004 6.43306 21.9229 6.04201 21.7719 5.67719C21.6209 5.31236 21.3994 4.98093 21.12 4.70191L17.288 0.881906C16.7256 0.31987 15.9631 0.00407601 15.168 0.00390625H5C4.20435 0.00390625 3.44129 0.319976 2.87868 0.882586C2.31607 1.44519 2 2.20826 2 3.00391ZM5 2.00391H14V4.99991C14 5.79556 14.3161 6.55862 14.8787 7.12123C15.4413 7.68384 16.2044 7.99991 17 7.99991H20V9.99791H4V3.00391C4 2.73869 4.10536 2.48434 4.2929 2.2968C4.48043 2.10926 4.73479 2.00391 5 2.00391ZM16 2.41991L19.588 5.99991H17C16.7348 5.99991 16.4804 5.89455 16.2929 5.70701C16.1054 5.51948 16 5.26512 16 4.99991V2.41991ZM3 11.9999H21C21.2652 11.9999 21.5196 12.1053 21.7071 12.2928C21.8946 12.4803 22 12.7347 22 12.9999V21.0059C22 21.2711 21.8946 21.5255 21.7071 21.713C21.5196 21.9005 21.2652 22.0059 21 22.0059H3C2.73479 22.0059 2.48043 21.9005 2.2929 21.713C2.10536 21.5255 2 21.2711 2 21.0059V12.9979C2 12.7327 2.10536 12.4783 2.2929 12.2908C2.48043 12.1033 2.73479 11.9979 3 11.9979V11.9999Z" fill="currentColor"/>
</svg>
