<svg width="20" height="20" viewBox="0 0 20 20" fill="currentColor" xmlns="http://www.w3.org/2000/svg">
<path d="M16.6667 3.33325H3.33335C2.41669 3.33325 1.67502 4.08325 1.67502 4.99992L1.66669 14.9999C1.66669 15.9166 2.41669 16.6666 3.33335 16.6666H16.6667C17.5834 16.6666 18.3334 15.9166 18.3334 14.9999V4.99992C18.3334 4.08325 17.5834 3.33325 16.6667 3.33325ZM3.33335 7.49992H12.0834V10.4166H3.33335V7.49992ZM3.33335 12.0833H12.0834V14.9999H4.16669C3.70835 14.9999 3.33335 14.6249 3.33335 14.1666V12.0833ZM15.8334 14.9999H13.75V7.49992H16.6667V14.1666C16.6667 14.6249 16.2917 14.9999 15.8334 14.9999Z" fill="currentColor"/>
</svg>
