<svg width="20" height="20" viewBox="0 0 20 20" fill="currentColor" xmlns="http://www.w3.org/2000/svg">
<path d="M16.6667 5.00008H14.1667V3.33341C14.1667 2.41425 13.4192 1.66675 12.5 1.66675H7.49999C6.58082 1.66675 5.83332 2.41425 5.83332 3.33341V5.00008H3.33332C2.41416 5.00008 1.66666 5.74758 1.66666 6.66675V9.16675H18.3333V6.66675C18.3333 5.74758 17.5858 5.00008 16.6667 5.00008ZM7.49999 3.33341H12.5V5.00008H7.49999V3.33341ZM11.6667 11.6667H8.33332V10.0001H1.66666V15.8334C1.66666 16.7526 2.41416 17.5001 3.33332 17.5001H16.6667C17.5858 17.5001 18.3333 16.7526 18.3333 15.8334V10.0001H11.6667V11.6667Z" fill="currentColor"/>
</svg>
