<svg width="20" height="20" viewBox="0 0 20 20" fill="currentColor" xmlns="http://www.w3.org/2000/svg">
<path fill-rule="evenodd" clip-rule="evenodd" d="M4.16669 2.5C3.50365 2.5 2.86776 2.76339 2.39892 3.23223C1.93008 3.70107 1.66669 4.33696 1.66669 5V15C1.66669 15.663 1.93008 16.2989 2.39892 16.7678C2.86776 17.2366 3.50365 17.5 4.16669 17.5H15.8334C16.2442 17.5 16.8425 17.3833 17.3617 17.01C17.925 16.6042 18.3334 15.9375 18.3334 15V9.165C18.3332 8.8368 18.2685 8.51184 18.1428 8.20867C18.0171 7.9055 17.8329 7.63006 17.6008 7.39807C17.3686 7.16607 17.0931 6.98208 16.7898 6.85659C16.4866 6.73109 16.1615 6.66656 15.8334 6.66667V12.9167C15.8334 13.0272 15.7895 13.1332 15.7113 13.2113C15.6332 13.2894 15.5272 13.3333 15.4167 13.3333C15.3062 13.3333 15.2002 13.2894 15.1221 13.2113C15.0439 13.1332 15 13.0272 15 12.9167V5C15 4.33696 14.7366 3.70107 14.2678 3.23223C13.7989 2.76339 13.1631 2.5 12.5 2.5H4.16669ZM5.83335 5.83333C5.61234 5.83333 5.40038 5.92113 5.2441 6.07741C5.08782 6.23369 5.00002 6.44565 5.00002 6.66667V10C5.00002 10.221 5.08782 10.433 5.2441 10.5893C5.40038 10.7455 5.61234 10.8333 5.83335 10.8333H10.8334C11.0544 10.8333 11.2663 10.7455 11.4226 10.5893C11.5789 10.433 11.6667 10.221 11.6667 10V6.66667C11.6667 6.44565 11.5789 6.23369 11.4226 6.07741C11.2663 5.92113 11.0544 5.83333 10.8334 5.83333H5.83335ZM5.83335 12.5C5.61234 12.5 5.40038 12.5878 5.2441 12.7441C5.08782 12.9004 5.00002 13.1123 5.00002 13.3333C5.00002 13.5543 5.08782 13.7663 5.2441 13.9226C5.40038 14.0789 5.61234 14.1667 5.83335 14.1667H10.8334C11.0544 14.1667 11.2663 14.0789 11.4226 13.9226C11.5789 13.7663 11.6667 13.5543 11.6667 13.3333C11.6667 13.1123 11.5789 12.9004 11.4226 12.7441C11.2663 12.5878 11.0544 12.5 10.8334 12.5H5.83335Z" fill="currentColor"/>
</svg>
