<svg width="20" height="20" viewBox="0 0 20 20" fill="currentColor" xmlns="http://www.w3.org/2000/svg">
<path d="M16.6667 18.5H3.33334V16.8333C3.33334 15.7283 3.77233 14.6685 4.55373 13.8871C5.33513 13.1057 6.39494 12.6667 7.50001 12.6667H12.5C13.6051 12.6667 14.6649 13.1057 15.4463 13.8871C16.2277 14.6685 16.6667 15.7283 16.6667 16.8333V18.5ZM10 11C9.3434 11 8.69322 10.8707 8.08659 10.6194C7.47996 10.3681 6.92877 9.99983 6.46448 9.53553C6.00018 9.07124 5.63189 8.52004 5.38061 7.91342C5.12934 7.30679 5.00001 6.65661 5.00001 6C5.00001 5.34339 5.12934 4.69321 5.38061 4.08658C5.63189 3.47995 6.00018 2.92876 6.46448 2.46447C6.92877 2.00017 7.47996 1.63188 8.08659 1.3806C8.69322 1.12933 9.3434 1 10 1C11.3261 1 12.5979 1.52678 13.5355 2.46447C14.4732 3.40215 15 4.67392 15 6C15 7.32608 14.4732 8.59785 13.5355 9.53553C12.5979 10.4732 11.3261 11 10 11Z" fill="currentColor"/>
</svg>
